<svg xmlns="http://www.w3.org/2000/svg" width="247" height="143" fill="none"><g><path fill="#F5C26B" d="M246.821 121.493c.696 8.575-15.597 20.048-15.597 20.048l-5.351-3.798-2.566 4.057-11.897.42c-3.62-2.178-6.047.22-6.047.22l-12.076.42-5.888-7.356-3.542 6.196-10.424.38s-1.074-.4-6.803-3.558c-5.75-3.138-11.996-2.718-11.996-2.718l.099 3.138-11.678.4s-7.977-1.599-18.023-2.219c-10.027-.599-21.883.76-21.883.76-2.268-5.277-5.292-8.295-5.292-8.295l-.08-5.097c1.512 0 2.885-.12 4.059-.28 7.699-1.099 15.795-2.338 23.574-.659 7.778 1.659 27.135-.06 27.135-.06s12.195 2.518 20.371 3.697c8.176 1.2 22.082-.959 31.691-1.079 9.588-.14 36.763 6.996 36.465-17.249 1.83 2.398 3.819 5.516 4.933 8.814.299 1.32.577 2.599.816 3.818Z"/><path fill="#FFDE8C" d="M246.005 117.696c-1.114-3.298-3.103-6.416-4.933-8.815-2.149-2.818-4.039-4.637-4.039-4.637l-6.107-14.051.617 11.932s-1.134-.3-2.766-.439c-3.998-.34-11.061.279-12.413 8.514 0 0 1.034-17.329-1.612-34.558a113.243 113.243 0 0 0-1.273-6.876c-2.268-10.354-6.983-17.55-11.419-22.666-2.546-2.978-5.013-5.237-6.823-6.976-.836-.82-1.532-1.539-2.049-2.158-3.482-4.278 2.586-9.934 2.586-9.934l6.187 3.758-.159-4.598c2.864-1.359 5.411-.2 5.411-.2 17.904 17.77 32.864 64.96 38.792 91.704Z"/><path fill="#87DBBA" d="M241.072 108.861c.298 24.245-26.877 17.109-36.465 17.249-9.609.12-23.515 2.279-31.691 1.079-8.176-1.179-20.371-3.697-20.371-3.697s-19.357 1.719-27.135.06c-7.779-1.679-15.875-.44-23.574.659-1.174.16-2.547.26-4.058.28-8.416.18-21.287-1.599-28.588-3.038a88.482 88.482 0 0 0-12.175-1.479c-4.993-.28-10.205-.22-15.656.16 5.968-4.797 12.871-10.414 19.973-16.51 1.154 4.957 1.492 8.715 5.292 9.854 3.8 1.119 9.29 3.458 9.29 3.458s8.933-1.779 11.837-1.879c2.924-.1-.398-5.417 4.814-5.597 5.213-.22 11.101.72 11.658-7.315.557-8.035 3.979-11.913-.517-14.91-4.476-2.999-6.923-7.097-9.35-5.138-2.447 1.98-4.357 7.076-8.276 8.475-3.92 1.4-9.171-.84-9.171-.84 9.25-8.674 17.864-17.668 24.111-26.103 6.665-9.015 11.32-15.49 14.483-19.948 9.569.98 17.327 2.798 27.055 2.739.756 0 1.532 0 2.328-.04 10.842-.38 17.725-.2 25.484.799 3.302.42 7.877.52 12.751.42-3.123 6.836-7.161 3.997-11.856 7.315-4.675 3.298-9.589 12.332-9.589 12.332l-3.68-3.497-6.824 1.499s-6.326 4.197-10.086 4.337c-3.76.12-1.373 8.635.617 11.933 1.989 3.278.935 8.974.935 8.974-5.232-.66-8.037 3.018-8.037 3.018s4.277 8.955 1.213 11.113c-3.044 2.159-6.644 8.575-4.774 10.394 1.87 1.819 4.376 1.939 4.376 1.939s4.258.699 5.849-.2c1.611-.9 2.686-6.176 5.172-6.676 2.487-.5 5.133-2.698 5.133-2.698s-1.492-6.856-.298-8.575c1.193-1.719 4.893-3.738 2.725-5.976-2.168-2.239.458-4.837 1.492-5.077 1.035-.26 3.442 3.018 3.442 3.018s1.909-5.317 3.024-3.258c1.114 2.059 1.81 10.014 5.371 10.733 3.581.72 14.124-2.298 18.461 2.639 4.337 4.957 7.42 3.597 7.42 3.597l3.959-9.074s-3.859-6.036-.199-6.156c3.661-.14 8.654-.52 11.419-5.017 2.766-4.497 3.203-9.534 6.366-8.615 2.646 17.23 1.612 34.559 1.612 34.559-1.89 11.593 11.737 13.631 15.119 8.495l-2.706-17.01c1.632.14 2.766.44 2.766.44l-.617-11.933 6.107 14.052s1.89 1.818 4.039 4.617v.02ZM131.099 70.145c1.154-2.359-.199-5.457-.199-5.457-3.322.54-4.694 3.098-2.725 5.557 1.95 2.438 1.751 2.238 2.924-.1Zm-8.494-3.018s4.257-4.597 4.197-6.276c-.059-1.68-3.74-5.537-3.74-5.537s-4.854-4.018-7.141.26c-1.791 3.338 1.929 5.796-.896 9.034-2.805 3.238-1.909 8.455 1.492 8.335 3.402-.1 6.088-5.816 6.088-5.816Z"/><path fill="#DEA854" d="m228.777 101.665 2.706 17.01c-3.382 5.136-17.009 3.098-15.119-8.495 1.353-8.235 8.415-8.855 12.413-8.515Z"/><path fill="#8AA31F" d="M214.752 75.642c-3.163-.92-3.6 4.117-6.366 8.614-2.765 4.498-7.758 4.877-11.419 5.017-3.66.12.199 6.157.199 6.157l-3.959 9.074s-3.083 1.359-7.42-3.598c-4.337-4.937-14.88-1.919-18.461-2.638-3.561-.72-4.257-8.675-5.371-10.734-1.115-2.058-3.024 3.258-3.024 3.258s-2.407-3.278-3.442-3.018c-1.034.24-3.66 2.838-1.492 5.077s-1.532 4.258-2.725 5.976c-1.194 1.719.298 8.575.298 8.575s-2.646 2.199-5.133 2.698c-2.486.5-3.561 5.777-5.172 6.676-1.591.9-5.849.2-5.849.2s-2.506-.12-4.376-1.939c-1.87-1.819 1.73-8.235 4.774-10.393 3.064-2.159-1.213-11.113-1.213-11.113s2.805-3.678 8.037-3.018c0 0 1.054-5.697-.935-8.975-1.99-3.298-4.377-11.813-.617-11.932 3.76-.14 10.086-4.338 10.086-4.338l6.824-1.499 3.68 3.498s4.914-9.034 9.589-12.332c4.695-3.318 8.733-.48 11.856-7.316 6.585-.16 13.687-.74 18.939-1.519 4.436 5.117 9.151 12.313 11.419 22.666.497 2.259.915 4.577 1.273 6.876Z"/><path fill="#F5C26B" d="M195.237 39.104c1.81 1.74 4.277 3.998 6.823 6.976-5.252.78-12.354 1.36-18.939 1.519-4.874.1-9.449 0-12.751-.42-7.759-1-14.642-1.179-25.484-.8-.796.04-1.572.04-2.328.04v-1.638s6.744-9.454 10.981-7.915c4.218 1.519 8.416 2.118 8.416 2.118s3.083 4.817 7.38 2.359c4.297-2.459 8.515-1.14 8.515-1.14l9.509 3.039s3.68-1.979 7.878-4.138ZM142.538 44.78v1.64c-9.708.06-17.466-1.76-27.035-2.739 4.317-6.076 5.829-8.434 5.829-8.434 4.834.68 12.035 4.197 12.035 4.197l4.795-.16 4.376 5.497Z"/><path fill="#E39600" d="M130.9 64.689s1.353 3.098.199 5.456c-1.173 2.339-.974 2.538-2.924.1-1.969-2.458-.597-5.017 2.725-5.556Z"/><path fill="#8AA31F" d="M126.802 60.85c.06 1.68-4.197 6.277-4.197 6.277s-2.686 5.716-6.088 5.816c-3.401.12-4.297-5.097-1.492-8.335 2.825-3.238-.895-5.696.896-9.034 2.287-4.277 7.141-.26 7.141-.26s3.681 3.858 3.74 5.537Z"/><path fill="#FFDE8C" d="M41.359 120.154c-1.73 1.379-3.362 2.698-4.914 3.937 1.95-1.938 3.62-5.056 2.646-9.853l1.154-2.979s-2.01-3.278-5.77-6.236c-3.839-2.998-9.489-5.676-16.73-4.157-1.651.34-3.362.899-5.152 1.699a22.495 22.495 0 0 0-4.337 2.598c14.204-11.433 43.01-29.042 56.08-45.911 13.19-17.01 24.549-39.016 24.549-39.016s2.825-4.018 5.71-4.957l.338-1.12 14.84.6-5.311 9.354 8.474-8.474c10.027 6.356 8.396 19.628 8.396 19.628s-1.512 2.358-5.829 8.434c-3.163 4.458-7.818 10.934-14.483 19.948-6.246 8.435-14.86 17.43-24.111 26.104-5.093 4.777-10.385 9.454-15.577 13.891-7.102 6.096-14.005 11.713-19.973 16.51Z"/><path fill="#E39600" d="M103.706 87.255c4.496 2.998 1.074 6.875.517 14.91s-6.445 7.096-11.658 7.316c-5.212.18-1.89 5.496-4.814 5.596-2.904.1-11.837 1.879-11.837 1.879s-5.49-2.338-9.29-3.458c-3.8-1.139-4.138-4.897-5.292-9.854 5.193-4.437 10.484-9.114 15.577-13.891 0 0 5.252 2.239 9.171.84 3.919-1.4 5.829-6.496 8.276-8.475 2.427-1.959 4.874 2.138 9.35 5.137Z"/><path fill="#F5C26B" d="m97.778 124.491.079 5.097c-2.268.72-5.75 8.675-5.75 8.675l-31.69 1.099c-1.85-4.877-11.737-1.359-11.737-1.359l8.216-15.81.12-2.219c4.197.22 8.235.72 12.174 1.479 7.301 1.439 20.172 3.218 28.588 3.038Z"/><path fill="#F5C26B" d="m57.015 119.974-.12 2.218-16.71 17.789s-1.034.24-5.63.18c-4.595-.04-9.688-2.598-9.688-2.598s-6.724 4.857-16.67.58c-8.933-3.818-12.355-23.026-.359-32.66.14-.12.279-.22.418-.34a22.495 22.495 0 0 1 4.337-2.598c1.79-.8 3.501-1.36 5.152-1.699-6.565 3.737-3.66 14.451 3.183 15.63l-6.008 5.077c4.496 3.198 8.495 4.317 12.911 5.436l4.019-4.757.159 4.598s2.387-.74 4.436-2.759c1.552-1.239 3.183-2.558 4.914-3.937 5.45-.38 10.663-.44 15.656-.16Z"/><path fill="#DEA854" d="m40.245 111.24-1.154 2.978c.975 4.797-.696 7.915-2.646 9.854-2.049 2.018-4.436 2.758-4.436 2.758l-.16-4.597-4.018 4.757c-4.416-1.12-8.415-2.239-12.91-5.437l6.007-5.077 13.548-11.473c3.76 2.959 5.769 6.237 5.769 6.237Z"/><path fill="#5CBD99" d="m34.476 105.003-13.548 11.473c-6.843-1.179-9.748-11.892-3.183-15.63 7.241-1.52 12.891 1.159 16.73 4.157Z"/><path fill="#CC9040" d="M33.123 125.931c.676-1.14 1.432-2.099 1.93-3.039.517-.939.835-1.778.994-2.658.24-.859.22-1.779.279-2.738.02-.96-.06-1.999-.1-3.058v-.8l.18-.48c.377-.919.855-1.798 1.352-2.658l.2 2.179-.797-1.639c-.298-.56-.577-1.14-.875-1.739l-1.89-3.678.18-.24c2.267 1.539 4.097 3.618 5.63 5.877l.079.1-.06.14-1.094 2.758v-.14c.278 2.358.219 4.857-.756 7.115a8.625 8.625 0 0 1-2.129 2.919c-.895.799-1.93 1.439-2.944 2.018l-.16-.259-.019.02ZM228.38 102.025c-1.791.94-3.263 1.659-4.477 2.459-.596.44-1.173.759-1.611 1.239-.497.4-.915.82-1.273 1.319-.816.9-1.432 2.039-2.129 3.398-.656 1.379-1.233 2.978-2.128 4.797h-.299c-.199-1.719-.238-3.498.1-5.257.338-1.739 1.014-3.457 2.148-4.857 1.154-1.379 2.765-2.358 4.456-2.878 1.691-.539 3.502-.659 5.232-.48v.3l-.019-.04Z"/><path fill="#459B78" d="m34.535 105.103-9.708 8.355-9.847 8.195-.12-.16c1.174-1.919 2.567-3.578 4.039-5.137 1.452-1.579 3.044-3.018 4.635-4.417 1.651-1.359 3.323-2.678 5.133-3.858 1.79-1.179 3.66-2.278 5.73-3.118l.119.16.02-.02Z"/><path fill="#F5C26B" d="M34.496 105.063c-1.393 1.639-2.925 3.158-4.476 4.637-1.552 1.48-3.183 2.859-4.755 4.278-1.671 1.319-3.302 2.718-5.013 3.977-1.711 1.28-3.442 2.519-5.312 3.638l-.06-.08a1957.024 1957.024 0 0 1 19.556-16.55l.06.08v.02Z"/><path fill="#5CBD99" d="M238.943 107.302c-2.208-2.858-3.74-6.116-5.232-9.494-.776-1.76-1.79-3.518-2.347-5.357 0 3.138.119 6.736.119 9.874-.856-.3-1.711-.52-2.586-.5.935 5.737 1.551 11.133 2.486 16.87.239-4.737-.159-10.094-.716-15.071.876.26 1.731.58 2.567 1 .039-1.28.059-2.539.079-3.818 1.612 3.938 4.357 7.176 7.858 9.294-.656-1.019-1.432-1.919-2.208-2.818l-.02.02Z"/><path fill="#F5C26B" d="M231.423 118.695c-.577-1.359-.955-2.758-1.313-4.157-.358-1.4-.577-2.819-.875-4.218-.159-1.419-.398-2.838-.478-4.277-.099-1.439-.159-2.878-.039-4.357h.099a796.801 796.801 0 0 1 2.706 16.989h-.1v.02Z"/><path fill="#FFDE8C" d="M14.96 121.513a29.212 29.212 0 0 0 6.187 3.298c2.188.86 4.456 1.439 6.744 1.979l-.219.06 3.959-4.797.438-.54.04.7.198 4.597-.398-.28c2.388-.899 4.576-2.578 5.83-4.777 1.273-2.219 1.432-4.937.895-7.435v-.14l.02-.14 1.113-2.978.04.439c-2.108-3.098-4.953-5.796-8.176-7.695-3.223-1.919-6.983-2.878-10.683-2.658-7.38.5-14.761 4.777-17.924 11.593-1.631 3.358-2.288 7.155-2.07 10.873.24 3.718 1.334 7.455 3.502 10.393 1.074 1.44 2.487 2.679 4.058 3.338 1.771.74 3.502 1.24 5.332 1.499 3.6.5 7.52-.159 10.444-2.018l.478-.3.497.22c2.268 1.059 4.735 1.899 7.202 2.298 1.213.2 2.446.18 3.78.18 1.253 0 2.705-.04 3.7-.18l-.498.28L56.1 121.493l5.292-5.656-3.561 6.895-8.176 15.831-1.373-1.599c2.168-.72 4.317-1.22 6.645-1.3 1.153-.02 2.367.04 3.6.5 1.234.42 2.467 1.479 2.964 2.818l-1.134-.759 31.691-1.199-1.134.759a50.378 50.378 0 0 1 2.447-4.857c.458-.799.935-1.579 1.512-2.338.298-.38.597-.78.975-1.16.398-.379.796-.779 1.611-1.079l.736-.26.577.6a25.453 25.453 0 0 1 1.711 2.019 30.771 30.771 0 0 1 1.472 2.118 33.162 33.162 0 0 1 2.407 4.557l-1.392-.799c6.724-.68 13.428-1.039 20.212-.8a147.82 147.82 0 0 1 20.092 2.399h-.278l11.677-.38-1.134 1.219-.099-3.138-.04-1.159 1.114-.04c1.85-.06 3.541.1 5.272.38 1.731.3 3.422.779 5.053 1.439a23.8 23.8 0 0 1 2.387 1.139l2.189 1.199c1.432.78 3.023 1.639 4.336 2.219l-.417-.06 10.424-.32-.875.54 3.561-6.196.756-1.319.954 1.199 5.869 7.375-.816-.379 12.096-.38-.637.28c.577-.52 1.094-.8 1.731-1.04.617-.22 1.273-.36 1.91-.36 1.313 0 2.546.44 3.561 1.06l-.517-.14 11.876-.38-.736.42 2.586-4.058.497-.799.756.54 5.332 3.817h-.995c3.064-2.218 6.028-4.717 8.694-7.415 2.606-2.719 5.152-5.717 6.286-9.175.259-.859.398-1.738.338-2.578a15.568 15.568 0 0 0-.477-2.698c-.477-1.799-1.253-3.518-2.149-5.177-1.83-3.298-4.237-6.356-6.863-9.034l-.119-.12-.06-.12-6.008-14.091 1.134-.28.497 11.932v.64l-.596-.14c-3.342-.78-7.122-.86-10.206.759a8.068 8.068 0 0 0-3.521 3.678c-.756 1.559-1.154 3.338-1.213 5.097-.06 1.759.318 3.538 1.253 5.037.915 1.499 2.367 2.638 3.979 3.318 1.631.679 3.441.919 5.192.679 1.731-.239 3.501-.999 4.516-2.478l.119.08c-1.034 1.559-2.845 2.338-4.615 2.598-1.791.26-3.641.02-5.312-.659-1.671-.68-3.183-1.839-4.158-3.378-.994-1.539-1.392-3.398-1.352-5.197.039-1.819.417-3.618 1.193-5.257a8.7 8.7 0 0 1 3.68-3.897c3.243-1.719 7.083-1.659 10.564-.9l-.099.08-.617-11.932v-.5l.179.46 6.127 14.051v-.04c2.706 2.758 5.133 5.816 7.043 9.214.935 1.699 1.75 3.478 2.248 5.357.517 1.859.775 3.897.139 5.776-1.214 3.758-3.82 6.796-6.466 9.574a70.625 70.625 0 0 1-8.813 7.556l-.059.04-.06-.04-5.351-3.798.159-.04-2.566 4.078-.04.04h-.06l-11.876.419h-.06c-.915-.539-1.95-.919-3.004-.899-1.054 0-2.109.4-2.905 1.099l-.039.04h-.04l-12.096.42h-.059l-.04-.04-5.889-7.336h.199l-3.541 6.197-.039.06h-.08l-10.424.359h-.02c-1.552-.699-3.024-1.499-4.496-2.278-1.492-.78-2.905-1.659-4.456-2.279a24.823 24.823 0 0 0-9.768-1.699l.119-.14.1 3.138v.14h-.14l-11.677.4h-.04a144.505 144.505 0 0 0-19.874-2.299c-6.664-.219-13.348.16-19.993.86h-.119l-.04-.08c-1.313-2.998-3.044-5.856-5.272-8.255l.14.04c-.757.3-1.334 1.019-1.85 1.699-.518.7-.995 1.439-1.433 2.199a51.97 51.97 0 0 0-2.387 4.697l-.04.08h-.08l-31.69 1.099h-.1l-.04-.08c-.358-.979-1.193-1.719-2.188-2.079-.995-.359-2.069-.439-3.123-.419-2.129.08-4.238.539-6.267 1.199l-.298.1.14-.28 8.235-15.81.199.14-16.73 17.769h-.02l-.04.04c-1.333.2-2.626.18-3.96.2-1.312 0-2.645.019-3.938-.2-2.606-.42-5.113-1.3-7.5-2.419h.12c-3.323 2.079-7.381 2.698-11.2 2.159-1.91-.26-3.8-.82-5.57-1.579-1.811-.78-3.303-2.119-4.457-3.678-2.308-3.158-3.422-7.056-3.66-10.913-.22-3.878.497-7.835 2.188-11.333 3.382-7.116 11.02-11.513 18.68-11.993 3.88-.2 7.778.86 11.08 2.859 3.323 1.998 6.168 4.757 8.316 7.995v.079l-1.154 2.979v-.04c.557 2.598.358 5.456-1.014 7.795-1.353 2.318-3.62 4.017-6.127 4.917l-.1.04v-.12l-.159-4.617.14.04-4.02 4.757-.04.04h-.039c-2.288-.58-4.556-1.18-6.744-2.059-2.188-.859-4.277-2.019-6.187-3.378l.08-.12.14-.08Z"/><path fill="#FFEBB5" d="M7.64 105.263c7.758-6.256 15.974-11.852 23.951-17.788 7.977-5.897 15.895-11.953 23.097-18.729 7.38-6.636 13.13-14.77 18.64-23.046a322.552 322.552 0 0 0 15.239-25.624v-.04a21.148 21.148 0 0 1 2.586-2.918c.955-.88 2.01-1.699 3.302-2.138l.18.58c-1.055.619-1.85 1.578-2.567 2.557-.358.5-.716 1-1.015 1.52-.318.5-.636 1.079-.855 1.559l.12-.2c-3.343 9.614-7.74 18.688-12.752 27.523-2.627 4.337-5.213 8.714-8.336 12.832-1.492 2.059-3.282 4.237-5.033 6.176a63.198 63.198 0 0 1-5.55 5.537c-3.86 3.437-7.74 6.775-11.897 9.694-4.098 2.978-8.256 5.816-12.553 8.414-8.534 5.317-17.287 9.954-26.26 14.551l-.377-.46h.08Z"/><path fill="#F5C26B" d="M119.959 24.174c-1.313-3.518-3.74-6.656-6.943-8.675l-.099-.06-.08.08-7.54 7.495 4.655-8.175.16-.28h-.319L94.933 14h-.12l-.04.12a171.453 171.453 0 0 1-3.421 10.394c-1.273 3.417-2.646 6.815-4.377 10.013l.18.1c1.054-1.519 1.969-3.118 2.804-4.757a114.397 114.397 0 0 0 2.407-4.977 159.379 159.379 0 0 0 3.541-9.194c2.13.16 4.238.24 6.366.38l4.576.26c-.438.74-.875 1.459-1.273 2.218l-2.586 4.717-6.048 11.033 8.713-8.974 4.178-4.297c1.094-1.14 2.208-2.279 3.302-3.438a16.319 16.319 0 0 1 5.789 6.995c.737 1.62 1.333 3.358 1.691 5.157a31.89 31.89 0 0 1 .617 5.517h.199c.318-3.718-.139-7.556-1.472-11.073v-.02Z"/><path fill="#D47300" d="M62.506 102.025c4.058-3.537 8.077-7.115 11.996-10.793l8.753-.2c-2.606 2.419-5.232 4.797-7.918 7.096-4.058 3.278-8.017 6.636-12.274 9.634l-.657.48.1-6.237v.02Z"/><path fill="#6AB796" d="M40.603 120.314c7.38-5.996 14.721-12.052 21.903-18.289l-.1 6.237c-5.729 4.177-11.637 8.114-17.784 11.692l-4.019.36Z"/><path fill="#CC9040" d="M44.621 119.954a171.724 171.724 0 0 1-7.997 4.357l-.378-.459c1.453-1.18 2.905-2.339 4.357-3.518l4.018-.36v-.02Z"/><path fill="#DEA854" d="M115.224 43.502a420.008 420.008 0 0 0 5.869-8.415l.497.32a136.691 136.691 0 0 1-3.879 8.514l-2.487-.42Z"/><path fill="#6AB796" d="M117.691 43.941c-3.282 6.576-7.022 12.872-10.902 19.028l-2.069 3.298c-.716 1.12-1.512 2.219-2.287 3.318a152.985 152.985 0 0 1-4.855 6.356c-3.381 4.098-7.022 7.895-10.682 11.653a299.665 299.665 0 0 1-3.66 3.458l-8.754.2a385.71 385.71 0 0 0 8.236-7.915c7.34-7.196 14.323-14.751 20.292-23.146 4.098-5.536 8.196-11.053 12.194-16.65l2.487.42v-.02Z"/><path fill="#C9DE8C" d="M36.306 123.932c3.541-3.818 7.34-7.296 10.961-10.973 3.72-3.558 7.44-7.116 11.2-10.614l11.16-10.533c3.721-3.498 7.421-7.016 11.002-10.614a259.832 259.832 0 0 0 10.603-10.893 149.221 149.221 0 0 0 5.034-5.636l4.834-5.897c3.222-3.997 6.545-7.955 9.867-11.892 3.442-3.858 6.704-7.835 10.186-11.693l.338.22c-5.73 8.595-11.797 16.91-17.865 25.244-5.928 8.455-12.89 16.15-20.192 23.406-14.741 14.43-30.755 27.423-46.87 40.215l-.238-.32-.02-.02Z"/><path fill="#6AB796" d="M214.494 71.704c1.154 6.336 1.77 12.772 2.089 19.188.298 6.436.318 12.872 0 19.288h-.398c-1.094-6.476-1.89-12.832-2.706-19.128-.477-3.138-.796-6.276-1.333-9.374-.199-1.34-.398-2.678-.597-3.998l2.965-5.976h-.02Z"/><path fill="#7A9600" d="M211.53 77.7c-.279-1.758-.577-3.517-.955-5.236-.518-3.078-1.174-5.976-2.109-8.835-.816-2.898-2.049-5.636-3.302-8.394-1.453-3.039-3.243-5.937-5.173-8.855l2.447-.2c2.009 2.319 3.86 4.777 5.431 7.436 3.362 5.516 5.491 11.752 6.625 18.108l-2.964 5.977Z"/><path fill="#DEA854" d="M199.991 46.38c-1.571-2.339-3.223-4.697-4.894-7.116l.279-.28c2.447 2.279 4.854 4.657 7.062 7.196l-2.447.2Z"/><path fill="#C9DE8C" d="M195.376 38.964c5.59 3.318 10.802 7.696 14.662 13.332 2.009 2.758 3.521 5.856 4.834 9.014 1.253 3.198 2.069 6.576 2.725 9.794.557 3.278.995 6.536 1.253 9.814.179 3.278.378 6.556.239 9.834-.159 6.536-.835 13.052-2.546 19.428h-.398c.278-6.436.179-12.852-.179-19.268-.378-6.396-1.074-12.792-2.268-19.088-1.074-6.296-3.103-12.452-6.346-17.949-3.203-5.556-7.6-10.254-12.255-14.65l.279-.28v.02Z"/><path fill="#F5C26B" d="M207.193 26.073a7.578 7.578 0 0 0-2.686 0c-.855.18-1.631.48-2.347.88l.477-.8c.159 1.539.438 3.058.497 4.597l.08 2.158-1.87-1.099c-2.069-1.24-4.237-2.319-6.247-3.678l1.552-.16c-.756.68-1.512 1.56-2.109 2.459-.577.9-1.114 1.839-1.392 2.798-.279.98-.199 1.959.219 2.918.437.96 1.253 1.92 1.909 2.919l-.099.1c-.836-.84-1.731-1.64-2.407-2.639-.677-1.02-.895-2.298-.677-3.498.199-1.199.717-2.318 1.353-3.318a15.249 15.249 0 0 1 2.248-2.798l.08-.08.099.06 6.167 3.778-.179.1-.139-4.598v-.06l.06-.02c1.71-.799 3.74-.879 5.49-.16l-.059.14h-.02Z"/><path fill="#FFEBB5" d="M246.622 121.553c-1.631-4.097-2.924-8.235-4.536-12.292l-4.376-12.253-4.377-12.192c-1.452-4.058-2.885-8.115-4.456-12.133-1.452-4.057-3.024-8.035-4.615-12.032-1.532-4.018-3.263-7.915-4.954-11.873-1.751-3.897-3.541-7.795-5.53-11.572a78.068 78.068 0 0 0-3.104-5.657c-1.154-1.819-2.308-3.638-3.581-5.417l.279-.28c6.167 6.197 10.683 13.812 14.721 21.507 3.999 7.735 7.42 15.77 10.504 23.925 3.024 8.175 5.709 16.47 8.117 24.845 2.407 8.375 4.555 16.81 6.286 25.364l-.398.08.02-.02Z"/><path fill="#DEA854" d="M121.332 35.207c2.108.32 4.157.98 6.167 1.699a73.257 73.257 0 0 1 5.888 2.478h-.04l4.795-.18h.04l.019.02 4.377 5.497h-.119a38.852 38.852 0 0 1 3.74-4.357c1.352-1.34 2.825-2.639 4.615-3.398.875-.36 1.93-.54 2.845-.18.895.32 1.81.6 2.725.86 1.83.52 3.7.919 5.571 1.219h.039l.02.04c1.253 1.799 3.382 3.398 5.65 2.958 1.114-.18 2.029-.94 3.123-1.32a11.4 11.4 0 0 1 3.342-.739c1.154-.08 2.308 0 3.422.26l3.263 1.04 6.525 2.078h-.04l7.898-4.117.04.1-7.719 4.437-.139.08-.179-.04c-2.209-.58-4.377-1.26-6.585-1.899l-3.243-.94c-1.034-.22-2.129-.26-3.203-.16-1.074.1-2.109.34-3.103.74-.517.2-.935.42-1.433.7-.557.32-1.173.56-1.83.7-1.333.28-2.745-.06-3.859-.72-1.134-.68-2.009-1.52-2.765-2.599l.596.38c-1.949-.28-3.819-.7-5.709-1.2-.935-.259-1.87-.559-2.785-.898-.677-.26-1.393-.18-2.169.14-1.571.639-3.023 1.878-4.336 3.157a38.993 38.993 0 0 0-3.681 4.218l-.616.82-.597-.8-4.257-5.597.517.24-4.795.06h-.139l-.099-.06c-1.89-.94-3.8-1.859-5.77-2.678-1.969-.8-3.958-1.54-6.047-1.939v-.1h.04Z"/><path fill="#fff" d="M26.558 93.211c5.312-3.198 10.424-6.776 15.358-10.534 4.934-3.777 9.668-7.795 14.164-12.092 9.012-8.475 17.228-18.089 22.68-29.302l.357.18c-1.432 6.276-4.357 12.113-7.918 17.45-1.73 2.718-3.76 5.196-5.808 7.654-2.09 2.419-4.337 4.698-6.605 6.936-2.348 2.159-4.735 4.238-7.222 6.216-2.546 1.9-5.053 3.818-7.758 5.477-5.332 3.398-10.942 6.396-17.049 8.375l-.199-.34v-.02ZM220.024 78.66c.776 1.559 1.194 3.178 1.433 4.837.258 1.639.278 3.278.218 4.917-.238 3.258-.895 6.516-2.705 9.494h-.199c.438-3.218.756-6.416.915-9.614.219-3.198.278-6.416.139-9.634h.199ZM199.832 40.763c1.989.28 3.78 1.14 5.411 2.199 1.651 1.04 3.084 2.378 4.377 3.817 1.253 1.48 2.367 3.078 3.203 4.817.855 1.74 1.492 3.578 1.71 5.557l-.179.1c-1.691-3.298-3.779-6.396-6.226-9.154-2.407-2.779-5.173-5.337-8.375-7.156l.079-.18Z"/></g><g><path fill="#0030AE" d="M231.476 4.642c1.81-.25 9.94-1.182 9.94-1.182s-5.685 3.48-7.585 4.061c-1.899.581-4.671 1.596-1.899 2.177 2.631.55 4.344.058 4.511 0-.257.16-4.915 3.033-3.779 4.112 1.167 1.111 3.208 2.414 1.899 3.141-1.315.728-2.483 2.612.584 2.906 3.061.287 6.853 0 6.853 0s-4.96 2.905-9.484 2.464c-4.517-.434-10.793-.58-9.336 1.309 1.463 1.89 4.087 1.015 5.986 1.743 0 0-.442.868 2.477 2.03 0 0-1.168.728-2.624 1.31 0 0 2.772.868 6.128 1.596 0 0-1.316 1.596-3.504 1.308 0 0 .873 2.178 2.041 2.178h3.356s-2.92 1.302-7.001 0c-4.087-1.31-7.88-3.633-13.129-.805-5.255 2.835-16.337 9.22-28.374 0l-.045-1.098c2.008-6.346 3.882-18.325-1.078-26.165l-.052-1.277c3.44-.128 7.226.747 9.273 2.63 2.04 1.89 5.832 1.859 10.356-1.321 4.524-3.18 6.712-5.938 14.733-4.195 8.021 1.743 12.84.147 12.84.147s-1.88 2.503-3.087 2.924v.007Zm-.012 0c-.167.025-.276.038-.321.057h.064a.784.784 0 0 0 .257-.057Z"/><path fill="#0030AE" d="M209.473 17.96c.084.575-.051.875-.866 1.654-.821.785-1.758.85-2.406.153-.655-.696-.443-1.628.411-2.375 1.289-1.124 2.682-.6 2.861.568ZM208.979 22.934c.032.153.071.288.097.377.083.3.154.402.205.434a2.11 2.11 0 0 0 .122.875c-1.033-.198-1.277-2.407-.86-3.946.398-.16.533-.115.372.358-.218.645-.07 1.404.064 1.902Z"/><path fill="#976535" d="M189.845 64.819c.025.6-.443 1.11-1.046 1.13h-.045c-.584 0-1.072-.46-1.097-1.047l-1.316-31.912c1.245.581 2.195 0 2.195 0l1.309 31.822v.007Z"/><path fill="#0030AE" d="m188.491 31.898.045 1.099s-.95.58-2.195 0l-.045-1.099c1.341.492 2.195 0 2.195 0Z"/><path fill="#976535" d="m187.413 5.733 1.078 26.165s-.854.492-2.195 0l-1.078-26.26c1.495.217 2.137 0 2.137 0l.058.095Z"/><path fill="#0030AE" d="M187.413 5.734a4.915 4.915 0 0 1-.058-.096s-.642.217-2.137 0l-.051-1.124c1.508.44 2.188-.057 2.188-.057l.051 1.277h.007Z"/><path fill="#976535" d="m187.22 1.092.141 3.364s-.68.498-2.188.058l-.141-3.333a1.084 1.084 0 0 1 1.046-1.13c.59-.032 1.117.44 1.142 1.04Z"/><path fill="#0030AE" d="M201.927 18.637c-.006.377-.032.748-.07 1.118-.141 1.475-.488 2.95-1.239 4.329l-.192-.013a41.55 41.55 0 0 0-.199-5.363l.847-.294.847.217.006.006ZM199.534 14.493a34.941 34.941 0 0 0-.764-2.905c-.43-1.334-.911-2.669-1.52-3.926l.166-.09c1.271.97 2.131 2.235 2.811 3.557.693 1.321 1.155 2.752 1.431 4.2l.077.422s-.898-1.232-1.2-1.404c-.244-.14-1.001.153-1.001.153v-.007Z"/><path fill="#A56F4A" d="m188.632 33.073.661 16.665.333 8.396.167 4.194.084 2.101c0 .172.025.351.013.53a1.21 1.21 0 0 1-.174.517c-.199.313-.552.511-.917.53v-.096c.333-.031.635-.236.783-.517a.922.922 0 0 0 .115-.44c0-.166-.032-.332-.045-.511l-.18-2.094-.352-4.189-.572-8.383c-.211-2.797-.308-5.593-.462-8.39l-.404-8.14.956-.166-.006-.007Z"/><path fill="#002179" d="m187.682 33.246-.013-.256-.025-.753.949-.128.039.843v.122l-.95.172Z"/><path fill="#A56F4A" d="m187.644 32.237-.251-7.643c-.077-2.796-.211-5.593-.231-8.396l-.115-8.402V5.433l.404-.121.103 2.465.359 8.39.68 15.942-.949.128Z"/><path fill="#002179" d="M187.053 5.433v-.842l.36-.134.038.855-.398.121Z"/><path fill="#A56F4A" d="M187.053 4.59V3.589l.013-2.1c.007-.364.039-.67-.154-.939a1.032 1.032 0 0 0-.828-.453V0a1.146 1.146 0 0 1 1.175.951c.025.185.019.351.032.53l.09 2.1.038.876-.359.14-.007-.006Z"/><path fill="#C48A5B" d="m185.135 4.508-.032-.837-.09-2.1c0-.173-.026-.352-.013-.53.019-.186.077-.358.173-.511.193-.3.546-.498.905-.511v.064a1.05 1.05 0 0 0-.821.51 1.09 1.09 0 0 0-.142.46c0 .173.02.339.026.518l.154 2.094.064.906-.231-.063h.007Z"/><path fill="#515351" d="m185.173 5.568-.038-1.06.231.064.083 1.098-.276-.102Z"/><path fill="#C48A5B" d="m186.232 31.86-.629-15.604-.334-8.39-.089-2.292.269.096.161 2.183.5 8.383c.302 5.319.52 10.637.777 15.956l-.649-.332h-.006Z"/><path fill="#0030AE" d="m186.277 32.965-.045-1.111.648.332.039.81c0 .065 0 .135.006.199l-.648-.236v.006Z"/><path fill="#C48A5B" d="M186.931 33.201c.187 5.523.418 11.052.559 16.581l.192 8.397.039 4.2.019 2.101c0 .358-.032.696.167.977.179.281.5.466.847.473v.063c-.366 0-.725-.185-.924-.478-.231-.3-.206-.69-.218-1.028l-.09-2.094-.18-4.195-.353-8.39-.706-16.773v-.057l.648.236V33.2Z"/><path fill="#002179" d="M237.053 33.827c-1.983.868-4.267.894-6.379.409-2.104-.562-4.049-1.443-6.083-1.967-1.02-.249-2.053-.428-3.099-.402a9.298 9.298 0 0 0-3.086.574c-.995.358-1.913.9-2.856 1.405a74.524 74.524 0 0 1-2.849 1.469c-1.925.938-3.94 1.73-6.044 2.221-2.105.48-4.287.71-6.456.53-4.357-.319-8.47-2.24-11.749-4.973h.141c-.372.191-.77.249-1.161.236a2.771 2.771 0 0 1-1.11-.306l.026-.058c.346.147.718.223 1.084.21.359-.012.738-.108 1.027-.287l.07-.044.071.05c1.732 1.227 3.58 2.287 5.537 3.066 1.964.766 4.017 1.283 6.116 1.436 4.203.358 8.418-.69 12.32-2.356a37.02 37.02 0 0 0 2.874-1.386c.95-.472 1.855-1.06 2.869-1.449 1.001-.39 2.06-.677 3.15-.747 1.085-.07 2.188.02 3.247.275 2.124.472 4.062 1.45 6.077 2.017 1.007.281 2.053.44 3.106.447 1.052 0 2.117-.108 3.125-.44l.025.057.007.013Z"/><path fill="#515351" d="M185.038 4.444c.392.102.777.16 1.168.16.193 0 .385-.02.571-.058.18-.038.373-.109.495-.198l.032-.025h.045c2.098-.141 4.247.07 6.269.76 1.007.338 1.995.81 2.836 1.5.436.37.751.69 1.2.926.423.249.898.427 1.386.536.982.217 2.028.166 3.035-.051a12.112 12.112 0 0 0 2.894-1.092c1.842-.977 3.401-2.375 5.088-3.614.841-.626 1.739-1.2 2.721-1.64a10.24 10.24 0 0 1 3.099-.844c2.137-.255 4.28.077 6.321.543 2.028.409 4.081.722 6.154.798 1.033.045 2.072.045 3.112-.025 1.033-.07 2.079-.173 3.086-.428l.019.057c-2.002.658-4.126.856-6.23.875a31.97 31.97 0 0 1-6.282-.645 26.75 26.75 0 0 0-3.055-.51c-1.02-.115-2.047-.154-3.06-.058a10.435 10.435 0 0 0-2.946.728c-.943.383-1.828.913-2.695 1.481-1.739 1.13-3.369 2.477-5.236 3.448-.924.492-1.899.913-2.926 1.175-1.02.28-2.105.402-3.183.223a5.388 5.388 0 0 1-1.552-.504c-.495-.243-.931-.658-1.29-.951-.796-.607-1.707-1.073-2.67-1.424-1.931-.683-4.004-.99-6.076-.99l.077-.025c-.212.127-.411.166-.623.197a2.494 2.494 0 0 1-.616.013 4.259 4.259 0 0 1-1.174-.274l.019-.064h-.013Z"/><path fill="#0030AE" d="M185.231 5.542a9.043 9.043 0 0 0 1.065-.173c.173-.031.34-.07.494-.12.141-.046.34-.116.379-.167l.199-.274.481.51c1.643 1.743 2.74 3.959 3.465 6.232.327 1.15.584 2.318.751 3.492.141 1.182.212 2.363.231 3.538a42.56 42.56 0 0 1-.218 3.511 41.307 41.307 0 0 1-.61 3.448c-.571 2.26-1.309 4.47-2.413 6.532l-.16.294-.116.044c-.314.122-.506.122-.744.134-.231 0-.449-.019-.661-.063a3.395 3.395 0 0 1-1.123-.498l.064-.18c.347.122.706.199 1.066.205.353 0 .731-.057 1.033-.21l-.052.063a46.078 46.078 0 0 0 1.483-6.57 43.68 43.68 0 0 0 .507-6.704c.012-2.241-.167-4.488-.649-6.678-.481-2.184-1.264-4.317-2.464-6.213l.129.045c-.199.057-.372.07-.558.083a5.218 5.218 0 0 1-.546.006 10.217 10.217 0 0 1-1.084-.102l.025-.192.026.007Z"/><path fill="#EFD0BB" d="M186.084.39c-.359.082-.442.383-.474.695-.032.313-.065.652-.077.99 0 .677.019 1.36.019 2.05h-.032c-.09-.677-.193-1.354-.244-2.037-.026-.345-.064-.696.019-1.054.051-.172.109-.364.25-.51a.552.552 0 0 1 .539-.16v.032-.007ZM185.757 6.2c.186 2.094.295 4.188.417 6.289.097 2.1.18 4.195.244 6.295l.436 12.591h-.032l-.661-12.584a523.77 523.77 0 0 1-.308-6.296c-.064-2.1-.128-4.201-.128-6.302h.032V6.2ZM186.861 33.852c.205 2.529.308 5.064.468 7.599.116 2.534.212 5.069.295 7.604l.533 15.208h-.032l-.757-15.195c-.135-2.535-.25-5.07-.353-7.598-.058-2.535-.167-5.07-.18-7.611h.032l-.006-.007Z"/><path fill="#fff" d="M207.143 18.867c-.015.267.078.528.257.728.18.2.432.32.702.336h.055c.199 0 .394-.058.56-.166a1.005 1.005 0 0 0-.327-1.823 1.028 1.028 0 0 0-1.051.38 1.003 1.003 0 0 0-.199.543l.003.002ZM203.347 18.61a.33.33 0 0 0-.314.183.325.325 0 0 0 .213.457.333.333 0 0 0 .345-.12.327.327 0 0 0 .048-.303.317.317 0 0 0-.168-.186.33.33 0 0 0-.124-.032ZM207.078 13.015a.328.328 0 0 0 .18-.314.325.325 0 0 0-.225-.285.333.333 0 0 0-.352.096.328.328 0 0 0-.045.36.331.331 0 0 0 .442.144ZM208.111 14.8a.5.5 0 0 0 .172-.76.508.508 0 0 0-.537-.175.504.504 0 1 0 .365.935ZM204.635 16.026a.425.425 0 0 0 .466-.003.418.418 0 0 0 .175-.428.416.416 0 0 0-.332-.323.421.421 0 0 0-.49.33.419.419 0 0 0 .065.31c.031.046.07.084.116.114ZM205.254 18.428a.508.508 0 0 0-.532.572.5.5 0 0 0 .376.418.514.514 0 0 0 .534-.184.498.498 0 0 0-.027-.639.511.511 0 0 0-.351-.167ZM204.691 21.813a.418.418 0 0 0-.229.402.412.412 0 0 0 .287.363.423.423 0 0 0 .448-.124.414.414 0 0 0 .057-.457.415.415 0 0 0-.243-.208.428.428 0 0 0-.32.024ZM206.667 17.387a.602.602 0 0 0 .883-.274.583.583 0 0 0-.135-.645.604.604 0 0 0-.92.098.598.598 0 0 0-.086.446.593.593 0 0 0 .258.375ZM212.937 14.76a.512.512 0 0 0 .751-.235.501.501 0 0 0-.117-.548.51.51 0 0 0-.856.268.5.5 0 0 0 .222.515ZM213.981 12.981a.33.33 0 0 0 .501-.34.325.325 0 0 0-.26-.252.332.332 0 0 0-.337.14.336.336 0 0 0-.047.246.318.318 0 0 0 .051.117.313.313 0 0 0 .092.089ZM213.017 17.907a1.027 1.027 0 0 0-.975.568 1.01 1.01 0 0 0-.045.77 1.008 1.008 0 0 0 .519.577c.12.057.251.091.384.099h.059a1.011 1.011 0 0 0 1.008-.981 1.002 1.002 0 0 0-.266-.708 1.02 1.02 0 0 0-.686-.327l.002.002ZM208.446 17.317a1.019 1.019 0 0 0 .91.555 1.028 1.028 0 0 0 .866-.48.998.998 0 0 0 .042-.982 1.021 1.021 0 0 0-1.874.139c-.084.253-.064.53.056.768ZM216.427 16.025a.413.413 0 0 0-.058-.764.422.422 0 0 0-.448.123.412.412 0 0 0 .187.665.42.42 0 0 0 .319-.024ZM213.846 16.346a.592.592 0 0 0 .429 1.1.6.6 0 0 0 .435-.498.594.594 0 0 0-.639-.664.601.601 0 0 0-.225.062ZM210.521 12.83a.419.419 0 0 0 .438-.472.41.41 0 0 0-.31-.345.424.424 0 0 0-.439.152.414.414 0 0 0 .022.527.419.419 0 0 0 .289.137ZM210.516 15.44a.605.605 0 0 0 .573-.335.587.587 0 0 0-.093-.652.597.597 0 0 0-.643-.164.596.596 0 0 0-.401.525.596.596 0 0 0 .564.626ZM207.274 21.492a.598.598 0 0 0 .327-.573.59.59 0 0 0-.409-.52.603.603 0 0 0-.641.176.597.597 0 0 0-.141.315.594.594 0 0 0 .638.664.608.608 0 0 0 .226-.062ZM210.903 16.305a1 1 0 0 0 .102 1.234 1.02 1.02 0 0 0 1.233.204 1.002 1.002 0 0 0 .142-1.681 1.022 1.022 0 0 0-1.477.243ZM212.673 20.521a1.01 1.01 0 0 0-.407-.424 1.03 1.03 0 0 0-1.129.082 1 1 0 0 0-.038 1.56 1.022 1.022 0 0 0 1.123.136 1.002 1.002 0 0 0 .451-1.354ZM214.452 20.45a.603.603 0 0 0-.883.275.584.584 0 0 0 .136.645.595.595 0 0 0 .653.122.589.589 0 0 0 .094-1.041ZM216.401 18.936a.506.506 0 0 0-.579-.527.51.51 0 0 0-.421.373.502.502 0 0 0 .463.629.51.51 0 0 0 .537-.475ZM217.809 18.577a.332.332 0 0 0-.315.184.327.327 0 0 0 .405.45.329.329 0 0 0 .22-.29.324.324 0 0 0-.083-.235.332.332 0 0 0-.227-.109ZM216.483 21.811a.419.419 0 0 0-.64.432.416.416 0 0 0 .332.323.423.423 0 0 0 .429-.18.41.41 0 0 0-.121-.575ZM207.138 24.857a.33.33 0 0 0-.485.15.327.327 0 0 0 .244.442.33.33 0 0 0 .336-.14.322.322 0 0 0-.095-.452ZM214.04 24.823a.328.328 0 0 0-.108.49.336.336 0 0 0 .347.113.327.327 0 0 0 .206-.459.318.318 0 0 0-.192-.164.329.329 0 0 0-.253.02ZM210.215 21.533a.997.997 0 0 0-.101-1.233 1.024 1.024 0 0 0-1.681.276 1.002 1.002 0 0 0 .306 1.2 1.021 1.021 0 0 0 1.476-.243ZM208.182 23.078a.513.513 0 0 0-.751.233.501.501 0 0 0 .376.684.513.513 0 0 0 .521-.22.505.505 0 0 0-.146-.698ZM210.555 25.009a.425.425 0 0 0-.402.233.415.415 0 0 0 .514.574.42.42 0 0 0 .282-.367.402.402 0 0 0-.105-.301.416.416 0 0 0-.289-.14ZM210.559 22.398a.602.602 0 0 0-.574.333.588.588 0 0 0 .387.832.606.606 0 0 0 .629-.216.586.586 0 0 0-.031-.751.599.599 0 0 0-.411-.198ZM213.007 23.038a.5.5 0 0 0-.172.76.507.507 0 0 0 .537.176.497.497 0 0 0 .319-.713.512.512 0 0 0-.684-.223Z"/></g></svg>