<svg xmlns="http://www.w3.org/2000/svg" width="204" height="173" fill="none"><g><path fill="#3A1801" d="M184.905 15.44c15.723 10.281 20.81 29.033 17.534 44.319-3.642 16.846-23.103 23.892-36.823 23.391l19.289-67.71Z"/><path fill="#DD9E00" d="m184.904 15.44-19.288 67.71c-2.351-.058-4.528-.366-6.436-.867 2.717-13.61 18.595-70.578 18.595-70.578a43.699 43.699 0 0 1 7.129 3.735Zm-6.705 11.417c.231-.732 0-1.464-.52-1.637-.521-.154-1.137.289-1.388 1.02-.231.751 0 1.483.54 1.637.52.173 1.137-.289 1.368-1.02Zm-4.104 16.345c.25-.732 0-1.463-.521-1.618-.52-.173-1.137.29-1.368 1.02-.231.732 0 1.464.52 1.618.521.173 1.137-.289 1.369-1.02Zm-4.606 15.825c.232-.732 0-1.463-.539-1.636-.521-.154-1.137.288-1.368 1.04-.232.73 0 1.462.52 1.616.52.174 1.137-.288 1.387-1.02Zm-4.046 15.883c.25-.732 0-1.463-.52-1.617-.521-.174-1.137.288-1.369 1.02-.231.732 0 1.463.521 1.617.52.174 1.137-.289 1.368-1.02Z"/><path fill="#DB7200" d="M177.679 25.22c.52.174.751.905.52 1.637-.231.732-.848 1.194-1.368 1.02-.54-.154-.771-.885-.54-1.636.251-.732.867-1.175 1.388-1.02Z"/><path fill="#B7805A" d="M134.882 73.659c-13.815-4.89-30.888-10.878-43.76-15.267a734.7 734.7 0 0 0-12.601-4.197 169.51 169.51 0 0 0-4.374-1.348L85.034.81l31.678 3.715 30.772 3.62 30.291 3.561s-15.878 56.968-18.595 70.579c0 0-2.37-.847-6.32-2.253-4.393-1.56-10.733-3.812-17.978-6.372Zm35.821-49.517 2.447-8.952L87.172 4.524 78.522 50.19l77.731 26.607 1.695-6.18 5.55-20.253 5.029-18.31 2.177-7.912Z"/><path fill="#DB7200" d="M173.574 41.585c.521.154.771.885.521 1.617-.232.732-.848 1.194-1.368 1.02-.521-.154-.752-.885-.521-1.617.232-.731.848-1.194 1.368-1.02Z"/><path fill="#7A431F" d="m173.15 15.19-2.447 8.952-72.605-11.609C95.4 9.55 91.816 6.777 87.173 4.524L173.15 15.19Z"/><path fill="#7A431F" d="m170.703 24.142-2.177 7.913-66.382-13.727a28.945 28.945 0 0 0-4.046-5.795l72.605 11.61Z"/><path fill="#DB7200" d="M168.95 57.39c.539.174.771.906.539 1.637-.25.732-.867 1.194-1.387 1.02-.52-.153-.752-.885-.52-1.617.231-.75.848-1.193 1.368-1.04Z"/><path fill="#8E502E" d="m168.526 32.055-5.029 18.309c-.212.808-60.081-13.111-60.081-13.111.424-.943.771-1.887 1.021-2.792 1.176-4.158.81-10.203-2.293-16.133l66.382 13.727Z"/><path fill="#DB7200" d="M164.923 73.293c.52.154.77.885.52 1.617-.231.731-.848 1.194-1.368 1.02-.521-.154-.752-.885-.521-1.617.232-.731.848-1.194 1.369-1.02Z"/><path fill="#844628" d="m163.497 50.364-5.55 20.253-69.31-21.062c7.669-1.983 12.486-7.2 14.779-12.302 0 0 59.869 13.92 60.081 13.11Z"/><path fill="#7A431F" d="m157.947 70.617-1.695 6.18-77.731-26.606c3.796.384 7.168.115 10.116-.636l69.31 21.062Z"/><path fill="#B7805A" d="m72.547 54.715 4.991 1.713 12.64 4.313 44.223 15.151 17.477 5.988 5.183 1.77c-3.237.232-6.436.501-9.577.81-23.739 2.31-44.106 6.487-55.32 9.087-5.897 1.366-9.25 2.31-9.25 2.31s-3.18-1.329-8.343-3.446a5439.561 5439.561 0 0 0-23.45-9.665c-2.043-.828-4.124-1.675-6.224-2.541-6.07-2.484-12.332-5.006-18.287-7.412-7.476-2.985-14.49-5.776-20.155-7.952A509.752 509.752 0 0 0 0 62.416s36.938-8.51 72.547-7.701Zm-.115 2.233s-40.137 1.617-62.663 6.584c0 0 7.804 2.85 19.25 7.181 14.876 5.641 35.879 13.785 53.895 21.505 0 0 29.713-7.393 52.18-9.953 2.293-.25 4.509-.443 6.61-.597l-69.272-24.72Z"/><path fill="#DD9E00" d="M157.061 83.65s-1.599 28.937-1.869 53.637c0 0-12.024 2.908-26.187 6.719l-.925-2.945c.559 0 1.002-.616 1.002-1.386 0-.77-.443-1.406-1.002-1.406l-.828-3.003c8.17-2.176 15.608-4.043 18.903-4.621 0 0 .077-9.895.289-20.715.192-10.146.539-21.1 1.04-25.47 3.141-.309 6.34-.578 9.577-.81Zm-4.201 9.954c0-.77-.443-1.386-.982-1.386-.54 0-1.002.616-1.002 1.386 0 .77.443 1.386 1.002 1.386.558 0 .982-.616.982-1.386Zm0 15.575c0-.77-.443-1.386-.982-1.386-.54 0-1.002.616-1.002 1.386 0 .77.443 1.406 1.002 1.406.558 0 .982-.636.982-1.406Zm0 14.728c0-.77-.443-1.405-.982-1.405-.54 0-1.002.635-1.002 1.405s.443 1.386 1.002 1.386c.558 0 .982-.635.982-1.386Zm-9.152 12.052c0-.77-.463-1.405-1.002-1.405-.54 0-1.002.635-1.002 1.405s.443 1.386 1.002 1.386c.558 0 1.002-.616 1.002-1.386ZM152.86 80.031l-.982 1.848-17.477-5.987.481-2.233c7.245 2.56 13.585 4.813 17.978 6.372Z"/><path fill="#DB7200" d="M151.878 92.218c.539 0 .982.616.982 1.386 0 .77-.443 1.386-.982 1.386-.54 0-1.002-.616-1.002-1.386 0-.77.443-1.386 1.002-1.386ZM151.878 107.793c.539 0 .982.616.982 1.386 0 .77-.443 1.406-.982 1.406-.54 0-1.002-.636-1.002-1.406 0-.77.443-1.386 1.002-1.386ZM151.878 122.501c.539 0 .982.636.982 1.406 0 .77-.443 1.386-.982 1.386-.54 0-1.002-.635-1.002-1.386 0-.751.443-1.406 1.002-1.406Z"/><path fill="#FAD833" d="M143.361 2.33c3.468.346 5.568 2.117 4.123 5.814l-30.772-3.62c.751-3.985 1.252-4.774 6.57-4.235 5.338.52 16.63 1.694 20.079 2.04Z"/><path fill="#3A1801" d="M147.484 84.46c-.501 4.37-.848 15.324-1.04 25.47-16.379 4.582-38.827 7.566-52.354 12.572-.944-13.746-1.927-28.936-1.927-28.936 11.215-2.618 31.582-6.796 55.321-9.106Z"/><path fill="#3A1801" d="M146.444 109.93c-.212 10.819-.289 20.715-.289 20.715-3.295.578-10.733 2.445-18.903 4.621-14.606 3.85-31.582 8.644-31.582 8.644-.231-2.022-.906-11.321-1.58-21.409 13.527-5.005 35.975-7.989 52.354-12.571Z"/><path fill="#DB7200" d="M142.706 134.553c.539 0 1.002.636 1.002 1.406 0 .77-.463 1.386-1.002 1.386-.54 0-1.002-.616-1.002-1.386 0-.77.443-1.406 1.002-1.406Z"/><path fill="#7A431F" d="m72.432 56.948 69.272 24.72a186.86 186.86 0 0 0-6.61.596c-.25-.25-.366-.404-.366-.404-2.755-3.716-8.574-2.195-8.574-2.195s-.386-3.388-4.972-3.773c-4.586-.404-4.586 1.79-4.586 1.79h-3.988a7.403 7.403 0 0 0-1.137-1.56c-.289-.654-1.002-1.231-2.004-1.655-2.447-1.52-5.029-1.656-5.029-1.656-2.987-5.467-10.175-3.657-10.175-3.657-3.776-3.562-7.514-4.197-10.405-3.85H83.8c-1.965-.405-3.718.076-4.258 1.308-.636.347-1.002.597-1.002.597-2.466-.924-4.605-.847-6.031-.597-.29-3.003-.174-7.142-.058-9.664h-.02Z"/><path fill="#F4C500" d="M72.49 66.613c1.425-.25 3.564-.328 6.03.597 0 0 .367-.25 1.003-.578-.174.423-.193.905-.077 1.386-.906-.5-2.332-.828-3.912-.828-2.755 0-4.971.963-4.971 2.157 0 1.193 2.216 2.156 4.971 2.156 2.447 0 4.49-.77 4.914-1.772.616.655 1.464 1.252 2.466 1.675 2.524 1.079 5.106.694 5.78-.866.656-1.56-.847-3.696-3.39-4.774a10.462 10.462 0 0 0-1.446-.463c2.89-.346 6.629.29 10.405 3.85 0 0 7.188-1.809 10.175 3.659 0 0 2.582.135 5.029 1.656-1.176-.501-2.717-.828-4.413-.828-3.642 0-6.57 1.424-6.57 3.157s2.928 3.157 6.57 3.157c3.642 0 6.571-1.424 6.571-3.157 0-.231-.058-.462-.154-.674.424.443.809.963 1.137 1.56h3.988c-.809.365-1.31.885-1.31 1.444 0 1.193 2.235 2.156 4.991 2.156 2.755 0 4.971-.963 4.971-2.156 0-1.194-2.216-2.157-4.971-2.157-1.465 0-2.775.27-3.681.713 0 0 0-2.195 4.586-1.79 4.586.384 4.972 3.773 4.972 3.773s5.819-1.521 8.574 2.194c0 0 .116.154.366.405-22.467 2.56-52.18 9.953-52.18 9.953-18.016-7.72-39.02-15.864-53.895-21.505 2.91-.327 5.8.193 5.8.193s-1.734-6.97 6.84-7.374c8.575-.404 9.461 2.6 9.461 2.6s3.488-3.062 6.475-2.638c0 0 8.382-4.409 12.968 3.696 0 0 .713-.366 1.927-.577Zm29.269 5.679c0-1.194-2.235-2.156-4.99-2.156-2.756 0-4.972.962-4.972 2.156 0 1.194 2.216 2.156 4.972 2.156 2.755 0 4.99-.962 4.99-2.156Zm-1.618 10.454c0-1.174-2.216-2.156-4.972-2.156-2.755 0-4.99.982-4.99 2.156 0 1.174 2.235 2.156 4.99 2.156 2.756 0 4.972-.962 4.972-2.156ZM89.697 77.76c.424-1.117-1.31-2.811-3.873-3.793-2.582-1.001-5.01-.886-5.434.212-.29.75.424 1.79 1.696 2.676-1.176-.559-2.775-.886-4.548-.886-3.642 0-6.59 1.425-6.59 3.158 0 1.732 2.948 3.157 6.59 3.157s6.57-1.425 6.57-3.157c0-.597-.365-1.175-.982-1.656.347.192.732.366 1.137.52 2.563.981 4.99.885 5.434-.231ZM67.96 64.84c0-1.193-2.235-2.156-4.99-2.156-2.756 0-4.894.924-4.99 2.08-1.176-.443-3.72.269-6.34 1.848-3.103 1.886-5.068 4.312-4.413 5.39.655 1.078 3.719.443 6.821-1.463 2.525-1.54 4.316-3.427 4.529-4.678.847.674 2.505 1.136 4.393 1.136 2.755 0 4.99-.963 4.99-2.157Zm-1.368 9.607c0-1.347-2.293-2.445-5.106-2.445-2.813 0-5.087 1.098-5.087 2.445 0 1.348 2.274 2.445 5.087 2.445 2.813 0 5.106-1.097 5.106-2.445Zm-16.976-7.354c0-1.232-2.832-2.252-6.32-2.252-3.487 0-6.32 1.02-6.32 2.252 0 1.232 2.833 2.253 6.32 2.253 3.488 0 6.32-1.002 6.32-2.253Z"/><path fill="#DD9E00" d="m128.08 141.061.925 2.945c-16.031 4.313-34.78 9.78-41.832 13.458-.54-7.432-4.259-61.607-4.259-61.607s3.353-.944 9.25-2.31c0 0 .982 15.209 1.926 28.955.674 10.088 1.349 19.387 1.58 21.408 0 0 16.976-4.794 31.582-8.644l.828 3.003c-.539 0-.982.636-.982 1.406 0 .77.443 1.386.982 1.386Zm-15.068 2.849c0-.77-.443-1.386-1.002-1.386-.559 0-1.002.616-1.002 1.386 0 .77.463 1.405 1.002 1.405.54 0 1.002-.616 1.002-1.405Zm-19.847 5.853c0-.77-.443-1.386-1.002-1.386-.559 0-.983.616-.983 1.386 0 .77.444 1.386.983 1.386.54 0 1.002-.616 1.002-1.386Zm-1.985-13.804c0-.77-.443-1.405-1.002-1.405-.558 0-1.001.635-1.001 1.405s.462 1.386 1.001 1.386c.54 0 1.002-.616 1.002-1.386Zm-1.002-14.844c0-.77-.443-1.405-1.001-1.405-.56 0-.983.635-.983 1.405 0 .771.443 1.387.983 1.387s1.001-.616 1.001-1.387Zm-1.001-15.96c0-.77-.444-1.386-.983-1.386-.54 0-1.002.616-1.002 1.386 0 .771.443 1.387 1.002 1.387.559 0 .983-.616.983-1.387Z"/><path fill="#DB7200" d="M128.08 138.269c.559 0 1.002.635 1.002 1.405 0 .771-.443 1.387-1.002 1.387-.558 0-.982-.616-.982-1.387 0-.77.443-1.405.982-1.405Z"/><path fill="#FAD833" d="M120.277 76.97c2.755 0 4.971.963 4.971 2.156 0 1.194-2.216 2.157-4.971 2.157-2.756 0-4.991-.963-4.991-2.157 0-.558.501-1.078 1.31-1.444.906-.442 2.216-.712 3.681-.712Z"/><path fill="#DB7200" d="M112.01 142.524c.559 0 1.002.616 1.002 1.386 0 .77-.443 1.405-1.002 1.405-.559 0-1.002-.616-1.002-1.405s.463-1.386 1.002-1.386Z"/><path fill="#FAD833" d="M111.471 76.123c.096.212.154.443.154.674 0 1.733-2.948 3.157-6.571 3.157-3.622 0-6.57-1.424-6.57-3.157s2.928-3.157 6.57-3.157c1.696 0 3.237.327 4.413.828a8.418 8.418 0 0 1 2.004 1.655ZM98.483 164.105c4.837 0 8.748 1.598 8.748 3.581 0 1.983-3.911 3.581-8.748 3.581-4.836 0-8.728-1.598-8.728-3.581 0-1.983 3.911-3.581 8.728-3.581Z"/><path fill="#602B0D" d="M102.144 18.328c3.103 5.93 3.469 11.975 2.294 16.134a19.758 19.758 0 0 1-1.022 2.791c-2.293 5.102-7.11 10.32-14.779 12.302-2.948.751-6.32 1.02-10.116.636l8.652-45.667c4.643 2.253 8.227 5.025 10.925 8.01a28.945 28.945 0 0 1 4.046 5.794Z"/><path fill="#FAD833" d="M96.768 70.136c2.756 0 4.991.962 4.991 2.156 0 1.194-2.235 2.156-4.99 2.156-2.756 0-4.972-.962-4.972-2.156 0-1.194 2.216-2.156 4.971-2.156ZM95.17 80.59c2.755 0 4.97.981 4.97 2.156 0 1.174-2.215 2.156-4.97 2.156-2.756 0-4.992-.963-4.992-2.156 0-1.194 2.236-2.157 4.991-2.157Z"/><path fill="#DB7200" d="M92.163 148.376c.559 0 1.002.617 1.002 1.387s-.443 1.386-1.002 1.386c-.559 0-.983-.616-.983-1.386 0-.77.444-1.387.983-1.387Z"/><path fill="#DD9E00" d="m91.123 58.392-.945 2.348-12.64-4.312.983-2.214c3.295 1.04 7.65 2.483 12.602 4.178Z"/><path fill="#DB7200" d="M90.178 134.553c.56 0 1.002.636 1.002 1.406 0 .77-.443 1.386-1.002 1.386-.558 0-1.001-.616-1.001-1.386 0-.77.462-1.406 1.001-1.406Z"/><path fill="#FAD833" d="M85.824 73.967c2.563.982 4.297 2.676 3.873 3.793-.443 1.116-2.871 1.213-5.434.23a8.822 8.822 0 0 1-1.137-.519 4.499 4.499 0 0 0-1.04-.616c-1.272-.886-1.985-1.925-1.696-2.676.424-1.097 2.852-1.213 5.434-.212Z"/><path fill="#DB7200" d="M89.177 119.71c.558 0 1.001.635 1.001 1.405s-.443 1.387-1.001 1.387c-.56 0-.983-.617-.983-1.387s.443-1.405.983-1.405Z"/><path fill="#FAD833" d="M85.303 65.765c2.544 1.078 4.047 3.215 3.392 4.775-.675 1.56-3.257 1.944-5.78.866-1.003-.423-1.85-1.02-2.467-1.675a.917.917 0 0 0 .077-.385c0-.5-.405-.982-1.08-1.328-.115-.481-.096-.963.078-1.386a12.757 12.757 0 0 1 4.258-1.329h.058c.482.116.963.27 1.445.462h.02Z"/><path fill="#DB7200" d="M88.194 103.769c.54 0 .983.616.983 1.386 0 .77-.444 1.386-.983 1.386-.54 0-1.002-.616-1.002-1.386 0-.77.443-1.386 1.002-1.386Z"/><path fill="#FAD833" d="M82.914 95.857s3.719 54.175 4.259 61.607c0 0-58.212-29.745-78.406-39.044 0 0-.404-3.022-1.079-7.912l2.1-.27c.097.616.482 1.078.945 1.098.54 0 1.002-.597 1.021-1.367v-.366l1.792-.212c.347 2.965.559 4.794.559 4.794 9.307 2.406 64.435 29.725 64.435 29.725l-1.638-21.408-1.56-20.234-.752-9.857c5.164 2.117 8.343 3.446 8.343 3.446h-.019Zm.154 53.405c0-.77-.424-1.405-.963-1.424-.559 0-1.021.596-1.04 1.367-.02.77.404 1.405.963 1.424.54 0 1.002-.597 1.04-1.367Zm-.558-15.305c0-.77-.444-1.386-.983-1.386-.54 0-1.002.616-1.002 1.386 0 .77.443 1.405 1.002 1.405.559 0 .983-.635.983-1.405Zm-.983-15.633c0-.77-.463-1.386-1.002-1.386-.54 0-1.002.616-1.002 1.386 0 .77.443 1.386 1.002 1.386.559 0 1.002-.616 1.002-1.386Zm-1.002-13.939c0-.77-.443-1.405-1.002-1.405-.559 0-1.002.635-1.002 1.405 0 .771.462 1.387 1.002 1.387s1.002-.616 1.002-1.387Zm-13.932 37.446c.02-.77-.424-1.405-.963-1.425-.559 0-1.021.597-1.04 1.367-.02.77.404 1.406.963 1.425.54 0 1.002-.597 1.04-1.367Zm-15.974-7.836c0-.77-.404-1.405-.963-1.424-.54-.02-1.021.596-1.04 1.367-.02.77.404 1.405.963 1.424.559 0 1.021-.597 1.04-1.367Zm-14.817-7.835c.038-.77-.405-1.406-.944-1.425-.56 0-1.022.597-1.041 1.367 0 .77.405 1.405.963 1.425.54 0 1.002-.597 1.022-1.367Zm-16.34-7.027c.038-.79-.405-1.425-.945-1.425-.558 0-1.02.597-1.04 1.367-.02.77.404 1.405.963 1.405.54 0 1.002-.597 1.022-1.347ZM83.126 77.47c.617.482.983 1.06.983 1.657 0 1.732-2.948 3.157-6.57 3.157-3.624 0-6.59-1.425-6.59-3.157 0-1.733 2.947-3.158 6.59-3.158 1.772 0 3.371.328 4.547.886.308.23.655.423 1.04.616ZM79.542 66.612c.54-1.232 2.293-1.713 4.258-1.309-1.85.231-3.333.847-4.258 1.31Z"/><path fill="#fff" d="M82.105 147.837c.54 0 .983.655.963 1.425-.038.77-.5 1.386-1.04 1.367-.56 0-.983-.655-.964-1.425 0-.77.482-1.386 1.04-1.367ZM81.527 132.57c.54 0 .983.616.983 1.386 0 .771-.444 1.406-.983 1.406-.54 0-1.002-.635-1.002-1.406 0-.77.443-1.386 1.002-1.386ZM80.525 116.938c.54 0 1.002.616 1.002 1.386 0 .77-.463 1.386-1.002 1.386-.54 0-1.002-.616-1.002-1.386 0-.77.443-1.386 1.002-1.386Z"/><path fill="#FAD833" d="M80.525 69.347c0 .134 0 .25-.077.385-.501-.559-.848-1.136-1.002-1.714.674.347 1.079.828 1.079 1.329Z"/><path fill="#fff" d="M79.523 102.98c.559 0 1.002.635 1.002 1.405s-.443 1.387-1.002 1.387c-.559 0-1.002-.617-1.002-1.387s.462-1.405 1.002-1.405Z"/><path fill="#FAD833" d="M79.446 68.018c.154.577.5 1.155 1.002 1.713-.424 1.001-2.467 1.771-4.914 1.771-2.755 0-4.971-.962-4.971-2.156 0-1.194 2.216-2.156 4.971-2.156 1.58 0 3.006.327 3.912.828Z"/><path fill="#7A431F" d="m76.883 122.501 1.638 21.409s-55.129-27.319-64.435-29.725c0 0-.212-1.829-.56-4.794-.404-3.369-1.001-8.221-1.695-13.535 4.933 1.406 12.082 4.409 20.136 7.971 14.702 6.526 32.391 14.882 44.916 18.674Z"/><path fill="#7A431F" d="m75.322 102.267 1.56 20.235c-12.524-3.793-30.213-12.149-44.915-18.675l1.291-2.965a17.3 17.3 0 0 0 2.081.847c11.754 4.101 14.394-1.367 15.261-10.396h.02c10.038 4.428 19.384 8.548 24.702 10.954Z"/><path fill="#7A431F" d="m74.57 92.41.752 9.857c-5.318-2.406-14.664-6.526-24.703-10.954H50.6c.27-2.6.386-5.506.52-8.567 9.211 3.773 17.612 7.238 23.45 9.664Z"/><path fill="#602B0D" d="M72.432 56.948c-.116 2.522-.231 6.661.058 9.664-1.214.212-1.927.578-1.927.578-4.586-8.105-12.968-3.697-12.968-3.697-2.987-.423-6.475 2.638-6.475 2.638s-.886-3.003-9.46-2.599c-8.575.404-6.841 7.374-6.841 7.374s-2.89-.52-5.8-.193a1939.74 1939.74 0 0 0-19.25-7.181c22.526-4.967 62.663-6.584 62.663-6.584Z"/><path fill="#FAD833" d="M62.97 62.685c2.756 0 4.992.963 4.992 2.156 0 1.194-2.236 2.157-4.991 2.157-1.888 0-3.546-.463-4.393-1.136.057-.27 0-.52-.097-.713a.934.934 0 0 0-.5-.385c.096-1.155 2.292-2.079 4.99-2.079Z"/><path fill="#fff" d="M65.63 140.406c.54.019.983.655.963 1.425-.038.77-.5 1.367-1.04 1.367-.559 0-.983-.655-.964-1.425 0-.77.482-1.386 1.04-1.367Z"/><path fill="#FAD833" d="M61.487 72.003c2.813 0 5.106 1.097 5.106 2.445 0 1.348-2.293 2.445-5.106 2.445-2.813 0-5.087-1.097-5.087-2.445 0-1.348 2.274-2.445 5.087-2.445ZM57.98 64.841c0 .366.212.732.598 1.02-.213 1.252-2.005 3.139-4.529 4.679-3.102 1.906-6.166 2.541-6.82 1.463-.656-1.078 1.31-3.504 4.412-5.39 2.62-1.58 5.164-2.292 6.34-1.849v.077Z"/><path fill="#DD9E00" d="M44.897 80.205c2.1.866 4.18 1.713 6.223 2.54-.134 3.062-.25 5.969-.52 8.568-.867 9.029-3.507 14.497-15.26 10.396 11.695 3.966 9.036-14.092 9.557-21.485v-.02Z"/><path fill="#fff" d="M49.656 132.57c.559 0 .983.655.963 1.425-.019.77-.481 1.367-1.04 1.367s-.983-.655-.964-1.425c0-.77.501-1.386 1.041-1.367Z"/><path fill="#FAD833" d="M43.297 64.841c3.488 0 6.32 1.02 6.32 2.253 0 1.232-2.832 2.252-6.32 2.252-3.487 0-6.32-1-6.32-2.252 0-1.252 2.833-2.253 6.32-2.253ZM44.897 80.204c-.52 7.412 2.138 25.471-9.558 21.505a17.3 17.3 0 0 1-2.08-.847c-6.59-3.273-6.726-9.53-6.649-20.08.02-2.426.039-5.083 0-7.97 5.955 2.387 12.217 4.909 18.287 7.392Zm-9.018 8.125c.713-.5 1.194-1.483 1.194-2.6 0-1.655-1.02-2.983-2.254-2.983-1.233 0-2.274 1.328-2.274 2.984 0 .982.386 1.848.944 2.387v7.49l2.39 1.193v-8.471Z"/><path fill="#000" d="M37.073 85.73c0 1.116-.481 2.098-1.194 2.599v8.47l-2.39-1.193v-7.489c-.558-.54-.944-1.405-.944-2.387 0-1.656 1.021-2.984 2.274-2.984 1.252 0 2.254 1.328 2.254 2.984Z"/><path fill="#fff" d="M34.857 124.735c.54 0 .983.654.945 1.424 0 .771-.482 1.387-1.022 1.367-.558 0-.982-.654-.963-1.424 0-.77.482-1.386 1.04-1.367Z"/><path fill="#7A431F" d="m33.258 100.862-1.29 2.965c-8.055-3.562-15.204-6.565-20.137-7.97C10.81 88.04 9.538 79.26 8.343 72.81c0 0 7.804 3.408 18.267 7.97-.077 10.551.058 16.808 6.648 20.081Z"/><path fill="#FAD833" d="M24.24 151.149c2.64 0 4.779.77 4.779 1.694 0 .924-2.139 1.694-4.779 1.694s-4.778-.751-4.778-1.694 2.139-1.694 4.778-1.694Z"/><path fill="#7A431F" d="M26.61 72.812c.039 2.888.02 5.544 0 7.97-10.463-4.563-18.267-7.97-18.267-7.97-.655-3.523-1.31-6.373-1.888-7.97 5.665 2.175 12.679 4.966 20.155 7.95v.02Z"/><path fill="#FAD833" d="M16.051 141.061c3.468 0 6.262.962 6.262 2.137 0 1.174-2.794 2.117-6.262 2.117-3.468 0-6.282-.943-6.282-2.117 0-1.175 2.814-2.137 6.282-2.137Z"/><path fill="#fff" d="M18.517 117.708c.54 0 .983.635.945 1.425 0 .75-.482 1.367-1.022 1.347-.559 0-.982-.635-.963-1.405 0-.77.482-1.386 1.04-1.367Z"/><path fill="#FAD833" d="m13.527 109.391-1.792.212c-.097-.597-.463-1.04-.925-1.059-.559 0-1.021.597-1.04 1.367v.327l-2.101.269C6.128 99.437 3.122 78.818-.019 62.415c1.85.674 4.027 1.502 6.455 2.426.578 1.598 1.233 4.448 1.888 7.97 1.195 6.45 2.467 15.23 3.488 23.046.694 5.313 1.29 10.165 1.696 13.534h.019ZM9.345 95.895c.02-.77-.404-1.405-.963-1.425-.559 0-1.021.597-1.04 1.367 0 .77.404 1.406.963 1.425.54 0 1.021-.597 1.04-1.367ZM7.457 82.303c0-.77-.405-1.405-.963-1.425-.54 0-1.002.597-1.022 1.367 0 .77.405 1.406.945 1.425.558.02 1.02-.597 1.04-1.367ZM4.856 68.615c0-.77-.405-1.406-.964-1.425-.54 0-1.021.597-1.04 1.367-.02.77.404 1.405.963 1.425.559 0 1.021-.597 1.04-1.367Z"/><path fill="#fff" d="M11.735 109.603v.366c0 .77-.482 1.366-1.021 1.366-.463 0-.848-.481-.945-1.097v-.327c0-.77.482-1.386 1.04-1.367.463 0 .83.462.926 1.059ZM8.382 94.47c.559.02.983.655.963 1.425 0 .77-.5 1.367-1.04 1.367-.559-.02-.983-.655-.964-1.425.02-.77.482-1.386 1.041-1.367ZM6.494 80.878c.558.02.982.655.963 1.425 0 .77-.482 1.386-1.04 1.367-.54 0-.964-.655-.945-1.425 0-.77.482-1.386 1.022-1.367ZM3.892 67.19c.56.02.983.654.964 1.425-.02.77-.482 1.367-1.04 1.367-.56-.02-.983-.655-.964-1.425 0-.77.5-1.386 1.04-1.367Z"/><path fill="#602B0D" d="M50.697 91.275c2.196.596 4.316 1.366 6.435 2.137 2.12.789 4.162 1.713 6.263 2.56 2.023.982 4.104 1.868 6.108 2.907 2.004 1.04 4.008 2.099 5.915 3.331l-.038.096-24.703-10.954.039-.097-.02.02Z"/><path fill="#986042" d="m50.697 91.255 12.39 5.391 12.312 5.564-.058.135c-4.508-.963-8.71-2.58-12.833-4.37-4.104-1.849-8.131-3.87-11.87-6.566l.059-.134v-.02Z"/><path fill="#602B0D" d="M8.42 72.773c1.658.347 3.238.867 4.818 1.425 1.58.54 3.102 1.213 4.643 1.83 1.503.73 3.026 1.385 4.49 2.174 1.465.79 2.93 1.599 4.316 2.58l-.038.097a1279.145 1279.145 0 0 1-18.267-7.99l.039-.096v-.02Z"/><path fill="#986042" d="m8.44 72.754 9.153 3.927 9.094 4.063-.057.134c-3.43-.442-6.571-1.578-9.616-2.868-3.025-1.367-5.992-2.888-8.632-5.121l.058-.135Z"/><path fill="#602B0D" d="M76.921 122.559c-5.607-1.713-11.08-3.87-16.494-6.103-5.414-2.252-10.771-4.62-16.128-7.008l-16.05-7.181c-5.377-2.31-10.772-4.678-16.38-6.353v-.096c5.743 1.386 11.234 3.561 16.668 5.756 5.434 2.214 10.772 4.659 16.148 6.989 5.318 2.445 10.675 4.813 16.031 7.2a327.253 327.253 0 0 0 8.055 3.466c2.697 1.155 5.395 2.252 8.17 3.234l-.039.096h.02Z"/><path fill="#986042" d="M76.921 122.578c-2.89-.596-5.703-1.463-8.536-2.31-2.794-.924-5.568-1.925-8.324-2.945-5.51-2.08-10.867-4.467-16.263-6.777l-15.935-7.412a297.33 297.33 0 0 0-7.958-3.697c-2.64-1.27-5.318-2.406-8.055-3.484l.039-.135c5.627 1.675 11.022 4.004 16.417 6.315l16.07 7.123c5.338 2.406 10.695 4.794 16.11 7.065 5.414 2.253 10.848 4.428 16.455 6.161l-.039.135.02-.039Z"/><path fill="#DFB89E" d="M.058 62.358c11.908-2.6 23.951-4.505 36.071-5.872 12.101-1.348 24.298-2.118 36.495-1.868h.02l84.494 28.994-.039.096-21.272-6.834-21.177-7.085-21.177-7.085c-7.052-2.368-14.124-4.697-21.138-7.2l.251.038c-12.14-.346-24.298.328-36.399 1.598-6.05.616-12.082 1.444-18.113 2.31-6.03.867-12.043 1.83-18.016 3.023v-.116Z"/><path fill="#CC8D00" d="M83.068 95.856c.54 2.542.887 5.102 1.33 7.644l.983 7.662c.616 5.121.963 10.242 1.445 15.382.212 5.141.597 10.281.674 15.421l.077 7.74c-.096 2.58-.077 5.159-.25 7.758h-.193l-2.235-30.784-2.023-30.803h.192v-.02Z"/><path fill="#FFEF5A" d="m82.991 95.856 4.259 61.607h-.058l-.732-7.681-.598-7.701-1.194-15.383-.925-15.401-.463-7.72-.327-7.701.038-.02Z"/><path fill="#000" d="m95.323 144.545-.057-.558c-.54-4.736-3.469-49.92-3.508-50.383l.964-.058c.038.443 2.794 42.817 3.43 49.767 4.875-1.367 40.407-11.339 49.579-13.053.038-4.043.347-37.387 1.329-45.84l.964.116c-1.041 8.914-1.33 45.763-1.33 46.129v.404l-.404.077c-9.038 1.579-50.022 13.149-50.446 13.265l-.54.154.02-.02Z"/><path fill="#673518" d="M78.502 144.102a2439.157 2439.157 0 0 0-31.987-15.382 1006.713 1006.713 0 0 0-16.109-7.431l-8.112-3.562c-2.717-1.136-5.453-2.349-8.228-3.157l-.23-.077v-.231c-.945-8.279-1.947-16.538-3.065-24.797a455 455 0 0 0-1.83-12.36c-.713-4.082-1.33-8.24-2.582-12.168l.366-.134c1.869 3.85 2.813 7.97 3.97 12.013 1.136 4.062 1.926 8.163 2.813 12.264.751 4.12 1.599 8.22 2.216 12.34.616 4.14 1.329 8.24 1.81 12.399l-2.504-2.869c1.792.481 3.14 1.001 4.605 1.54a135.25 135.25 0 0 1 4.2 1.695c2.775 1.135 5.454 2.425 8.17 3.677 5.415 2.464 10.695 5.179 15.975 7.874 5.24 2.772 10.463 5.602 15.588 8.586 2.582 1.444 5.087 3.081 7.63 4.621 2.544 1.54 5.068 3.119 7.535 4.813l-.174.346h-.057Z"/><path fill="#DD9E00" d="m78.56 143.968-16.129-7.412-16.07-7.547c-5.376-2.484-10.752-4.948-16.147-7.335l-8.112-3.543c-2.698-1.155-5.434-2.387-8.151-3.196l-.52-.154-.058-.5c-.867-8.279-1.83-16.557-2.89-24.797l-1.696-12.36c-.617-4.1-1.137-8.259-2.293-12.244l.096-.039c1.291 3.986 1.908 8.106 2.64 12.206.694 4.1 1.29 8.22 1.888 12.36a979.08 979.08 0 0 1 3.141 24.797l-.058-.077c2.852.828 5.569 2.021 8.305 3.157a335.727 335.727 0 0 1 8.112 3.6c5.396 2.445 10.752 4.967 16.09 7.509a2208.631 2208.631 0 0 1 31.928 15.517l-.038.077-.039-.019Z"/><path fill="#FFEF5A" d="m74.686 92.41.887 6.412.713 6.43c.462 4.274.79 8.567 1.175 12.86.27 4.294.597 8.587.81 12.899l.27 6.45.095 6.468h-.096l-3.95-51.5h.096v-.018ZM26.687 72.811c.097 2.542.155 5.083.193 7.624 0 2.542 0 5.083.154 7.605.174 2.503.463 5.063 1.426 7.335.944 2.291 2.813 4.062 5.049 5.102 2.177 1.04 4.778 2.002 6.975 1.001 2.177-1.04 3.064-3.696 3.545-6.084.906-4.967.482-10.088.887-15.17h.058c-.25 5.063.27 10.184-.617 15.228-.231 1.252-.559 2.503-1.118 3.639-.558 1.136-1.387 2.194-2.562 2.753-1.176.558-2.525.577-3.758.327-1.252-.25-2.447-.712-3.603-1.271-2.312-1.078-4.259-2.984-5.203-5.37-.982-2.369-1.252-4.949-1.387-7.47-.212-5.083 0-10.166-.077-15.249h.058-.02Z"/><path fill="#63331E" d="M51.37 82.765c1.234 2.715 1.85 5.39 2.101 8.163.25 2.791.097 5.699-1.117 8.875-.713 1.521-1.754 3.215-3.45 4.428-1.695 1.155-3.718 1.694-5.453 1.54-3.449-.211-6.03-1.771-8.112-3.889l.135-.365c2.486.828 5.106 1.501 7.688 1.232 1.272-.135 2.505-.578 3.488-1.367.983-.789 1.676-1.906 2.139-3.08 1.002-2.368 1.368-5.025 1.638-7.644.25-2.637.385-5.275.54-7.931h.385l.019.038Z"/><path fill="#E2A80E" d="M51.275 82.765c-.116 2.657-.193 5.294-.405 7.951-.231 2.638-.54 5.314-1.542 7.816-.52 1.233-1.29 2.407-2.37 3.254-1.079.847-2.427 1.29-3.757 1.405-2.698.212-5.338-.519-7.823-1.405l.058-.173c1.368.096 2.659.308 3.969.289 1.272.077 2.524.057 3.661-.193 2.274-.481 3.642-1.771 4.49-3.927.905-2.099 1.31-4.66 1.811-7.22.443-2.56.963-5.198 1.715-7.816h.193v.019Z"/><path fill="#4C1F09" d="M72.702 54.715c-.097 2.079-.135 4.158-.135 6.237-.039 2.08-.058 4.159.135 6.219h-.193c-.79-.944-1.214-2.003-1.484-3.061-.289-1.06-.366-2.118-.385-3.177.038-1.059.135-2.118.443-3.157.289-1.04.694-2.08 1.426-3.08h.193v.019Z"/><path fill="#935838" d="M72.663 54.715c.27 1.059.385 2.098.482 3.138.096 1.04.058 2.08.115 3.1-.077 1.04-.057 2.06-.173 3.1-.096 1.039-.193 2.06-.424 3.137h-.096c-.463-4.139-.27-8.317 0-12.475h.096Z"/><path fill="#FFEF5A" d="M35.917 96.8v-8.471l-.019-.02c.963-.712 1.31-2.002 1.137-3.157-.096-.577-.308-1.136-.674-1.598-.367-.462-.906-.79-1.503-.79v-.057c.616-.077 1.233.231 1.676.674.462.462.713 1.078.848 1.694.27 1.251-.116 2.695-1.233 3.562l.173-.347c.02 1.406-.039 2.83-.058 4.236a62.607 62.607 0 0 1-.328 4.235h-.057l.038.039Z"/><path fill="#DD9E00" d="M34.877 82.803c-1.156.02-1.946 1.136-2.12 2.195-.192 1.078.058 2.291.848 3.061h.02v7.547l-.059-.058 2.39 1.213-.039.077a14.6 14.6 0 0 1-1.31-.365c-.424-.135-.867-.25-1.291-.424l-.231-.096-.039-.366c-.135-1.252-.27-2.503-.289-3.735-.058-1.252-.096-2.503 0-3.735l.25.578a3.774 3.774 0 0 1-.982-1.849c-.096-.308-.096-.75-.058-.981 0-.366.077-.674.174-.982.192-.616.481-1.233 1.002-1.637.481-.423 1.175-.674 1.753-.52v.097l-.02-.02Z"/><path fill="#FFEF5A" d="M29.077 70.675a22.501 22.501 0 0 1 5.8.192l-.058.058c-.366-1.79-.058-3.812 1.175-5.217 1.253-1.425 3.16-1.983 4.972-2.157 1.83-.134 3.68-.134 5.51.116.906.135 1.812.346 2.66.693.828.366 1.695.847 2.12 1.752l-.116-.039c.925-.77 1.927-1.444 3.025-1.944 1.079-.5 2.293-.866 3.507-.693h-.039c2.274-1.059 4.895-1.54 7.361-.944a8.143 8.143 0 0 1 3.334 1.733c.963.828 1.734 1.83 2.37 2.927l-.116-.039c2.563-1.078 5.492-.943 8.054 0h-.077c2.428-1.56 5.396-2.272 8.267-1.887 2.89.366 5.51 1.887 7.572 3.87h-.077c1.908-.424 3.912-.424 5.781.115 1.888.54 3.545 1.83 4.47 3.562l-.057-.038c3.275.308 6.59 1.963 8.227 4.909l-.057-.039h3.988l-.058.077c.135-1.135 1.33-1.655 2.274-1.81 1.021-.153 2.043-.115 3.045.04 1.002.153 2.004.52 2.794 1.174.79.654 1.387 1.56 1.56 2.58l-.077-.04c1.619-.365 3.315-.423 4.933-.076.81.192 1.6.5 2.293.963.713.442 1.214 1.135 1.773 1.732l-.077.077c-.578-.616-1.06-1.251-1.792-1.675-.694-.443-1.465-.712-2.255-.866-1.58-.308-3.256-.193-4.798.192l-.308.078-.077-.347c-.173-.866-.751-1.733-1.484-2.272-.732-.558-1.657-.866-2.601-1-.944-.136-1.965-.174-2.871 0-.906.115-1.773.692-1.792 1.25v.501h-.52l-3.989.038h-.308l-.154-.288c-.771-1.348-1.927-2.426-3.295-3.177-.675-.385-1.407-.674-2.158-.905-.733-.212-1.542-.385-2.274-.423h-.366l-.174-.328a6.672 6.672 0 0 0-4.066-3.176 9.667 9.667 0 0 0-2.678-.366c-.906 0-1.85.096-2.698.289l-.404.096-.29-.27c-2.003-1.867-4.47-3.253-7.129-3.561a10.647 10.647 0 0 0-3.97.25c-1.27.328-2.6.828-3.64 1.502l-.386.25-.386-.154a11.216 11.216 0 0 0-3.7-.75c-.635 0-1.271.038-1.888.134-.597.096-1.271.27-1.753.5l-.675.29-.327-.597c-1.137-2.06-2.89-3.774-5.145-4.313-1.117-.289-2.293-.327-3.468-.173-1.157.154-2.351.5-3.372.982l-.193.096h-.193c-1.002-.173-2.1.115-3.121.578-1.022.462-2.024 1.116-2.89 1.81l-.598.5-.308-.751c-.193-.462-1.002-1.078-1.735-1.367-.79-.347-1.637-.54-2.524-.693-1.753-.27-3.584-.289-5.357-.173-1.734.154-3.526.616-4.72 1.906-1.176 1.251-1.542 3.176-1.234 4.909l.058.289-.289-.058a23.094 23.094 0 0 0-5.761-.347v-.096.039Z"/><path fill="#281000" d="M94.129 122.424c1.984-1.116 4.104-1.963 6.185-2.83 2.139-.77 4.278-1.482 6.436-2.156 4.335-1.309 8.748-2.233 13.122-3.273 4.432-.77 8.825-1.694 13.257-2.387l6.648-1.04c2.235-.25 4.451-.654 6.705-.905l.058.193c-8.652 2.426-17.477 4.158-26.263 6.026-4.394.905-8.787 1.81-13.161 2.849-4.355 1.04-8.71 2.176-12.93 3.716l-.057-.173v-.02Z"/><path fill="#491E08" d="M94.129 122.424c4.22-1.559 8.555-2.733 12.929-3.812 4.355-1.058 8.748-2.002 13.142-2.945 8.786-1.81 17.631-3.465 26.282-5.834l.058.193c-2.062.963-4.22 1.675-6.339 2.464-2.158.693-4.317 1.309-6.494 1.945-4.335 1.213-8.748 2.079-13.122 3.119l-13.18 2.502c-2.197.366-4.393.79-6.59 1.252-2.216.346-4.393.866-6.629 1.29l-.057-.174Z"/><path fill="#4C1F09" d="M141.742 81.745c-5.896-1.694-11.735-3.562-17.592-5.39l-17.477-5.719c-5.819-1.944-11.58-4.004-17.38-5.987-5.782-2.022-11.6-3.966-17.343-6.122l.636.096c-5.222.173-10.463.443-15.704.75l-15.704 1.002c-5.241.346-10.463.828-15.685 1.328-5.222.462-10.425 1.117-15.627 1.906l-.039-.192c10.29-2.214 20.753-3.427 31.216-4.467a636.436 636.436 0 0 1 31.466-2.214h.077l69.252 24.797-.057.173-.039.039Z"/><path fill="#4C1F09" d="M28.595 70.81A2215.452 2215.452 0 0 0 9.77 63.724l.135-.366c3.218.75 6.398 1.598 9.558 2.503 3.16.904 6.34 1.732 9.48 2.714a522.62 522.62 0 0 1 5.877 1.83l-6.205.384-.019.02Z"/><path fill="#DD9E00" d="M34.8 70.424c4.297 1.386 8.574 2.83 12.852 4.274 6.166 2.234 12.37 4.409 18.46 6.854l9.152 3.658 9.057 3.889-2.158-.173c4.913-1.194 9.788-2.176 14.721-3.1 4.914-.963 9.866-1.733 14.837-2.445 4.972-.674 9.962-1.27 14.972-1.598 5.01-.289 10.039-.597 15.068-.327l.039.385c-9.924.77-19.77 2.445-29.539 4.312a578.834 578.834 0 0 0-29.173 6.411l-.116.039-.116-.039c-12.062-5.082-24.182-10.05-36.38-14.824-5.934-2.33-11.908-4.64-17.862-6.911l6.205-.385-.02-.02Z"/><path fill="#DFB89E" d="M141.761 81.687c-4.971.404-9.904 1.097-14.817 1.887-4.914.79-9.828 1.636-14.703 2.599a606.198 606.198 0 0 0-29.173 6.43l-.135.038-.115-.057c-12.082-5.044-24.163-10.07-36.36-14.844l-18.306-7.104-18.325-7.065v-.039a1872.467 1872.467 0 0 1 36.765 13.9c12.197 4.756 24.356 9.607 36.4 14.767h-.02a584.182 584.182 0 0 1 29.212-6.315c9.788-1.829 19.635-3.465 29.577-4.216v.057-.038Z"/><path fill="#AF6800" d="m177.929 11.724-4.162 17.79-4.355 17.73c-1.426 5.911-2.89 11.821-4.393 17.693-1.464 5.892-2.967 11.802-4.162 17.674l-.385 1.867-1.831-.616c-7.091-2.426-14.124-5.025-21.177-7.566l-21.157-7.643-21.08-7.836c-7.014-2.637-13.99-5.429-21.08-7.855l.058-.192c7.187 2.156 14.278 4.62 21.369 7.027l21.273 7.354 42.43 14.978-.231.135c1.252-5.968 2.813-11.84 4.335-17.731l4.682-17.635 9.673-35.193.193.058v-.039Z"/><path fill="#C49778" d="m177.891 11.705-9.616 35.212-4.663 17.655c-1.503 5.89-3.044 11.782-4.297 17.73v.097l-.115-.038-42.411-15.017-21.254-7.393c-7.09-2.406-14.182-4.89-21.35-7.065v-.097c7.245 2.041 14.394 4.332 21.524 6.642l21.311 7.24 21.273 7.334c7.091 2.465 14.182 4.89 21.215 7.49l-1.06.596c1.311-5.987 2.891-11.86 4.432-17.75l4.779-17.616c1.638-5.853 3.218-11.744 4.933-17.577l5.202-17.5h.097v.057Z"/><path fill="#DFB89E" d="M74.166 52.847 85.015.808V.731h.096l92.741 10.916v.097c-7.765-.77-15.511-1.406-23.257-2.291l-23.2-2.542-23.2-2.54c-7.727-.867-15.454-1.907-23.161-2.85l.79-.559-5.646 25.972c-.944 4.331-1.87 8.663-2.89 12.976l-3.006 12.956h-.097l-.019-.019Z"/><path fill="#EEB73C" d="M165.52 83.497c-2.139-.097-4.278-.385-6.359-.944l.154-.558a41.882 41.882 0 0 0 6.822-.443l-.617 1.925v.02Z"/><path fill="#5B2E10" d="M166.137 81.571c2.273-.327 4.508-.847 6.667-1.482a49.484 49.484 0 0 0 11.946-5.121c3.546-2.253 6.783-4.794 8.98-7.951 1.098-1.56 2.081-3.158 2.736-4.89.327-.828.636-1.83.809-2.56l.193-.848.135-.674.231-1.52c.694-4.063.694-8.26.154-12.38-.424-4.158-1.676-8.201-3.237-12.11-2.312-5.39-5.781-10.319-10.309-14.631l.617-2.291c5.703 3.677 10.501 8.779 13.719 14.785 4.509 8.337 6.166 18.136 4.798 27.512-.636 4.678-2.524 9.337-5.549 13.014-3.006 3.716-6.956 6.565-11.196 8.644-4.258 2.08-8.844 3.408-13.526 4.063-2.544.346-5.145.52-7.727.404l.616-1.925-.057-.039Z"/><path fill="#EEB73C" d="M184.403 17.365a54.732 54.732 0 0 0-6.667-5.41l.232-.539a40.065 40.065 0 0 1 7.052 3.64l-.617 2.29v.02Z"/><path fill="#491E08" d="m78.405 50.171 8.498-45.685.058-.308.308.038a5346.518 5346.518 0 0 1 42.989 5.333l42.989 5.449-.058.385c-3.642.019-7.264-.116-10.887-.25-3.622-.116-7.245-.251-10.848-.501-3.623-.193-7.226-.462-10.829-.751-3.604-.27-7.207-.559-10.791-.944-7.207-.635-14.375-1.501-21.543-2.329-3.584-.404-7.168-.943-10.733-1.405-3.584-.462-7.148-.944-10.732-1.521l3.545-2.58c-.848 3.773-1.6 7.585-2.524 11.34-.906 3.773-1.753 7.546-2.736 11.3-.944 3.774-1.927 7.528-3.025 11.263-1.06 3.735-2.082 7.489-3.295 11.205l-.386-.077v.038Z"/><path fill="#C49778" d="m173.285 15.21-3.719 15.536c-1.233 5.179-2.601 10.319-3.911 15.498-1.31 5.16-2.621 10.319-4.008 15.46l-4.124 15.42-.346 1.27-1.272-.423a1152.9 1152.9 0 0 1-19.423-6.661l-19.385-6.777-19.307-7.008-19.23-7.258.038-.134 77.75 26.548-.173.097 16.956-61.588.135.038.019-.019Z"/><path fill="#491E08" d="M87.269 4.447c5.299 2.523 10.135 6.238 13.45 11.148 3.314 4.851 5.144 10.858 4.393 16.768-.925 5.891-4.625 11.128-9.577 14.343-4.971 3.273-11.156 4.235-16.976 3.58v-.192c2.968-.077 5.877-.288 8.594-1.136 2.736-.712 5.338-1.886 7.554-3.523 2.196-1.655 4.181-3.6 5.646-5.89a20.647 20.647 0 0 0 1.849-3.62c.251-.655.424-1.194.636-1.945.135-.577.289-1.251.347-1.906.809-5.313-.829-10.954-3.738-15.67-1.445-2.407-3.276-4.583-5.395-6.508-2.043-2.04-4.432-3.677-6.899-5.295l.077-.173.039.02Z"/><path fill="#935838" d="M87.25 4.466c2.755 1.04 5.395 2.484 7.823 4.236a29.972 29.972 0 0 1 6.359 6.41c3.564 4.91 5.491 11.167 4.778 17.424-.481 3.215-1.792 6.007-3.526 8.586-1.773 2.523-3.989 4.775-6.648 6.334a23.852 23.852 0 0 1-8.536 3.08 28.135 28.135 0 0 1-8.902-.23v-.135c5.82.616 11.927-.385 16.84-3.639 4.857-3.196 8.499-8.413 9.385-14.189.751-5.795-1.021-11.763-4.278-16.595-3.276-4.87-8.054-8.586-13.315-11.128l.058-.134-.038-.02Z"/><path fill="#210D00" d="M185.136 15.498c-.289 6.026-1.214 11.86-2.37 17.635-.521 2.907-1.253 5.737-1.889 8.625l-2.235 8.51c-.867 2.81-1.676 5.621-2.582 8.413-.983 2.772-1.85 5.583-2.929 8.317-2.062 5.506-4.355 10.954-7.264 16.23l-.366-.097 9.461-33.922 9.827-33.807.366.096h-.019Z"/><path fill="#EEB73C" d="m185.059 15.46-9.558 33.883-9.731 33.846-.192-.058c.443-2.927 1.098-5.795 1.638-8.683l1.965-8.586c1.349-5.718 2.987-11.36 4.451-17.039 1.734-5.602 3.314-11.262 5.184-16.826l2.851-8.336c1.06-2.753 2.024-5.526 3.18-8.24l.192.058.02-.02Z"/><path fill="#602B0D" d="m98.156 12.495 9.133 1.059 9.114 1.232c6.07.847 12.121 1.81 18.19 2.714 6.032 1.04 12.101 1.983 18.132 3.08l9.038 1.676 9.017 1.848v.096L98.156 12.59v-.095Z"/><path fill="#935838" d="m98.156 12.456 36.322 5.737 36.302 5.872v.135c-3.083-.212-6.127-.578-9.191-.866l-9.133-1.117c-6.089-.77-12.14-1.752-18.19-2.618-6.031-1.06-12.082-2.022-18.113-3.177l-9.018-1.79c-2.987-.694-5.992-1.29-8.98-2.041v-.135Z"/><path fill="#602B0D" d="m158.005 70.675-8.787-2.253-8.728-2.406c-5.82-1.637-11.581-3.389-17.381-5.083-5.761-1.829-11.542-3.562-17.265-5.448l-8.594-2.85-8.555-3.022v-.096l69.349 21.08v.097l-.039-.02Z"/><path fill="#935838" d="M157.986 70.694 123.302 60.22 88.656 49.613l.039-.135c2.967.616 5.896 1.386 8.844 2.06l8.768 2.31c5.838 1.56 11.599 3.33 17.419 4.987 5.742 1.848 11.522 3.6 17.245 5.544l8.575 2.965c2.833 1.078 5.684 2.06 8.498 3.215l-.039.135h-.019Z"/><path fill="#602B0D" d="M163.612 50.402c-5.222-.25-10.212-1.386-15.261-2.29-5.048-.963-10.039-2.1-15.068-3.158-4.991-1.194-10-2.33-14.972-3.6l-7.438-1.945-7.399-2.117v-.097l30.021 6.816 15.011 3.35 7.514 1.617c2.486.48 5.068 1.136 7.515 1.328l.077.058v.038Z"/><path fill="#986042" d="M163.632 50.421c-.752.116-1.311-.096-1.966-.173l-1.888-.346-3.777-.751-7.534-1.579-15.03-3.292-29.982-6.93.038-.136c2.563.308 5.087.77 7.631 1.156l7.572 1.386c5.049.943 10.04 2.098 15.069 3.118 4.971 1.213 9.981 2.33 14.952 3.6l7.438 1.945c2.447.674 5.01 1.425 7.361 1.925l.116.097v-.02Z"/><path fill="#602B0D" d="m168.584 32.113-8.382-1.329-8.344-1.482c-5.568-1.02-11.099-2.157-16.629-3.254-5.511-1.213-11.06-2.349-16.552-3.62l-8.247-1.944-8.208-2.098v-.096l66.4 13.726v.097h-.038Z"/><path fill="#935838" d="m168.584 32.132-33.22-6.796-33.181-6.93.039-.136c2.813.308 5.607.751 8.42 1.136l8.363 1.387c5.569.943 11.099 2.098 16.648 3.157 5.511 1.232 11.041 2.368 16.533 3.696l8.228 2.041c2.717.77 5.472 1.463 8.17 2.31l-.039.135h.039Z"/><path fill="#fff" d="M70.987 79.126c0-.673.462-1.27.963-1.655.52-.404 1.118-.693 1.754-.924 1.252-.443 2.562-.616 3.892-.616 1.31 0 2.64.192 3.892.616.617.212 1.234.5 1.754.924.52.385.963.982.963 1.655h-.058c-.077-.654-.558-1.135-1.079-1.463a5.997 5.997 0 0 0-1.715-.77 13.007 13.007 0 0 0-3.757-.5 12.377 12.377 0 0 0-3.758.5c-.597.174-1.194.405-1.714.77-.52.328-1.002.79-1.08 1.463h-.057Z"/><path fill="#DD9E00" d="M84.263 79.145c.173.29.193.809.077 1.213-.116.405-.328.79-.578 1.117-.52.654-1.156 1.136-1.85 1.502-1.368.75-2.852 1-4.335 1.04-.675-.04-1.484-.097-2.216-.251-.713-.212-1.446-.404-2.12-.79a5.43 5.43 0 0 1-1.83-1.501c-.501-.616-.887-1.598-.501-2.349h.192c0 .635.444 1.175.944 1.54.501.385 1.099.655 1.715.867 1.234.404 2.525.558 3.835.558 1.29 0 2.601-.135 3.834-.558.617-.212 1.195-.482 1.715-.867s.925-.885.945-1.56h.192l-.019.04Z"/><path fill="#FFEF5A" d="M84.224 79.126c0 .674-.462 1.29-.982 1.675a6.123 6.123 0 0 1-1.754.924c-1.252.443-2.582.616-3.892.636-1.31 0-2.64-.193-3.892-.636-.617-.23-1.234-.52-1.754-.924s-.963-.982-.983-1.694h.097c.212.635.655 1.02 1.194 1.29.501.289 1.099.5 1.677.616 1.194.27 2.39.443 3.642.385 1.233.058 2.466-.096 3.642-.385.597-.135 1.175-.327 1.676-.616.559-.27.983-.636 1.195-1.29h.096l.038.02Z"/><path fill="#fff" d="M56.439 74.448c.077-1.097 1.214-1.655 2.1-2.002.963-.346 1.985-.481 3.006-.481 1.021 0 2.042.135 3.006.481.906.347 2.042.886 2.1 2.002h-.058c-.077-.5-.443-.866-.867-1.097a4.527 4.527 0 0 0-1.33-.558 10.441 10.441 0 0 0-2.89-.366 9.686 9.686 0 0 0-2.89.366 4.753 4.753 0 0 0-1.33.558c-.404.231-.77.578-.867 1.097h-.057.077Z"/><path fill="#DD9E00" d="M66.748 74.468c.173.211.211.654.134 1-.077.347-.25.674-.424.963a4.573 4.573 0 0 1-1.445 1.29c-1.079.655-2.273.867-3.449.905-.54-.038-1.194-.077-1.753-.212-.578-.173-1.157-.346-1.696-.693a4.571 4.571 0 0 1-1.445-1.29c-.386-.539-.655-1.386-.29-1.963h.194c.077.981 1.156 1.52 2.042 1.828.944.308 1.946.424 2.948.424s2.004-.096 2.948-.424c.887-.308 1.966-.827 2.043-1.848h.192v.02Z"/><path fill="#FFEF5A" d="M66.69 74.448c0 .52-.347 1.001-.752 1.31-.404.327-.886.538-1.368.731-.963.346-2.004.481-3.025.5-1.021 0-2.062-.154-3.025-.5-.482-.173-.964-.404-1.368-.732-.405-.308-.752-.77-.752-1.309h.096c.193.482.54.751.983.924a5.35 5.35 0 0 0 1.291.424c.925.173 1.811.308 2.775.25.944.058 1.869-.058 2.775-.25a4.075 4.075 0 0 0 1.29-.424c.424-.192.771-.404.983-.924h.097Z"/><path fill="#fff" d="M98.522 76.797c0-.674.443-1.27.963-1.656.521-.404 1.118-.693 1.754-.924 1.252-.443 2.563-.616 3.892-.616 1.31 0 2.64.193 3.893.616.616.212 1.213.5 1.753.924.52.385.963.982.963 1.656h-.057c-.077-.655-.559-1.136-1.079-1.463a6.017 6.017 0 0 0-1.715-.77 13.056 13.056 0 0 0-3.777-.5 12.46 12.46 0 0 0-3.758.5c-.597.173-1.194.404-1.714.77-.54.327-1.002.79-1.08 1.463h-.057.019Z"/><path fill="#DD9E00" d="M111.779 76.816c.173.29.193.809.077 1.213s-.327.79-.578 1.117a5.992 5.992 0 0 1-1.85 1.501c-1.368.751-2.852 1.002-4.335 1.04-.675-.038-1.484-.096-2.216-.25-.713-.193-1.445-.404-2.12-.79a5.626 5.626 0 0 1-1.83-1.501c-.501-.616-.887-1.598-.501-2.349h.192c0 .635.444 1.175.945 1.54.501.385 1.098.655 1.714.867 1.234.404 2.525.558 3.835.558 1.291 0 2.601-.135 3.834-.558.617-.212 1.195-.482 1.715-.867.521-.385.925-.885.945-1.56h.192l-.019.04Z"/><path fill="#FFEF5A" d="M111.74 76.816c0 .674-.462 1.29-.982 1.675a6.132 6.132 0 0 1-1.754.924c-1.252.443-2.582.616-3.892.635-1.31 0-2.64-.192-3.892-.635-.617-.23-1.234-.52-1.754-.924s-.963-.982-.983-1.694h.097c.212.635.655 1.02 1.194 1.29.501.289 1.099.5 1.677.616 1.194.27 2.389.443 3.642.385 1.233.058 2.466-.116 3.641-.385.598-.135 1.176-.327 1.677-.616.559-.27.983-.636 1.195-1.29h.096l.038.02Z"/><path fill="#fff" d="M70.582 69.346c0-.5.405-.924.79-1.174.405-.27.867-.462 1.33-.616.944-.29 1.907-.405 2.89-.405.963 0 1.946.116 2.89.405.463.154.925.327 1.33.616.404.27.79.674.79 1.193h-.058c-.077-.48-.482-.77-.886-.981a5.173 5.173 0 0 0-1.291-.463 11.107 11.107 0 0 0-2.794-.288c-.925-.02-1.87.077-2.775.288-.463.097-.906.25-1.291.462-.405.193-.79.482-.886.982h-.058l.019-.019Z"/><path fill="#DD9E00" d="M80.679 69.365c.173.212.193.674.096.982-.096.347-.289.636-.462.905-.405.5-.906.886-1.426 1.175-1.04.577-2.177.789-3.276.808-1.06-.038-2.273-.231-3.276-.828a4.512 4.512 0 0 1-1.425-1.174c-.386-.482-.752-1.29-.386-1.906h.193c.115.924 1.195 1.367 2.062 1.617.925.27 1.869.347 2.832.347.964 0 1.927-.077 2.833-.347.848-.27 1.946-.693 2.061-1.636h.193l-.02.057Z"/><path fill="#FFEF5A" d="M80.621 69.365c0 .52-.404.944-.81 1.194-.404.289-.866.481-1.329.616-.944.289-1.927.404-2.89.424a9.726 9.726 0 0 1-2.89-.424c-.463-.154-.925-.346-1.33-.616s-.79-.674-.81-1.213h.097c.212.443.559.655.983.79.385.173.828.27 1.272.327.886.135 1.753.23 2.678.173.906.058 1.792-.058 2.678-.173.444-.058.887-.154 1.272-.328.424-.154.77-.308.983-.789h.096v.02Z"/><path fill="#fff" d="M79.561 66.632c.463-1.02 1.638-1.444 2.679-1.483 1.079-.057 2.158.193 3.14.597.983.443 1.908 1.04 2.602 1.848.694.79 1.214 1.926.79 2.965h-.039c.25-1.078-.347-2.021-1.02-2.734a7.022 7.022 0 0 0-2.525-1.655c-.906-.405-1.927-.655-2.929-.655-.983 0-2.081.212-2.66 1.136h-.038v-.02Z"/><path fill="#DD9E00" d="M88.81 70.579c.058.596-.404 1.232-.886 1.674a4.169 4.169 0 0 1-1.792.79c-1.272.27-2.544 0-3.68-.443-1.08-.5-2.197-1.27-2.871-2.368a4.282 4.282 0 0 1-.675-1.829c0-.674.116-1.386.597-1.81l.135.058c-.385 1.001.116 2.08.81 2.83.693.79 1.599 1.367 2.563 1.771.963.405 2.003.674 3.063.636 1.022-.039 2.158-.405 2.602-1.387l.134.078Z"/><path fill="#FFEF5A" d="M88.791 70.56c-.462 1.039-1.657 1.462-2.697 1.52-1.08.077-2.159-.173-3.16-.577-.983-.443-1.908-1.04-2.602-1.868-.694-.79-1.214-1.944-.77-3.003l.096.038c-.058 1.098.558 1.849 1.252 2.484.713.616 1.503 1.136 2.428 1.482a7.298 7.298 0 0 0 2.736.713 3.37 3.37 0 0 0 1.388-.097c.481-.096.867-.288 1.271-.712l.097.038-.039-.019Z"/><path fill="#fff" d="M115.324 79.126c0-.5.405-.924.79-1.174.405-.27.868-.462 1.33-.616.925-.289 1.908-.404 2.89-.404.964 0 1.947.115 2.891.404.462.154.925.327 1.329.616.405.27.79.674.79 1.174h-.058c-.077-.48-.481-.77-.886-.982a5.179 5.179 0 0 0-1.291-.462 11.137 11.137 0 0 0-2.775-.288 11.13 11.13 0 0 0-2.774.288c-.444.097-.906.25-1.291.462-.405.193-.79.482-.887.982h-.058Z"/><path fill="#DD9E00" d="M125.402 79.146c.173.211.193.674.096.981-.096.347-.289.636-.462.905a4.85 4.85 0 0 1-1.426 1.175c-1.04.597-2.158.79-3.276.808-1.059-.038-2.273-.23-3.275-.828a4.506 4.506 0 0 1-1.426-1.174c-.386-.481-.752-1.29-.386-1.906h.193c.116.924 1.195 1.367 2.062 1.617.925.27 1.869.347 2.832.347.964 0 1.927-.077 2.833-.347.848-.27 1.946-.693 2.062-1.636h.192l-.019.058Z"/><path fill="#FFEF5A" d="M125.364 79.146c0 .52-.405.943-.79 1.193-.405.29-.868.482-1.33.616-.944.29-1.927.405-2.89.424a9.73 9.73 0 0 1-2.891-.424c-.462-.154-.925-.346-1.329-.616-.405-.27-.79-.674-.79-1.213h.096c.212.443.559.655.983.79.385.173.828.27 1.272.327.886.135 1.753.231 2.678.173.906.058 1.792-.038 2.678-.173.444-.058.887-.154 1.272-.327.424-.154.771-.308.983-.79h.096l-.038.02Z"/><path fill="#fff" d="M91.836 72.292c0-.5.404-.924.79-1.174.404-.27.867-.462 1.33-.617.924-.288 1.907-.404 2.89-.404.963 0 1.946.116 2.89.404.462.154.925.328 1.329.617.386.27.79.673.79 1.174h-.057c-.077-.481-.482-.77-.887-.982a5.167 5.167 0 0 0-1.29-.462 11.143 11.143 0 0 0-2.775-.289c-.945-.019-1.87.077-2.775.289-.463.096-.906.25-1.291.462-.405.193-.81.481-.887.982h-.057Z"/><path fill="#DD9E00" d="M101.913 72.311c.174.212.193.674.097.982-.097.347-.27.635-.463.905-.404.5-.905.886-1.426 1.174-1.04.578-2.158.79-3.275.809-1.06-.039-2.274-.231-3.276-.828a4.512 4.512 0 0 1-1.426-1.174c-.385-.482-.752-1.29-.385-1.906h.192c.116.924 1.195 1.367 2.062 1.617.925.27 1.87.346 2.833.346.963 0 1.926-.077 2.832-.346.848-.27 1.946-.693 2.062-1.637h.193l-.02.058Z"/><path fill="#FFEF5A" d="M101.856 72.292c0 .52-.405.943-.791 1.193-.404.29-.867.482-1.33.616-.943.29-1.926.405-2.89.424a9.727 9.727 0 0 1-2.89-.424c-.462-.154-.925-.346-1.33-.616-.404-.27-.79-.674-.809-1.213h.097c.212.443.559.655.983.79.385.173.828.27 1.271.327.887.135 1.754.231 2.679.173.905.058 1.792-.038 2.678-.173.443-.058.886-.154 1.272-.327.424-.154.77-.308.982-.79h.097l-.019.02Z"/><path fill="#fff" d="M58.019 64.841c0-.5.404-.924.79-1.174.404-.27.867-.462 1.33-.616.943-.289 1.907-.404 2.89-.404.963 0 1.946.115 2.89.404.462.154.925.327 1.33.616.404.27.79.674.79 1.194h-.058c-.077-.482-.482-.77-.887-.982a5.166 5.166 0 0 0-1.29-.462 11.137 11.137 0 0 0-2.775-.29c-.945-.019-1.87.078-2.775.29-.443.096-.906.25-1.291.462-.405.192-.79.48-.886.982h-.058v-.02Z"/><path fill="#DD9E00" d="M68.116 64.86c.173.212.192.674.096.982-.096.347-.27.636-.463.905-.404.5-.905.886-1.425 1.175-1.04.577-2.159.789-3.276.808-1.06-.038-2.274-.23-3.276-.828a4.512 4.512 0 0 1-1.426-1.174c-.385-.481-.751-1.29-.385-1.906h.193c.115.924 1.194 1.367 2.061 1.617.925.27 1.87.347 2.833.347.963 0 1.927-.077 2.832-.347.848-.27 1.947-.693 2.062-1.636h.193l-.02.058Z"/><path fill="#FFEF5A" d="M68.058 64.86c0 .52-.405.944-.79 1.194-.405.289-.867.481-1.33.616-.944.289-1.927.405-2.89.424a9.73 9.73 0 0 1-2.89-.424c-.463-.154-.925-.346-1.33-.616s-.79-.674-.79-1.213h.096c.212.443.56.655.983.79.385.173.829.27 1.272.327.886.135 1.753.231 2.678.173.906.058 1.792-.038 2.679-.173.443-.058.886-.154 1.271-.327.424-.154.771-.308.983-.79h.096l-.038.02Z"/><path fill="#fff" d="M90.217 82.746c0-.5.405-.924.79-1.174.405-.27.867-.462 1.33-.616.944-.29 1.907-.405 2.89-.405.963 0 1.946.116 2.89.405.463.154.925.327 1.33.616.404.27.79.674.79 1.174h-.058c-.077-.481-.482-.77-.886-.982a5.17 5.17 0 0 0-1.291-.462 11.2 11.2 0 0 0-2.794-.289c-.925-.019-1.87.077-2.775.29-.462.095-.906.25-1.291.461-.405.193-.79.482-.886.982h-.058.02Z"/><path fill="#DD9E00" d="M100.275 82.765c.135.212.116.616 0 .905a3.43 3.43 0 0 1-.481.809 4.25 4.25 0 0 1-1.407 1.02c-1.002.52-2.1.693-3.18.712-1.04-.038-2.196-.212-3.179-.712a4.696 4.696 0 0 1-1.387-1.02c-.366-.463-.752-1.136-.482-1.714h.135c.116.944 1.214 1.386 2.062 1.656.925.27 1.888.366 2.852.366.963 0 1.927-.097 2.852-.366.847-.27 1.946-.693 2.061-1.656h.154Z"/><path fill="#FFEF5A" d="M100.256 82.765c0 .52-.404.943-.79 1.194-.404.288-.867.48-1.33.616-.944.288-1.926.404-2.89.423a9.729 9.729 0 0 1-2.89-.423c-.462-.154-.925-.347-1.33-.617-.404-.269-.79-.673-.79-1.212h.097c.212.442.558.654.982.789.386.173.829.27 1.272.327.886.135 1.754.231 2.678.174.906.057 1.793-.039 2.679-.174.443-.057.886-.154 1.272-.327.424-.154.77-.308.982-.79h.097l-.039.02Z"/><path fill="#fff" d="M80.428 74.179c.193-.462.694-.713 1.157-.828.481-.116.963-.116 1.464-.096.983.057 1.927.308 2.852.654.906.366 1.773.809 2.543 1.425.386.308.733.635 1.022 1.04.27.385.481.904.308 1.386h-.039c.097-.5-.173-.924-.481-1.252-.29-.346-.656-.635-1.04-.905-.79-.52-1.58-.943-2.506-1.27a11.745 11.745 0 0 0-2.678-.732 4.677 4.677 0 0 0-1.368-.038c-.444.038-.925.154-1.176.596h-.038l-.02.02Z"/><path fill="#DD9E00" d="M89.832 77.817c.096.25-.058.693-.27.963-.212.288-.482.481-.77.674-.56.327-1.157.5-1.754.577-1.176.173-2.313-.038-3.353-.424-.983-.423-2.043-1.04-2.775-1.944a4.489 4.489 0 0 1-.906-1.598c-.173-.597-.23-1.482.328-1.906l.174.077c-.232.905.635 1.694 1.33 2.253.77.577 1.618 1 2.523 1.328.887.347 1.812.616 2.775.693.886.058 2.062.058 2.505-.79l.173.097h.02Z"/><path fill="#FFEF5A" d="M89.793 77.798c-.193.481-.713.732-1.175.828a4.701 4.701 0 0 1-1.465.096c-.982-.057-1.946-.308-2.852-.635-.905-.366-1.791-.828-2.543-1.444a5.32 5.32 0 0 1-1.021-1.059c-.27-.404-.501-.924-.308-1.405l.096.038c.038.5.289.809.636 1.098.308.288.674.539 1.06.75.79.443 1.541.847 2.427 1.136.829.385 1.696.597 2.563.79.424.115.867.173 1.291.154.443 0 .829 0 1.214-.385l.077.038Z"/><path fill="#fff" d="M37.016 67.094c.038-.636.635-1.02 1.117-1.29a7.575 7.575 0 0 1 1.676-.597c1.157-.27 2.351-.385 3.527-.404 1.194 0 2.37.115 3.526.404a7.577 7.577 0 0 1 1.676.597c.501.27 1.099.654 1.118 1.309h-.058c-.096-.597-.694-.866-1.194-1.078a7.806 7.806 0 0 0-1.658-.462c-1.137-.193-2.273-.308-3.449-.27a17.263 17.263 0 0 0-3.449.29c-.559.095-1.117.23-1.657.461-.501.212-1.08.481-1.195 1.078h-.058l.078-.038Z"/><path fill="#DD9E00" d="M49.772 67.113a.838.838 0 0 1 .096.558 1.858 1.858 0 0 1-.193.578c-.173.366-.443.635-.693.905a6.458 6.458 0 0 1-1.773 1.136c-1.233.558-2.544.75-3.854.79-1.252-.04-2.64-.232-3.854-.79a6.21 6.21 0 0 1-1.753-1.136c-.482-.481-1.137-1.27-.81-2.08h.193c.039.54.578.925 1.08 1.175a7.99 7.99 0 0 0 1.656.558c1.137.25 2.313.347 3.488.328 1.176 0 2.35-.077 3.488-.328a7.993 7.993 0 0 0 1.657-.558c.5-.27 1.04-.616 1.079-1.174h.193v.038Z"/><path fill="#FFEF5A" d="M49.733 67.113c-.038.655-.636 1.06-1.137 1.329-.54.27-1.098.462-1.676.616-1.156.288-2.351.404-3.546.404-1.194 0-2.389-.135-3.545-.404-.578-.154-1.156-.328-1.677-.616-.5-.27-1.098-.674-1.136-1.329h.096c.231.54.751.732 1.272.886.52.173 1.06.27 1.618.327 1.118.116 2.216.231 3.372.173 1.137.058 2.255-.057 3.372-.173.56-.058 1.118-.154 1.619-.327.52-.154 1.04-.327 1.272-.886h.096Z"/><path fill="#fff" d="M47.267 72.022c-.309-.577 0-1.251.327-1.752a7.59 7.59 0 0 1 1.176-1.424c.886-.867 1.869-1.598 2.928-2.253a16.583 16.583 0 0 1 3.353-1.56 8.437 8.437 0 0 1 1.811-.384c.598-.039 1.33-.02 1.715.52h-.038c-.405-.443-1.098-.366-1.657-.27a9.113 9.113 0 0 0-1.715.481 19.354 19.354 0 0 0-3.218 1.618c-1.021.596-2.004 1.328-2.91 2.098a8.528 8.528 0 0 0-1.214 1.29c-.346.462-.713 1.02-.481 1.598h-.039l-.038.038Z"/><path fill="#DD9E00" d="M58.616 65.13c.135.096.27.192.385.462.078.192.116.424.135.616.039.424-.058.79-.154 1.174A6.488 6.488 0 0 1 58 69.308c-.809 1.155-1.869 2.021-2.986 2.733-1.118.636-2.447 1.213-3.816 1.406a6.763 6.763 0 0 1-2.158 0c-.366-.096-.751-.174-1.117-.404-.347-.193-.694-.54-.732-.944l.173-.096c.328.462 1.021.481 1.6.443.597-.058 1.194-.212 1.772-.405 1.156-.404 2.235-.962 3.276-1.597 1.04-.636 2.042-1.348 2.929-2.176a8.001 8.001 0 0 0 1.175-1.386c.308-.5.617-1.098.328-1.637l.173-.077v-.038Z"/><path fill="#FFEF5A" d="M58.578 65.15c.308.596 0 1.27-.309 1.79a8.383 8.383 0 0 1-1.175 1.444c-.887.866-1.889 1.617-2.93 2.272-1.059.635-2.177 1.174-3.371 1.559a8.445 8.445 0 0 1-1.811.385c-.598.038-1.33.02-1.735-.54l.077-.057c.482.366 1.06.25 1.619.096a8.166 8.166 0 0 0 1.619-.596c1.06-.5 2.1-1.002 3.102-1.675 1.04-.559 1.985-1.27 2.91-1.983.462-.347.905-.751 1.271-1.175.386-.423.752-.866.655-1.482l.097-.039h-.02ZM116.673 4.524c.154-.789.289-1.578.559-2.33.231-.75.752-1.54 1.561-1.828 1.58-.558 3.218-.289 4.798-.173l9.519.924 9.499 1.02c1.561.135 3.295.347 4.528 1.502.617.558.964 1.386.983 2.214.039.828-.173 1.617-.482 2.368l-.173-.077c.116-.79.154-1.579 0-2.272-.154-.693-.54-1.194-1.041-1.502-.481-.327-1.098-.539-1.772-.654-.675-.116-1.349-.077-2.197-.096-3.199-.02-6.378-.308-9.557-.597-3.16-.347-6.34-.751-9.481-1.329-1.503-.25-3.121-.596-4.258-.385-.52.058-.983.443-1.349 1.117-.347.655-.636 1.405-.963 2.156l-.193-.038.019-.02ZM89.774 167.686c0-.904.751-1.559 1.445-2.002.713-.462 1.522-.77 2.332-1.001 1.618-.462 3.314-.654 5.01-.674 1.695 0 3.391.193 5.009.674.81.231 1.619.539 2.332 1.001.694.443 1.426 1.098 1.445 2.002h-.096c-.212-.808-.887-1.27-1.619-1.578-.713-.347-1.483-.559-2.274-.713-1.58-.308-3.179-.481-4.817-.423-1.6-.058-3.237.115-4.798.423-.79.154-1.56.366-2.273.713-.713.308-1.407.751-1.619 1.578h-.096.019Z"/><path fill="#DD9E00" d="M107.386 167.686c.366.982-.366 2.06-1.041 2.715a8.35 8.35 0 0 1-2.428 1.54c-1.715.751-3.564 1.02-5.376 1.059-1.811-.039-3.66-.308-5.376-1.059-.867-.366-1.695-.866-2.408-1.54-.675-.655-1.407-1.733-1.04-2.715h.192c.019.809.713 1.444 1.387 1.848a9.138 9.138 0 0 0 2.293.944c1.6.443 3.295.597 4.952.597 1.677 0 3.353-.154 4.952-.597.81-.231 1.6-.52 2.293-.944.694-.423 1.368-1.039 1.388-1.867h.192l.02.019Z"/><path fill="#fff" d="M107.309 167.687c0 .885-.733 1.54-1.426 1.982-.713.443-1.523.751-2.332.982-1.618.462-3.314.655-5.01.655-1.676 0-3.372-.193-5.01-.655-.809-.231-1.599-.539-2.331-.982-.694-.442-1.407-1.097-1.426-1.982h.058c.096.847.809 1.405 1.522 1.771.713.385 1.503.654 2.293.847 1.6.385 3.256.558 4.894.539a19.798 19.798 0 0 0 4.895-.539c.79-.193 1.58-.443 2.293-.847.693-.366 1.425-.905 1.522-1.771h.058Z"/><path fill="#FFEF5A" d="M9.789 143.178c.038-.635.655-1.02 1.156-1.27a8.539 8.539 0 0 1 1.676-.559c1.156-.269 2.312-.365 3.507-.385 1.175 0 2.35.116 3.488.385a8.542 8.542 0 0 1 1.676.559c.501.25 1.118.616 1.156 1.27h-.096c-.231-.519-.77-.693-1.291-.808a7.47 7.47 0 0 0-1.619-.289c-1.117-.116-2.177-.212-3.352-.154-1.08-.058-2.216.038-3.315.154-.559.058-1.098.135-1.618.289-.52.135-1.06.289-1.291.828h-.097l.02-.02Z"/><path fill="#DD9E00" d="M22.448 143.197a.972.972 0 0 1 .039.54 2.36 2.36 0 0 1-.231.5 3.486 3.486 0 0 1-.713.789 6.337 6.337 0 0 1-1.735.944c-1.194.462-2.466.616-3.7.654-1.213-.038-2.523-.192-3.699-.654a6.772 6.772 0 0 1-1.715-.944 4.713 4.713 0 0 1-.713-.789c-.212-.289-.347-.693-.212-1.04h.135c.039.559.617.905 1.118 1.136.52.231 1.079.405 1.638.52a15.99 15.99 0 0 0 3.449.308c1.156 0 2.312-.077 3.449-.308a8.075 8.075 0 0 0 1.638-.52c.5-.25 1.06-.577 1.117-1.155h.135v.019Z"/><path fill="#fff" d="M22.41 143.197c-.039.636-.655.982-1.156 1.233-.54.25-1.099.423-1.658.558-1.136.25-2.312.366-3.487.366-1.176 0-2.351-.116-3.488-.366a8.023 8.023 0 0 1-1.657-.558c-.501-.251-1.098-.616-1.156-1.252h.058c.115.578.713.828 1.214 1.021.52.192 1.079.327 1.637.423 1.137.173 2.255.289 3.411.25 1.137.02 2.293-.077 3.41-.25.56-.096 1.118-.212 1.639-.423.5-.193 1.098-.424 1.213-1.021h.058l-.038.019Z"/><path fill="#FFEF5A" d="M19.48 152.843c.02-.501.483-.809.868-1.001.405-.212.848-.347 1.272-.462a11.425 11.425 0 0 1 2.678-.308c.887 0 1.811.096 2.679.308.443.115.867.25 1.271.462.386.212.848.5.867 1.02h-.096c-.212-.385-.597-.481-1.002-.558a8.088 8.088 0 0 0-1.214-.193c-.848-.057-1.638-.134-2.524-.077-.81-.057-1.677.02-2.486.077-.424.02-.828.077-1.214.193-.404.077-.79.173-1.002.577h-.096v-.038Z"/><path fill="#DD9E00" d="M29.135 152.862c.173.539-.347 1.04-.694 1.348-.405.308-.867.519-1.31.712-.906.347-1.87.424-2.814.501-.925-.077-1.927-.154-2.813-.501-.443-.193-.905-.404-1.31-.712-.347-.328-.848-.79-.694-1.367h.096c.02.423.444.712.829.905.405.192.829.327 1.252.423.868.193 1.754.27 2.64.27.887 0 1.773-.077 2.64-.27a5.66 5.66 0 0 0 1.253-.423c.385-.193.79-.462.828-.905h.097v.019Z"/><path fill="#fff" d="M29.096 152.862c-.02.482-.482.79-.867.982a4.97 4.97 0 0 1-1.272.443c-.867.212-1.773.289-2.678.308-.887 0-1.792-.096-2.678-.308a7.097 7.097 0 0 1-1.272-.443c-.386-.212-.829-.5-.867-.982h.057c.097.443.54.636.925.77.386.154.81.251 1.233.308.868.135 1.715.212 2.583.193.867.019 1.734-.058 2.582-.193a5.226 5.226 0 0 0 1.233-.308c.385-.134.828-.308.925-.77h.096Z"/><path fill="#602B0D" d="M157.119 83.708a404.343 404.343 0 0 0-18.672 2.176c-6.204.847-12.409 1.733-18.575 2.81a464.48 464.48 0 0 0-18.44 3.562c-6.109 1.329-12.217 2.753-18.229 4.41l-.27.076-.27-.115c-6.917-2.773-13.757-5.718-20.636-8.587L41.39 79.434l-20.676-8.49c-6.879-2.85-13.739-5.756-20.675-8.47l.038-.097c6.995 2.58 13.912 5.333 20.849 8.067l20.733 8.355L83.01 95.78h-.057c12.14-3.195 24.452-5.679 36.823-7.72 12.37-2.021 24.837-3.561 37.343-4.447v.096Z"/><path fill="#DFB89E" d="M157.119 83.709c-12.506.904-24.973 2.445-37.343 4.485-12.371 2.06-24.665 4.563-36.785 7.759h-.077L41.582 78.934l-20.714-8.375c-6.917-2.753-13.835-5.506-20.83-8.105l.04-.096c7.032 2.445 14.027 5.044 20.983 7.7l20.791 8.221 20.753 8.337c6.898 2.81 13.835 5.544 20.675 8.49l-.54-.039c6.109-1.598 12.237-2.926 18.383-4.177a460.99 460.99 0 0 1 18.537-3.331c6.205-.963 12.428-1.848 18.672-2.503a382.8 382.8 0 0 1 18.767-1.444v.097h.02Z"/><path fill="#EFB025" d="M155.153 137.287c-.347-2.233-.481-4.486-.693-6.719l-.309-6.719c-.154-4.486 0-8.952.039-13.438.308-4.466.462-8.952.925-13.4l.77-6.68c.386-2.214.656-4.447 1.137-6.661h.193c-.443 8.952-.809 17.885-1.098 26.818-.347 8.933-.636 17.885-.771 26.818h-.193v-.019Z"/><path fill="#CC8D00" d="M87.192 157.386c2.486-1.675 5.241-2.868 7.939-4.139 2.755-1.155 5.53-2.214 8.324-3.254 5.588-2.04 11.291-3.677 16.976-5.39 5.742-1.463 11.465-3.023 17.265-4.255l8.728-1.771c2.929-.462 5.858-1.02 8.806-1.367l.039.192c-11.484 2.85-22.949 5.853-34.337 9.068-5.704 1.579-11.388 3.215-17.034 4.967-5.626 1.81-11.31 3.562-16.63 6.142l-.076-.174v-.019Z"/><path fill="#DD9E00" d="M8.844 118.382a583.39 583.39 0 0 1 10.059 4.331l9.943 4.602c6.609 3.118 13.141 6.372 19.692 9.587 6.494 3.331 13.007 6.604 19.462 10.031l9.654 5.159 9.576 5.314-.038.077-39.097-19.734c-13.045-6.526-26.09-13.11-39.308-19.31l.038-.077.02.02Z"/><path fill="#FFEF5A" d="m.116 62.397 1.676 6.911 1.426 6.95c.906 4.64 1.657 9.318 2.428 13.977.655 4.678 1.368 9.357 1.907 14.054l.771 7.047.559 7.084h-.096a1536.606 1536.606 0 0 0-4.085-28.05C3.276 81.033 1.772 71.714 0 62.416h.096l.02-.02Z"/><path fill="#fff" d="M27.979 75.68c-.232 4.1-.193 8.24.346 12.283.29 2.022.79 3.966 1.368 5.853.598 1.867 1.388 3.696 2.968 5.044l-.077.135c-2.081-.694-3.469-2.734-4.259-4.679-.809-2.002-1.021-4.139-1.156-6.218-.289-4.178 0-8.336.675-12.418h.134ZM45.012 84.46c.174 3.06.135 6.122-.231 9.183-.173 1.52-.385 3.08-1.002 4.563-.328.712-.694 1.443-1.253 2.06-.539.596-1.348 1.078-2.158 1.02v-.096c1.465-.462 2.043-1.964 2.505-3.312.444-1.405.848-2.85 1.137-4.332.52-2.984.79-6.025.887-9.067h.096l.02-.02ZM3.892 72.811A705.056 705.056 0 0 1 7.38 92.718c1.002 6.661 1.985 13.342 2.409 20.061h-.097a107.39 107.39 0 0 0-.828-4.986l-.81-4.987-1.637-9.953-1.465-9.992-.655-5.005-.52-5.044h.116ZM82.182 97.262l.886 7.027.713 7.046c.463 4.698.771 9.395 1.176 14.093.27 4.716.616 9.414.809 14.131l.289 7.065.154 7.085h-.096c-1.522-18.79-2.775-37.619-4.027-56.428h.096v-.02ZM13.739 114.993c12.93 5.237 25.84 10.57 38.383 16.692l-.038.096-4.895-1.906-4.855-1.964-9.654-4.023c-3.18-1.425-6.397-2.792-9.557-4.236l-4.74-2.214-4.702-2.349.038-.096h.02ZM117.906 2.349c.174-.77 1.041-1.252 1.754-1.463.771-.193 1.522-.231 2.254-.25 1.484 0 2.91.211 4.336.365 1.407.289 2.832.481 4.22.828 1.387.327 2.794.674 4.162 1.194v.096c-2.852-.328-5.704-.751-8.536-1.155-1.407-.212-2.833-.443-4.259-.559-.713-.057-1.426-.077-2.139 0-.693.077-1.406.366-1.753 1.001l-.077-.057h.038ZM52.122 82.707c2.621.886 5.26 1.733 7.862 2.657l7.804 2.83c5.145 2.022 10.347 3.909 15.434 6.046l-.481-.039c3.93-.866 7.88-1.771 11.85-2.483 1.985-.366 3.95-.79 5.954-1.098 2.004-.308 3.989-.635 5.993-.885v.096c-3.95.75-7.881 1.656-11.812 2.541l-11.793 2.715h-.039l-30.79-12.264.038-.096-.02-.02ZM160.125 77.76l1.599-7.528 1.753-7.49c1.195-4.985 2.525-9.933 3.777-14.9 1.388-4.929 2.698-9.896 4.143-14.805l2.197-7.374 2.37-7.335h.096l-15.82 59.47h-.096l-.019-.038Z"/></g></svg>