<svg xmlns="http://www.w3.org/2000/svg" width="44" height="29" fill="none"><path fill="#fff" d="M42.551 4.091c.8 0 1.449.575 1.449 1.284v22.148c0 .71-.648 1.284-1.449 1.284H1.45c-.8 0-1.449-.575-1.449-1.284V5.375c0-.71.649-1.284 1.449-1.284H42.55Z"/><path fill="#000" d="M42.551 4.091c.8 0 1.449.575 1.449 1.284v22.148c0 .71-.648 1.284-1.449 1.284H1.45c-.8 0-1.449-.575-1.449-1.284V5.375c0-.71.649-1.284 1.449-1.284H42.55Zm0 .963H1.45c-.2 0-.363.144-.363.321v22.148c0 .177.163.321.363.321H42.55c.2 0 .363-.144.363-.32V5.374c0-.177-.163-.321-.363-.321Z"/><path fill="#000" d="M2.988 7.3H40.65v-.48H2.988v.48ZM2.988 9.95H40.65v-.482H2.988v.481ZM2.988 12.517H40.65v-.481H2.988v.481ZM2.988 15.245H40.65v-.481H2.988v.481ZM2.988 17.813H40.65v-.481H2.988v.481ZM2.988 20.542H40.65v-.482H2.988v.482ZM2.988 23.11H40.65v-.482H2.988v.482ZM2.988 25.677H40.65v-.481H2.988v.481Z"/><path fill="#fff" fill-rule="evenodd" d="M22 4.573C25.713 2.046 31.174.807 38.384.855c.497.003.898.361.898.802v21.371c0 .442-.404.801-.903.802-7.09.014-12.489 1.512-16.198 4.496 0-6.917-.181-19.08-.181-23.753Z" clip-rule="evenodd"/><path fill="#000" d="M21.67 4.19C25.49 1.59 31.066.325 38.387.374c.795.005 1.437.579 1.437 1.284v21.371c0 .708-.646 1.282-1.445 1.284-6.965.013-12.235 1.476-15.834 4.37-.349.28-.908.061-.908-.356v-.376c-.003-2.447-.025-5.56-.067-9.948l-.024-2.39c-.071-7.098-.088-8.844-.09-10.534V4.573c0-.15.078-.291.212-.382Zm16.71-2.854C31.422 1.29 26.15 2.454 22.55 4.81l-.007.003v.265c.003 1.687.02 3.433.09 10.527l.024 2.39c.039 3.99.06 6.928.066 9.27v.027l.043-.03c3.724-2.572 8.862-3.871 15.396-3.912h.216c.2 0 .361-.144.361-.321V1.657c0-.176-.16-.32-.36-.32Z"/><path fill="#fff" fill-rule="evenodd" d="M22.08 4.573C18.369 2.046 12.908.807 5.698.855c-.497.003-.899.361-.899.802v21.371c0 .442.405.801.904.802 7.089.014 12.488 1.512 16.198 4.496 0-6.917.18-19.08.18-23.753Z" clip-rule="evenodd"/><path fill="#000" d="M22.412 4.19C18.59 1.59 13.013.325 5.692.374c-.796.005-1.438.579-1.438 1.284v21.371c0 .708.647 1.282 1.445 1.284 6.965.013 12.236 1.476 15.835 4.37.349.28.908.061.908-.356v-.376c.002-2.447.024-5.56.067-9.948l.023-2.39c.072-7.098.088-8.844.09-10.534V4.573c0-.15-.078-.291-.212-.382ZM5.701 1.337c6.956-.046 12.23 1.118 15.83 3.473l.006.003v.265c-.003 1.687-.02 3.433-.091 10.527l-.024 2.39c-.038 3.99-.06 6.928-.065 9.27v.027l-.043-.03C17.59 24.69 12.453 23.39 5.92 23.35h-.216c-.2 0-.361-.144-.361-.321V1.657c0-.176.16-.32.36-.32Z"/><path fill="#000" d="M11.81 11.088c.212.027.412.084.6.172.19.088.353.201.49.338.138.138.24.297.306.479.067.181.083.377.05.586l-.091.263-.06.37a.257.257 0 0 1-.053.102.262.262 0 0 0-.054.108 2.485 2.485 0 0 0-.09.137l-.088.124a.874.874 0 0 1-.106.12.473.473 0 0 1-.098.091.98.98 0 0 1-.32.155.4.4 0 0 1-.157.015l-.116-.015a.552.552 0 0 0-.136 0 2.84 2.84 0 0 0-.255.043.26.26 0 0 1-.07.008l-.164-.02a.585.585 0 0 0-.184.003.435.435 0 0 1-.135.009l-.219-.028-.524-.065-.103-.013a1.05 1.05 0 0 0-.072.026c-.044.013-.084.018-.12.013l-.161-.083-.17-.02-.175.04a.257.257 0 0 1-.106-.05.502.502 0 0 1-.101-.09 1.381 1.381 0 0 1-.073-.012.39.39 0 0 1-.091-.028.224.224 0 0 1-.075-.055c-.022-.024-.03-.054-.023-.092.005-.03.023-.056.056-.079a.46.46 0 0 1 .108-.055c.048-.017.1-.033.157-.049l.17.021.296-.026c.03.016.06.03.086.045.05.026.093.04.13.045a.126.126 0 0 0 .1-.025.234.234 0 0 0 .062-.08.457.457 0 0 0 .035-.102l.017-.086.016-.107.038-.235a.161.161 0 0 0-.014-.07.35.35 0 0 0-.018-.043l.055-.348a.353.353 0 0 1 .042-.109.46.46 0 0 0 .049-.148l.034-.219.042-.263a.538.538 0 0 0-.014-.262c-.026-.074-.098-.118-.215-.132a.193.193 0 0 0-.063 0 1.273 1.273 0 0 0-.048.011.314.314 0 0 1-.116.006l-.163-.066-.116-.014a.223.223 0 0 1-.1-.05c-.039-.03-.057-.056-.053-.078.009-.056.05-.1.123-.133a1.13 1.13 0 0 1 .245-.076 1.68 1.68 0 0 1 .427-.03l.104.013a.15.15 0 0 1 .086.043.15.15 0 0 0 .086.042 4.202 4.202 0 0 1 .175-.03.263.263 0 0 1 .073-.002l.225.028.116.014a13.43 13.43 0 0 0 .398.01l.114.008Zm-.372.509a.263.263 0 0 0-.076.013.789.789 0 0 0-.24.119c-.034.026-.054.052-.058.078a.182.182 0 0 1 .02.031.128.128 0 0 1 .011.082l-.024.157-.05.308-.109.69-.041.263a.262.262 0 0 1 .015.1 1.165 1.165 0 0 0 0 .096c.001.03.008.058.021.083.013.024.04.043.084.056l.067.008a7.146 7.146 0 0 1 .164.003l.103.002c.033 0 .057.002.073.004a.936.936 0 0 0 .796-.279c.093-.095.168-.2.223-.315.056-.115.094-.225.115-.329a.746.746 0 0 0-.014-.304 1.655 1.655 0 0 0-.113-.343.92.92 0 0 0-.165-.255c-.06-.063-.114-.078-.16-.046a.91.91 0 0 1-.06-.053 1.488 1.488 0 0 1-.053-.04.09.09 0 0 0-.043-.023l-.054-.007-.431-.1ZM14.591 11.759c.058.007.129.018.213.032a.646.646 0 0 1 .206.067c.062.008.099.037.11.085.01.05.026.104.046.166a.714.714 0 0 1 .097.164.527.527 0 0 1 .032.095c.008.033.01.06.006.084l-.132.511a1.076 1.076 0 0 1-.131.352c-.07.125-.161.235-.273.327a.298.298 0 0 0-.087.093 8.05 8.05 0 0 0-.061.108c-.02.037-.044.075-.069.113a.542.542 0 0 1-.096.11c-.029.024-.062.053-.099.088-.037.035-.076.07-.118.107a1.033 1.033 0 0 1-.128.097.437.437 0 0 1-.132.057 3.838 3.838 0 0 0-.168.063 1.818 1.818 0 0 1-.12.044.398.398 0 0 1-.108.02.706.706 0 0 1-.115-.006.37.37 0 0 1-.167-.063.441.441 0 0 1-.122-.125.563.563 0 0 1-.072-.163.421.421 0 0 1-.01-.176l.062-.39a.095.095 0 0 0-.014-.066c-.014-.022-.014-.077 0-.166a1.09 1.09 0 0 1 .152-.396 4.407 4.407 0 0 1 .612-.816.91.91 0 0 1 .229-.194.559.559 0 0 0 .128-.076c.036-.03.071-.056.104-.08a.491.491 0 0 1 .1-.055.25.25 0 0 1 .125-.011Zm-.074.667a.343.343 0 0 0-.213.053 1.318 1.318 0 0 0-.218.157 2.365 2.365 0 0 0-.303.32l-.096.214a1.808 1.808 0 0 0-.096.243l-.017.11c.014.014.025.04.032.076a.768.768 0 0 0 .03.11c.013.037.03.071.05.101.02.03.053.048.098.054.088-.025.17-.05.246-.076.062-.024.124-.05.186-.078a.36.36 0 0 0 .13-.09c.034-.051.072-.112.114-.182l.123-.198c-.003-.032.011-.062.043-.09.031-.027.05-.054.054-.082l.026-.162a.794.794 0 0 0-.025-.261.527.527 0 0 0-.062-.147c-.027-.043-.06-.067-.102-.072Z"/><path fill="#000" d="M16.139 12.034c.045.006.078.024.098.054.02.03.039.061.055.095a.223.223 0 0 1-.006.111 1.13 1.13 0 0 1-.043.136 6.752 6.752 0 0 1-.052.13.462.462 0 0 0-.03.084l.005.095.05.124c.016.002.051-.016.105-.055.055-.038.12-.086.193-.144.074-.057.152-.12.234-.186a8.26 8.26 0 0 1 .237-.185c.077-.057.145-.105.206-.143.06-.037.103-.055.128-.051.032.004.057.026.074.068.016.041.031.084.045.13.013.052.022.112.028.18-.004.054-.02.129-.048.223a3.203 3.203 0 0 1-.108.308 39.572 39.572 0 0 1-.43.987.304.304 0 0 1-.015.054.318.318 0 0 0-.016.057.062.062 0 0 0 .009.045c.008.013.029.021.062.026L17 14.14a.993.993 0 0 1 .075-.038l.089-.042.213-.095a.353.353 0 0 1 .123-.04c.025.003.05.019.074.047.025.029.036.055.032.078a.213.213 0 0 1-.05.058 1.438 1.438 0 0 1-.24.189c-.043.026-.072.038-.088.036a.138.138 0 0 1-.048.082c-.027.024-.053.035-.078.032a1.75 1.75 0 0 0-.196.17c-.055.056-.11.107-.163.153a.616.616 0 0 1-.168.106.415.415 0 0 1-.211.021.166.166 0 0 1-.085-.04.362.362 0 0 1-.116-.182.214.214 0 0 1-.008-.087l.014-.21c.041-.101.091-.209.149-.323l.161-.322a2.63 2.63 0 0 0 .12-.245c.034-.078.06-.153.08-.225l.01-.064c.001-.11-.031-.169-.097-.177a.413.413 0 0 0-.244.031.516.516 0 0 0-.167.139c-.047.059-.09.123-.128.193-.039.07-.08.136-.123.197a.188.188 0 0 0-.05.061.147.147 0 0 0-.01.079 3.56 3.56 0 0 1-.05.135.954.954 0 0 1-.06.128 16.399 16.399 0 0 0-.353.675c.015.033.01.051-.018.054a.366.366 0 0 1-.079-.001 2.65 2.65 0 0 1-.104-.016.606.606 0 0 1-.13-.037.385.385 0 0 1-.109-.067.123.123 0 0 1-.043-.105.463.463 0 0 1 .057-.202 1.733 1.733 0 0 1 .23-.34.257.257 0 0 0 .058-.087l.016-.098.017-.11-.015-.102a.243.243 0 0 1 .039-.087 2.842 2.842 0 0 1 .138-.197.176.176 0 0 0 .036-.067l.013-.08.017-.228a.302.302 0 0 0 .002-.074c-.002-.026-.02-.04-.052-.045a.249.249 0 0 0-.086.007 1.969 1.969 0 0 0-.191.053.18.18 0 0 1-.068.01l-.05-.007c-.026-.019-.028-.05-.007-.092a.376.376 0 0 0 .038-.099c.124-.122.243-.228.356-.318.112-.09.243-.167.392-.23a2.76 2.76 0 0 1 .126-.044c.053-.017.103-.023.148-.017ZM26.929 12.449c.033.022.07.05.114.086a.19.19 0 0 0 .161.037.038.038 0 0 0 .03-.024.286.286 0 0 0 .014-.041.291.291 0 0 1 .015-.042.037.037 0 0 1 .029-.024.447.447 0 0 0 .126-.111.414.414 0 0 0 .057-.116.77.77 0 0 0 .027-.132c.005-.047.016-.1.031-.157-.007-.033-.008-.057-.002-.071a.103.103 0 0 0 0-.058 1.409 1.409 0 0 0-.072-.232.57.57 0 0 0-.169-.216 2.32 2.32 0 0 1-.063-.083.57.57 0 0 0-.074-.084.296.296 0 0 0-.092-.058.215.215 0 0 0-.118-.01.203.203 0 0 0-.065.02.098.098 0 0 0-.035.032.889.889 0 0 0-.026.041.47.47 0 0 1-.034.05.644.644 0 0 1-.085.118.531.531 0 0 0-.092.157c.005.027.007.05.005.07a.554.554 0 0 1-.011.06.54.54 0 0 0-.01.06.208.208 0 0 0 .004.07l.046.21a10.4 10.4 0 0 1 .036.07.16.16 0 0 1 .014.036.191.191 0 0 0 .032.077.16.16 0 0 1 .03.064.18.18 0 0 0 .025.063c.01.015.023.03.038.042a.817.817 0 0 0 .051.04.49.49 0 0 1 .063.056Zm-1.3 1.188a.448.448 0 0 0-.033-.099.25.25 0 0 0-.113-.119l-.088-.051a.101.101 0 0 0-.045-.062.103.103 0 0 0-.079-.018.56.56 0 0 0-.076-.01c-.014-.001-.028 0-.041.002h-.109a.346.346 0 0 0-.054.005.168.168 0 0 0-.072.038.168.168 0 0 1-.07.037 3.515 3.515 0 0 1-.07.086c-.023.029-.032.053-.028.074.011.05.023.093.036.128a.96.96 0 0 1 .036.127c.005.024.02.044.045.062a.26.26 0 0 0 .088.038.552.552 0 0 0 .198.01.305.305 0 0 0 .082-.033.324.324 0 0 1 .093-.035c.053-.033.096-.062.13-.087a.327.327 0 0 1 .137-.05l.032-.043Zm.716.71a3.461 3.461 0 0 0-.115-.104 2.21 2.21 0 0 1-.11-.1c-.02.003-.036-.007-.046-.03a.138.138 0 0 0-.047-.056l-.09-.098c-.023-.025-.055-.034-.096-.027a.398.398 0 0 0-.16.074l-.154.11c-.065.01-.114.02-.15.027a.427.427 0 0 0-.114.045c-.066.037-.117.061-.153.075a.891.891 0 0 1-.16.04.824.824 0 0 1-.112.012.375.375 0 0 1-.124-.023.466.466 0 0 1-.09-.012.24.24 0 0 1-.058-.024 1.26 1.26 0 0 1-.127-.082c-.027-.014-.045-.03-.052-.049a.337.337 0 0 1-.018-.055.262.262 0 0 1-.058-.061.277.277 0 0 1-.033-.089l-.062-.284-.004-.087a.136.136 0 0 1 .009-.096c.013-.026.03-.054.052-.086a.034.034 0 0 0 .012-.03.32.32 0 0 0-.006-.042.244.244 0 0 1-.006-.05c0-.017.003-.032.011-.046a.898.898 0 0 1 .215-.18c.084-.05.178-.104.282-.159a.228.228 0 0 0 .113-.052.295.295 0 0 1 .144-.057.36.36 0 0 1 .123-.002.36.36 0 0 0 .124-.003c.049.013.088.022.117.028.03.006.071.025.124.06a.522.522 0 0 0 .087.033c.03.008.058.018.083.03a.219.219 0 0 1 .065.041.15.15 0 0 1 .038.079c.004.015.014.024.03.027a.272.272 0 0 1 .074.033.909.909 0 0 1 .152.14c.038.046.07.066.098.062a.123.123 0 0 0 .061-.034 1.77 1.77 0 0 0 .062-.059l.06-.059a.139.139 0 0 1 .072-.035.5.5 0 0 1 .083-.068 1 1 0 0 0 .078-.055.216.216 0 0 0 .052-.054.09.09 0 0 0 .009-.069.143.143 0 0 0-.04-.074.43.43 0 0 0-.068-.053 1.295 1.295 0 0 1-.074-.051.239.239 0 0 1-.063-.07 1.064 1.064 0 0 1-.207-.255 1.032 1.032 0 0 1-.1-.274.357.357 0 0 1-.008-.109.551.551 0 0 1 .016-.095.806.806 0 0 0 .019-.086.225.225 0 0 0-.003-.083.332.332 0 0 1 .007-.188.54.54 0 0 1 .088-.153.983.983 0 0 1 .134-.136c.05-.043.1-.09.149-.141a.777.777 0 0 1 .214-.145c.037-.018.076-.034.116-.048a5.07 5.07 0 0 0 .145-.055.3.3 0 0 0 .07-.024.71.71 0 0 1 .298-.04.727.727 0 0 1 .201.058.842.842 0 0 0 .15.027.153.153 0 0 1 .106.053c.036.034.068.07.095.108a.4.4 0 0 1 .063.151c.031.032.059.062.083.092.024.03.043.075.057.138.008.038.01.072.006.102a.299.299 0 0 0 .007.103.413.413 0 0 1 .008.06.413.413 0 0 0 .008.062.165.165 0 0 1-.008.105.529.529 0 0 0-.035.11.444.444 0 0 1-.08.18 6.75 6.75 0 0 0-.135.189.341.341 0 0 1-.086.068.373.373 0 0 0-.108.108.503.503 0 0 1-.277.279.353.353 0 0 0-.077.075.41.41 0 0 1-.08.08c-.082.058-.15.103-.2.137-.05.033-.108.077-.17.13a.237.237 0 0 0-.124.11 5.7 5.7 0 0 1-.043.067.31.31 0 0 1-.07.072c-.06.029-.116.062-.168.1-.051.038-.07.086-.059.142a.23.23 0 0 0 .072.135c.035.028.082.069.144.123a.473.473 0 0 1 .068.094.417.417 0 0 0 .061.087.4.4 0 0 1 .085.047c.012.009.02.018.021.027.05.031.09.073.123.126a.674.674 0 0 0 .146.16 2.5 2.5 0 0 0 .124.19l.134.19c.03.034.042.06.039.078-.003.017.007.035.032.052.033.037.07.074.11.11.039.037.073.072.102.107a.438.438 0 0 0 .02.066c.008.02.024.037.048.052.057.097.116.183.178.257.062.074.125.144.19.212l.19.197c.064.065.129.133.194.205.034.058.09.121.165.188.077.067.163.134.259.2.04.036.082.064.127.084.044.02.092.038.144.054.05.016.104.033.16.053.055.02.116.044.182.072a5.725 5.725 0 0 0 .436.193 2.517 2.517 0 0 0 .442.122.69.69 0 0 1 .203.043c.06.024.113.044.159.06a.526.526 0 0 0 .163.049c.05.005.117.023.198.055a1.339 1.339 0 0 0 .348.03c.037.002.08.003.13.003.097.008.195.026.294.053.1.028.185.043.257.046a.3.3 0 0 0 .056.016.126.126 0 0 0 .04 0 .177.177 0 0 0 .037-.011.275.275 0 0 1 .055-.014c.068.006.141.012.218.015.076.004.16-.002.252-.018.1.002.19-.003.27-.014.08-.01.178-.026.294-.046l.28-.048a2.9 2.9 0 0 0 .542-.145c.161-.061.319-.127.473-.196.04-.026.075-.05.103-.071a.247.247 0 0 1 .11-.044c.186-.115.363-.236.532-.362.168-.126.316-.282.444-.47l.145-.22a3.952 3.952 0 0 0 .217-.371c.03-.06.058-.123.085-.192.009-.042.023-.096.044-.162a.425.425 0 0 0 .005-.22l-.054-.245-.044-.2a.356.356 0 0 0-.06-.142 1.02 1.02 0 0 0-.088-.1.93.93 0 0 1-.089-.102.371.371 0 0 1-.06-.144.2.2 0 0 1 .027-.139c.028-.05.066-.08.113-.088a.395.395 0 0 0 .13-.048.395.395 0 0 1 .13-.048c.047-.008.095-.014.141-.017a.421.421 0 0 1 .15.018.123.123 0 0 1 .061.038c.019.02.034.042.047.068l.038.079a.284.284 0 0 0 .04.064l.036.16a1.057 1.057 0 0 1 .029.24c.001.03.003.06.006.088a.725.725 0 0 0 .014.088.698.698 0 0 0 0 .166c.005.045.015.099.03.16.006.034.007.061.001.084a.267.267 0 0 1-.023.061.442.442 0 0 0-.025.055.095.095 0 0 0-.004.054 1.312 1.312 0 0 0-.007.188.216.216 0 0 1-.05.154.333.333 0 0 1-.065.152.366.366 0 0 0-.067.115 2.926 2.926 0 0 1-.387.454 1.36 1.36 0 0 0-.178.17c-.058.064-.13.125-.217.18a.58.58 0 0 1-.057.065 6.892 6.892 0 0 0-.059.056c-.06.029-.114.059-.16.09a.506.506 0 0 0-.119.11c-.112.066-.225.13-.338.195a6.1 6.1 0 0 1-.4.204.487.487 0 0 1-.187.097 1.324 1.324 0 0 0-.204.072c-.02.004-.032.014-.035.032a.237.237 0 0 1-.028.067c-.05.009-.097.018-.14.029a.184.184 0 0 0-.096.053 1.656 1.656 0 0 1-.24.074 6.252 6.252 0 0 1-.246.047l-.413.071c-.163.028-.324.054-.483.079a3.897 3.897 0 0 1-.443.043 3.624 3.624 0 0 1-.437-.014l-.443-.041a.068.068 0 0 0-.01-.022c-.01-.016-.02-.024-.03-.022a.328.328 0 0 1-.109.002.106.106 0 0 1-.042-.013.06.06 0 0 1-.054-.016c-.016-.014-.05-.026-.106-.035a18.671 18.671 0 0 0-.216-.034 1.403 1.403 0 0 1-.227-.056 6.787 6.787 0 0 1-.397-.088 3.345 3.345 0 0 1-.324-.101 4.897 4.897 0 0 1-.311-.129 32.04 32.04 0 0 1-.353-.163 4.782 4.782 0 0 1-.31-.133 1.611 1.611 0 0 1-.287-.174 7.365 7.365 0 0 1-.325-.203 1.65 1.65 0 0 1-.306-.265 4.675 4.675 0 0 0-.237-.296 40.8 40.8 0 0 0-.28-.32.471.471 0 0 1-.068-.083 3.165 3.165 0 0 1-.053-.086 1.282 1.282 0 0 0-.056-.085.558.558 0 0 0-.077-.086c-.008-.038-.02-.06-.033-.068l-.063-.03a.478.478 0 0 1-.078-.09.308.308 0 0 1-.037-.098.23.23 0 0 1-.061-.052.232.232 0 0 0-.062-.051l-.073-.066a3.644 3.644 0 0 1-.234-.274 1.531 1.531 0 0 1-.16-.249l-.06-.077Z"/><path fill="#000" d="M28.82 12.159c.03-.005.054.006.074.035.02.028.033.055.039.08a33.965 33.965 0 0 0-.06.77 6.31 6.31 0 0 0-.016.34c0 .04.001.066.004.078a.734.734 0 0 1 .01.108c.003.051.013.097.03.137.018.04.046.064.084.072.038.008.095-.022.17-.09.003-.016.02-.04.052-.07a1.26 1.26 0 0 0 .1-.114.155.155 0 0 0 .033-.085c0-.027.008-.042.021-.044-.005-.025.001-.05.02-.076.019-.025.026-.047.022-.066a.923.923 0 0 1 .028-.13c.018-.063.035-.14.054-.23a2.774 2.774 0 0 0 .078-.601c0-.056-.004-.1-.011-.135-.008-.034-.005-.061.008-.083a.148.148 0 0 1 .053-.052.259.259 0 0 1 .074-.03l.07-.014.114-.02c.04-.007.077.006.11.039a.232.232 0 0 1 .065.118 11.837 11.837 0 0 1 .012.257c.002.064.002.13 0 .197a1.485 1.485 0 0 1-.015.17c-.04.152-.078.301-.114.45a.912.912 0 0 0-.013.417.096.096 0 0 0 .031.048.169.169 0 0 0 .025.02.267.267 0 0 0 .125-.06.814.814 0 0 0 .103-.1c.029-.034.054-.065.075-.094.021-.03.037-.045.047-.047.01-.002.022.001.035.009a.597.597 0 0 1 .082.053c.003.012-.006.045-.028.098-.02.053-.046.11-.076.172a5.342 5.342 0 0 1-.142.266 4.578 4.578 0 0 0-.074.073.741.741 0 0 0-.16.232.354.354 0 0 1-.117.106.452.452 0 0 1-.14.048.13.13 0 0 1-.072-.009.27.27 0 0 1-.122-.099.162.162 0 0 1-.028-.055l-.018-.079-.01-.05.015-.118a3.68 3.68 0 0 0 .009-.103.253.253 0 0 0-.024-.147c-.01-.019-.028-.026-.055-.021-.02.003-.04.019-.062.046a.912.912 0 0 0-.063.093c-.02.034-.039.066-.056.098a.318.318 0 0 1-.043.065 1.337 1.337 0 0 1-.085.132 3.672 3.672 0 0 1-.28.348c-.046.05-.08.077-.104.08a.098.098 0 0 1-.065-.014.295.295 0 0 1-.066-.051.518.518 0 0 1-.053-.063.161.161 0 0 1-.026-.046l-.028-.13a.555.555 0 0 1-.011-.075.91.91 0 0 0-.016-.121.326.326 0 0 1-.005-.079.465.465 0 0 0-.012-.115.48.48 0 0 1-.01-.128l.006-.102.002-.183a.742.742 0 0 1 .028-.12.451.451 0 0 0-.004-.22.557.557 0 0 1-.015-.09c0-.018-.022-.024-.066-.016a.224.224 0 0 0-.06.02c-.02.01-.048.024-.082.043a.445.445 0 0 1-.071.05.203.203 0 0 1-.057.025c-.02.003-.045-.005-.073-.024a.13.13 0 0 1-.055-.084c-.008-.037-.004-.067.011-.09a.255.255 0 0 1 .062-.064c.025-.019.05-.037.073-.056a.111.111 0 0 0 .043-.062 1.41 1.41 0 0 0 .127-.159c.047-.067.097-.134.148-.2.05-.067.101-.125.15-.175.05-.05.098-.08.145-.088l.095-.016Z"/><path fill="#000" d="M30.432 11.83a.22.22 0 0 1 .162.03c.047.03.075.067.084.108l-.02.133a.142.142 0 0 1 .059.068.549.549 0 0 1 .028.217.566.566 0 0 0 .013.174l.008.035a.29.29 0 0 1 .002.11 1.703 1.703 0 0 0-.007.071l.011.05a.154.154 0 0 1-.001.083.704.704 0 0 0-.023.087.29.29 0 0 1-.018.08.158.158 0 0 0-.005.09c.002.012.01.027.02.045a.253.253 0 0 0 .107.093.12.12 0 0 0 .071.008.137.137 0 0 0 .073-.035.22.22 0 0 0 .045-.059.31.31 0 0 1 .048-.047.137.137 0 0 1 .063-.028l.101-.017c.022-.004.036.003.044.02a.334.334 0 0 1 .019.062c.002.008-.01.03-.037.061a6.059 6.059 0 0 1-.185.215 1.753 1.753 0 0 1-.068.07 2.552 2.552 0 0 1-.13.293.98.98 0 0 1-.106.16c-.04.049-.076.076-.112.082a.216.216 0 0 1-.087-.005.407.407 0 0 1-.171-.098.136.136 0 0 1-.04-.067l-.016-.072a.334.334 0 0 0-.019-.06c-.007-.018-.021-.025-.043-.021l-.018-.085.015-.132-.046-.21a.228.228 0 0 1-.002-.11.218.218 0 0 0-.001-.106l-.009-.04a.259.259 0 0 1 .005-.093 9.018 9.018 0 0 0 .045-.274.335.335 0 0 0 0-.117c-.006-.024-.023-.048-.053-.072-.03-.024-.07-.032-.124-.023a.09.09 0 0 0-.052.028c-.013.014-.058.028-.132.041a.057.057 0 0 1-.026-.018.111.111 0 0 1-.037-.064l-.015-.07c-.006-.028.017-.072.067-.135.051-.063.111-.127.18-.193.069-.065.136-.125.202-.178a.433.433 0 0 1 .13-.085Zm-.215-1.053a.304.304 0 0 0 .055-.017 8.296 8.296 0 0 1 .188-.067c.053.007.09.026.112.06a.552.552 0 0 0 .089.1.341.341 0 0 0 .023.07c.011.022.019.044.023.065a.137.137 0 0 1-.007.068.193.193 0 0 0 0 .1 1.28 1.28 0 0 1-.013.08.35.35 0 0 1-.03.091.244.244 0 0 1-.056.075.13.13 0 0 1-.09.031.395.395 0 0 1-.172-.014.335.335 0 0 1-.155-.087c-.029-.013-.044-.038-.044-.075a.49.49 0 0 0-.01-.095.36.36 0 0 1 .005-.205c.021-.056.048-.116.082-.18Z"/><path fill="#000" d="M31.1 12.357a.371.371 0 0 1-.001-.166.41.41 0 0 1 .34-.322.607.607 0 0 1 .289.03.32.32 0 0 1 .154.013.367.367 0 0 1 .118.057c.057.027.099.05.125.067a.129.129 0 0 1 .051.084c.03.038.061.074.096.107a.134.134 0 0 0 .12.037c.02-.004.031-.022.032-.057a.116.116 0 0 1 .04-.086l.08-.211a.426.426 0 0 1 .17-.195 1.37 1.37 0 0 1 .074-.094c.016-.017.043-.028.083-.035a.613.613 0 0 1 .166-.012.9.9 0 0 1 .124.027c.07.05.128.097.175.142a.306.306 0 0 1 .092.161c.01.042 0 .078-.028.107a.671.671 0 0 0-.072.092.44.44 0 0 0-.01.08c-.001.022-.003.04-.007.053a.058.058 0 0 1-.026.032.207.207 0 0 1-.07.022.162.162 0 0 1-.106-.015.687.687 0 0 1-.09-.056.822.822 0 0 0-.086-.057.137.137 0 0 0-.094-.017.22.22 0 0 0-.109.054.526.526 0 0 0-.084.093.388.388 0 0 0-.053.102.162.162 0 0 0-.01.08c.01.044.032.081.068.11.035.03.057.063.065.099l.027.125c.005.024.011.042.017.053.006.012.01.026.015.044.004.021.01.039.019.053a.199.199 0 0 1 .02.057.149.149 0 0 0 .034.073c.016.016.033.03.053.04l.06.031c.022.01.04.025.054.044a.449.449 0 0 0 .09.092c.03.023.08.039.15.048a.318.318 0 0 0 .084.005.708.708 0 0 1 .087-.001.149.149 0 0 1 .071.02c.02.012.034.034.04.067.018.081.011.153-.021.216-.033.063-.097.102-.192.119-.02.003-.033.01-.04.02-.006.011-.024.019-.053.024a.206.206 0 0 1-.07-.002.205.205 0 0 0-.07-.002.291.291 0 0 1-.225-.045.73.73 0 0 1-.095-.07 1.19 1.19 0 0 0-.108-.081.458.458 0 0 0-.074-.024c-.024-.006-.041-.034-.052-.085a.46.46 0 0 0-.047-.038.495.495 0 0 1-.037-.028.156.156 0 0 1-.028-.03.137.137 0 0 1-.018-.049.353.353 0 0 0-.042-.111c-.019-.03-.034-.043-.047-.04a.433.433 0 0 0-.068.077.704.704 0 0 0-.038.061c-.011.02-.015.037-.013.05a.898.898 0 0 0-.017.083.17.17 0 0 0 .005.048c.005.021.003.039-.006.053a.266.266 0 0 1-.032.04.792.792 0 0 0-.037.042.142.142 0 0 0-.028.05.706.706 0 0 1-.182.235.714.714 0 0 1-.325.123.13.13 0 0 1-.026.018.163.163 0 0 1-.067.026.275.275 0 0 1-.027-.01.177.177 0 0 0-.032-.003c-.014-.001-.027 0-.04.002a.22.22 0 0 1-.186-.05.297.297 0 0 1-.104-.17.278.278 0 0 1-.008-.073.138.138 0 0 1 .043-.096.633.633 0 0 0 .044-.054.357.357 0 0 0 .068-.135c.009-.04.038-.065.087-.073a.132.132 0 0 1 .094.019c.03.018.06.038.093.06a.712.712 0 0 0 .103.06c.036.017.079.02.128.012a.109.109 0 0 0 .06-.031.456.456 0 0 0 .08-.125.597.597 0 0 1 .025-.054.644.644 0 0 0 .154-.196.357.357 0 0 0 .035-.25l-.022-.103-.02-.085a.78.78 0 0 1-.016-.114c-.002-.034-.03-.058-.08-.074a2.575 2.575 0 0 1-.085-.067.402.402 0 0 0-.139-.083 1.526 1.526 0 0 0-.088-.03.36.36 0 0 0-.127-.026.987.987 0 0 0-.132.015c-.009-.007-.017-.008-.026-.002a.231.231 0 0 0-.03.026l-.034.034a.067.067 0 0 1-.037.02.15.15 0 0 1-.107-.019.125.125 0 0 1-.059-.082Z"/><path fill="#000" d="M34.11 11.372c.047-.008.105-.016.175-.025a.576.576 0 0 1 .18.002c.05-.009.086.003.109.037.023.033.05.07.084.11a.668.668 0 0 1 .176.161.175.175 0 0 1 .029.06l.047.406a.768.768 0 0 1 0 .289.81.81 0 0 1-.115.303.208.208 0 0 0-.04.089l-.016.093a1.33 1.33 0 0 1-.02.099.38.38 0 0 1-.043.103 1.535 1.535 0 0 0-.05.088l-.06.105a.726.726 0 0 1-.072.1.323.323 0 0 1-.086.074c-.044.032-.082.06-.111.084a1.38 1.38 0 0 1-.08.06.321.321 0 0 1-.078.04.596.596 0 0 1-.091.022.332.332 0 0 1-.148-.007.403.403 0 0 1-.13-.063.488.488 0 0 1-.104-.104.333.333 0 0 1-.059-.127l-.066-.3a.078.078 0 0 0-.03-.046c-.017-.013-.033-.053-.048-.122a.78.78 0 0 1 .001-.326 3.078 3.078 0 0 1 .236-.74.642.642 0 0 1 .12-.196.407.407 0 0 0 .078-.085c.02-.03.039-.058.058-.082a.358.358 0 0 1 .061-.065.202.202 0 0 1 .094-.037Zm.138.507a.268.268 0 0 0-.15.089.941.941 0 0 0-.122.165 1.653 1.653 0 0 0-.142.306l-.012.179a1.305 1.305 0 0 0-.003.2l.019.085a.12.12 0 0 1 .047.048c.015.025.034.05.055.074.02.025.044.046.068.063a.119.119 0 0 0 .092.017c.061-.039.117-.076.168-.113.042-.032.082-.065.121-.1a.255.255 0 0 0 .075-.096c.011-.046.023-.099.035-.16l.038-.174c-.012-.023-.01-.048.007-.076.016-.027.022-.051.018-.072l-.028-.126a.64.64 0 0 0-.095-.186.453.453 0 0 0-.091-.094.127.127 0 0 0-.1-.029Z"/><path fill="#000" d="M35.45 10.324a1.6 1.6 0 0 1 .087-.012.333.333 0 0 1 .081 0 .135.135 0 0 1 .067.026.11.11 0 0 1 .038.068c.004.018-.011.056-.046.114l-.114.191a3.946 3.946 0 0 0-.112.2c-.033.065-.047.112-.04.143.005.024.017.041.034.051.017.01.037.015.057.016a.706.706 0 0 0 .11-.007l.163-.028a.27.27 0 0 1 .025-.028c.022-.023.041-.035.058-.038.049-.009.088.004.118.037.029.032.049.072.059.118l.008.036.019.088c.007.033-.007.063-.042.088a.543.543 0 0 1-.121.063 1.133 1.133 0 0 1-.3.069c-.007-.004-.02-.004-.04 0l-.099.016a.2.2 0 0 0-.077.042c-.032.025-.046.05-.04.074a.733.733 0 0 1 .02.158l.002.062a.68.68 0 0 1-.018.055.171.171 0 0 0-.008.082l.011.05c.012.053.016.11.013.175-.003.063-.01.103-.02.117a.284.284 0 0 0-.03.05c-.007.016-.004.053.009.11l.02.092c.004.019.012.04.024.065a.21.21 0 0 0 .05.065.265.265 0 0 0 .072.045.163.163 0 0 0 .093.008.175.175 0 0 0 .101-.05.347.347 0 0 0 .033-.04.091.091 0 0 1 .066.01.573.573 0 0 1 .051.037.326.326 0 0 1 .049.058.22.22 0 0 1-.011.102.816.816 0 0 1-.122.247c-.027.034-.051.054-.074.058-.023.003-.042.025-.055.064-.014.038-.019.065-.016.08a.29.29 0 0 0-.052.02l-.075.031c-.03.015-.061.028-.093.04a.596.596 0 0 1-.102.01c-.026 0-.041-.012-.047-.037a.22.22 0 0 1-.059-.058 2.133 2.133 0 0 1-.167-.243.375.375 0 0 1-.043-.09l-.048-.215a.642.642 0 0 1-.006-.087 5.2 5.2 0 0 1-.003-.152c0-.055-.002-.11-.005-.165a.922.922 0 0 0-.017-.133l-.017-.078a5.18 5.18 0 0 1 .033-.2c.006-.053.012-.1.02-.144a.402.402 0 0 0 .009-.076l-.032-.142c-.008-.04-.027-.062-.055-.066a1.148 1.148 0 0 0-.074-.035.075.075 0 0 1-.048-.054.096.096 0 0 1 .01-.061.54.54 0 0 1 .04-.071c.017-.025.034-.051.05-.078a.405.405 0 0 0 .037-.075c.013-.05.029-.082.048-.096a.572.572 0 0 0 .062-.056c.032-.053.07-.1.112-.139a.446.446 0 0 0 .107-.165.553.553 0 0 0 .03-.139.163.163 0 0 1 .067-.116c.04-.02.073-.05.098-.09.025-.041.047-.063.067-.067Z"/><path fill="#000" d="M36.526 10.958a.42.42 0 0 1 .182.003.33.33 0 0 1 .136.073c.038.034.069.075.093.124a.551.551 0 0 1 .05.16.228.228 0 0 1-.055.213c-.055.06-.112.115-.173.163-.054.05-.113.096-.177.138a1.58 1.58 0 0 0-.175.133.572.572 0 0 0-.124.153.292.292 0 0 0-.026.196l.041.19c.005.051.028.1.068.144.04.045.083.063.13.055.003.003.015-.004.036-.02a1.54 1.54 0 0 0 .139-.122 2.9 2.9 0 0 0 .052-.052c.045-.029.08-.053.105-.071.024-.019.044-.026.058-.022a.175.175 0 0 1 .061-.001c.018.003.031.024.04.063a.328.328 0 0 1-.052.208c-.042.071-.09.139-.144.202a1.94 1.94 0 0 1-.161.17.939.939 0 0 0-.105.108.274.274 0 0 1-.139.099 2.322 2.322 0 0 1-.144.03.212.212 0 0 1-.099-.021.457.457 0 0 1-.175-.138.149.149 0 0 1-.032-.074l-.017-.077a.152.152 0 0 0-.034-.064.323.323 0 0 0-.027-.029l-.005-.092-.016-.072a5.152 5.152 0 0 1-.024-.274 15.492 15.492 0 0 0-.019-.294c.012-.012.016-.022.014-.03a.082.082 0 0 0-.01-.027.109.109 0 0 1-.013-.033c-.003-.014 0-.03.01-.05a.29.29 0 0 1 0-.118l.015-.068.036-.16a.365.365 0 0 1 .058-.223 1.23 1.23 0 0 1 .405-.411.497.497 0 0 1 .217-.082Zm-.147.376c-.017.003-.03.017-.042.042a1.023 1.023 0 0 0-.033.083c-.009.036-.018.073-.026.112a.499.499 0 0 1-.004.055.442.442 0 0 0-.003.056c0 .017.005.03.014.04.01.01.023.012.043.009a.179.179 0 0 0 .072-.022.49.49 0 0 0 .17-.14.129.129 0 0 0 .03-.09l-.018-.077a.067.067 0 0 0-.023-.038.105.105 0 0 0-.04-.022.195.195 0 0 0-.055-.014l-.085.006ZM13.071 4.332c1.65 0 3.657.668 6.029 1.997l-.29.407C16.517 5.452 14.6 4.813 13.07 4.813v-.481ZM7.56 20.627c3.225-.2 5.464-.05 6.736.466l-.226.438c-1.167-.473-3.331-.619-6.471-.423l-.038-.48ZM36.843 18.67l.058.479c-2.732.258-4.872.553-6.417.885l-.128-.468c1.572-.337 3.734-.636 6.487-.896ZM7.096 6.82c2.25.06 3.93.297 5.048.715l-.211.443c-1.045-.39-2.665-.618-4.854-.677l.017-.481ZM16.013 18.669c.905 0 2.387.473 4.48 1.417l-.246.43c-2.02-.912-3.442-1.366-4.234-1.366v-.481ZM29.786 4.545c-.905 0-2.388.474-4.48 1.418l.246.429c2.02-.911 3.442-1.365 4.234-1.365v-.482ZM36.848 6.471c-.864 0-2.25.117-4.165.35l.074.478c1.892-.231 3.258-.346 4.09-.346V6.47Z"/></svg>