<svg xmlns="http://www.w3.org/2000/svg" width="43" height="34" fill="none"><path fill="#fff" d="m26.161 23.674-4.46 7.72-7.171-4.138 4.46-7.72 7.171 4.138Z"/><path fill="#000" d="m26.161 23.674-4.46 7.72-7.171-4.138 4.46-7.72 7.171 4.138Zm-1.305.35-5.517-3.184-3.504 6.066 5.516 3.183 3.505-6.066Z"/><path fill="#fff" fill-rule="evenodd" d="m29.365 8.176 1.42.811-7.076 12.341-1.572-.99 7.228-12.162Z" clip-rule="evenodd"/><path fill="#000" d="m30.052 8.183-7.485 12.958-.827-.477 7.485-12.958.827.477ZM31.432 8.979l-7.486 12.958-.827-.478 7.485-12.957.828.477Z"/><path fill="#fff" d="M34.662 4.502c.609.351.818 1.13.466 1.739l-.956 1.654a3.186 3.186 0 0 1-4.351 1.166 3.182 3.182 0 0 1-1.165-4.349l.955-1.654a1.275 1.275 0 0 1 1.74-.466l3.31 1.91Z"/><path fill="#000" d="M34.662 4.502c.609.351.818 1.13.466 1.739l-.956 1.654a3.186 3.186 0 0 1-4.351 1.166 3.182 3.182 0 0 1-1.165-4.349l.955-1.654a1.275 1.275 0 0 1 1.74-.466l3.31 1.91Zm-.478.827-3.31-1.91a.319.319 0 0 0-.435.117l-.956 1.654a2.228 2.228 0 0 0 .816 3.044 2.23 2.23 0 0 0 3.046-.816l.955-1.654a.318.318 0 0 0-.116-.435Z"/><path fill="#fff" fill-rule="evenodd" d="m21.652 20.337 2.483 1.433-.956 1.654a1.434 1.434 0 0 1-2.482-1.432l.956-1.655Z" clip-rule="evenodd"/><path fill="#000" d="m24.788 21.595-1.195 2.068a1.91 1.91 0 1 1-3.31-1.91l1.195-2.068 3.31 1.91Zm-1.306.35-1.655-.955-.717 1.24a.955.955 0 0 0 .32 1.287l.03.018a.956.956 0 0 0 1.305-.35l.717-1.24Z"/><path fill="#fff" fill-rule="evenodd" d="M11.944 25.11a7.245 7.245 0 0 1 6.324 3.704 5.791 5.791 0 0 1 3.869-1.475c1.903 0 3.593.914 4.653 2.327a4.698 4.698 0 0 1 7.312 1.3 2.786 2.786 0 0 1 4.518 2.262H4.75a7.244 7.244 0 0 1 7.194-8.118Z" clip-rule="evenodd"/><path fill="#000" d="M11.944 24.633a7.72 7.72 0 0 1 6.438 3.452l.008.013.04-.028a6.265 6.265 0 0 1 3.617-1.208h.09c1.834 0 3.536.79 4.717 2.127l.004.004.061-.045a5.155 5.155 0 0 1 2.937-.971l.085-.001c1.744 0 3.334.87 4.284 2.268l.031.047.034-.018c.447-.24.948-.375 1.469-.386l.074-.001a3.264 3.264 0 0 1 3.264 3.356.478.478 0 0 1-.478.464H4.751a.478.478 0 0 1-.475-.42 7.722 7.722 0 0 1 7.668-8.653Zm0 .955a6.767 6.767 0 0 0-6.763 7.04l.007.123h32.92l-.008-.043a2.31 2.31 0 0 0-2.217-1.866l-.05-.001c-.529 0-1.03.178-1.434.5a.478.478 0 0 1-.72-.152 4.22 4.22 0 0 0-6.569-1.169.478.478 0 0 1-.702-.067 5.326 5.326 0 0 0-4.271-2.136c-1.329 0-2.58.486-3.551 1.353a.478.478 0 0 1-.735-.123 6.766 6.766 0 0 0-5.907-3.459ZM11.387 18.293l2.47 2.343-.659.692-2.469-2.343.658-.692ZM16.52 14.857l1.51 3.211-.864.406-1.511-3.21.865-.407ZM31.936 24.351l.133.946-3.172.446-.133-.946 3.172-.446ZM30.756 19.775l.435.85-2.743 1.403-.435-.85 2.743-1.403Z"/><path fill="#000" d="M43 32.83v.956H0v-.955h43ZM8.729 28.322c1.169-.96 2.614-1.452 4.316-1.217l-.13.946c-1.418-.196-2.604.209-3.58 1.01a5.158 5.158 0 0 0-.91.968l-.05.076-.816-.497c.055-.09.156-.235.303-.416.241-.297.53-.593.867-.87ZM30.103 29.543c1.141.16 1.978.633 2.466 1.426l-.814.5c-.326-.529-.906-.858-1.784-.98l.132-.946Z"/></svg>