<svg xmlns="http://www.w3.org/2000/svg" width="40" height="43" fill="none"><path fill="#000" d="M31.253 32.635a2.392 2.392 0 1 0 0-4.784 2.392 2.392 0 0 0 0 4.784ZM17.5 32.635a2.392 2.392 0 1 0 0-4.784 2.392 2.392 0 0 0 0 4.784ZM28.909 39.534l1.124 1.398c-1.677 1.349-3.388 2.04-5.12 2.04-1.731 0-3.442-.691-5.12-2.04l1.125-1.398c1.377 1.108 2.705 1.645 3.995 1.645 1.291 0 2.619-.537 3.996-1.645Z"/><path fill="#fff" fill-rule="evenodd" d="M9.544 22.236c4.423-1.805 9.147-2.708 14.172-2.708s9.686.668 13.984 2.005l1.38-5.174c.422-1.584-5.073-7.395-7.341-9.569C29.47 4.616 25.334.897 22.855.897c-1.653 0-2.21.904-1.672 2.712-5.269 3.343-8.562 5.57-9.879 6.682-1.976 1.666-3.397 3.896-3.397 5.322 0 .95.788 2.087 2.364 3.408-.789.34-1.255.844-1.398 1.511-.143.668.08 1.235.671 1.704Z" clip-rule="evenodd"/><path fill="#000" d="M22.855 0c2.375 0 5.514 2.317 9.504 6.143a68.709 68.709 0 0 1 4.748 5.078c2.113 2.531 3.147 4.218 2.84 5.369l-1.38 5.175-.242.902-.892-.277c-4.209-1.31-8.78-1.965-13.717-1.965-4.91 0-9.519.88-13.833 2.642l-.485.198-.411-.326c-.85-.675-1.208-1.583-.991-2.595.114-.533.368-.992.745-1.372l.067-.065-.05-.05c-1.12-1.113-1.716-2.15-1.747-3.16l-.001-.084c0-1.745 1.56-4.19 3.716-6.008 1.311-1.106 4.437-3.228 9.416-6.397l.022-.014-.008-.051c-.312-1.904.62-3.107 2.608-3.142l.09-.001Zm0 1.794c-1.01 0-1.19.291-.812 1.56l.194.65-.573.363c-5.232 3.32-8.507 5.534-9.782 6.61-1.792 1.51-3.078 3.527-3.078 4.636 0 .614.652 1.555 2.043 2.72l1.115.936-1.336.576c-.538.232-.799.514-.876.875a.689.689 0 0 0 .026.43l.011.024.272-.104c4.19-1.59 8.636-2.403 13.336-2.438l.321-.001c4.739 0 9.166.585 13.282 1.757l.073.021.012-.04c.494-1.854.864-3.238 1.107-4.154l.024-.087c.074-.28-.88-1.835-2.484-3.758a66.956 66.956 0 0 0-4.612-4.932c-3.564-3.416-6.581-5.644-8.263-5.644Z"/><path fill="#000" d="M21.449 15.467a.897.897 0 0 1 .084 1.792c-3.214.152-6.86 1.017-10.937 2.598a.897.897 0 0 1-.65-1.672c4.246-1.648 8.079-2.555 11.503-2.718ZM8.453 12.25c3.494-2.098 7.153-3.076 10.959-2.925a.897.897 0 0 1-.072 1.793c-3.449-.138-6.763.749-9.963 2.67a.897.897 0 0 1-.924-1.537Z"/><path fill="#fff" d="M6.437 32.387c.877.235 2.16-1.708 2.865-4.34.705-2.631.566-4.956-.312-5.19-.877-.236-2.16 1.707-2.865 4.339-.705 2.632-.566 4.956.312 5.19Z"/><path fill="#000" d="M9.222 21.99c1.614.432 1.78 3.181.946 6.29-.832 3.107-2.35 5.405-3.963 4.973-1.614-.432-1.779-3.181-.946-6.29.833-3.107 2.35-5.405 3.963-4.973Zm-.5 1.865-.04.038a3.364 3.364 0 0 0-.44.552c-.477.723-.93 1.79-1.25 2.983-.32 1.193-.461 2.344-.41 3.208.018.284.055.52.106.699l.016.053.041-.038c.118-.114.25-.274.388-.475l.052-.077c.477-.722.93-1.79 1.25-2.983.32-1.193.461-2.344.41-3.208a3.363 3.363 0 0 0-.106-.699l-.016-.053Z"/><path fill="#fff" d="M2.431 29.316c.642.642 2.725-.399 4.651-2.325 1.927-1.927 2.968-4.01 2.326-4.652-.642-.642-2.725.4-4.651 2.326-1.927 1.927-2.968 4.009-2.326 4.651Z"/><path fill="#000" d="M10.042 21.705c1.181 1.181-.05 3.645-2.325 5.92C5.44 29.9 2.978 31.13 1.797 29.95c-1.181-1.181.05-3.644 2.326-5.92 2.275-2.274 4.738-3.506 5.92-2.325ZM8.677 23.07l-.054.013c-.18.045-.404.131-.658.258-.774.387-1.7 1.085-2.574 1.958-.873.873-1.57 1.8-1.958 2.574a3.36 3.36 0 0 0-.258.658l-.013.054.055-.013c.16-.04.354-.112.574-.217l.083-.04c.774-.388 1.7-1.085 2.574-1.959.874-.873 1.571-1.8 1.958-2.574.127-.254.213-.478.258-.657l.013-.055Z"/></svg>