<svg xmlns="http://www.w3.org/2000/svg" width="191" height="166" fill="none"><g><path fill="#EACD7D" d="M178.889 40.626c5.799-1.051 12.304 2.788 11.662 12.226-.92 13.492-12.968 12.162-17.333 10.039-4.386-2.124-5.735 1.115-14.123 7.486-1.711-6.5-1.647-8.58-7.66-13.256 0-.408 0-.858-.022-1.352-.128-1.587-.192-3.41-.449-5.169 1.584-1.587 8.773-4.933 7.425-11.347-1.348-6.435.45-10.703 8.538-11.754 8.089-1.051 11.448 3.41 11.962 13.106v.021Z"/><path fill="#E0C47E" d="M168.596 146.073s.129 10.146-8.645 12.398c-8.752 2.252-8.859-6.199-12.239-11.604-3.36-5.384-21.827-19.884-27.476-22.78 3.167-3.84 6.463-7.722 8.495-9.974 1.049-1.159 1.413-2.596 1.348-4.269 2.269 1.888 5.393 4.355 8.709 6.864a180.566 180.566 0 0 0 6.698 4.848c3.895 2.681 7.468 4.869 9.608 5.62 5.157 1.801 10.1.557 14.486-1.244 4.366-1.802 9.886 6.091 9.202 12.054-.471 4.312-5.307 7.872-10.229 8.087h.043Z"/><path fill="#0030AE" d="M150.493 101.5a19.73 19.73 0 0 0-1.99-3.26c-2.995-3.925-5.178-6.07-6.569-8.473-1.327-2.295-1.926-4.783-1.797-9.223 1.562-5.427 1.39-12.398.92-17.653.47.085.984.085 1.54 0 4.194-.665 7.254-1.116 8.367-3.604.278-.58.449-1.308.471-2.166 6.013 4.676 5.948 6.756 7.66 13.256a86.438 86.438 0 0 0 1.541 5.34c3.595 11.047 3.146 10.597 0 21.407-3.146 10.79-5.628 23.638-5.628 23.638s-.513-11.304-4.515-19.262Z"/><path fill="#0030AE" d="M150.493 101.5c4.002 7.958 4.515 19.262 4.515 19.262s-3.787 2.725-9.479.794a179.415 179.415 0 0 1-6.698-4.848c9.822-1.372 11.577-6.842 11.662-15.208ZM151.413 55.77c.043.493.043.944.022 1.351-.022.858-.193 1.587-.471 2.166-4.494.687-8.538.665-14.294-5.92 0-1.608.171-3.26.449-4.783 2.076 1.158 2.718-.257 3.873-4.011 7.404-2.51 9.33 1.48 9.972 6.027.257 1.76.321 3.582.449 5.17Z"/><path fill="#0030AE" d="M136.67 53.367c5.756 6.585 9.8 6.607 14.294 5.92-1.113 2.489-4.173 2.939-8.367 3.604a4.631 4.631 0 0 1-1.54 0c-3.21-.558-4.408-4.89-4.387-9.524Z"/><path fill="#002179" d="M142.597 35.757s-.449 5.04-1.604 8.816c-1.156 3.753-1.798 5.17-3.874 4.01-2.054-1.157-25.335-8.15-38.859-8.043 12.497-2.51 27.197-4.333 44.337-4.783Z"/><path fill="#F8E3AF" d="M141.057 62.891c.47 5.255.642 12.226-.92 17.632-.6 2.08-1.456 3.925-2.654 5.34-1.07-1.608-2.568-3.989-3.744-5.598 10.142-11.947-11.491-34.641-23.624-27.284a371.326 371.326 0 0 0-12.646-12.29c.256-.044.513-.086.791-.15 13.524-.108 36.805 6.885 38.859 8.043a29.2 29.2 0 0 0-.449 4.783c-.021 4.633 1.177 8.966 4.387 9.524Z"/><path fill="#0030AE" d="M140.137 80.544c-.129 4.44.47 6.928 1.797 9.223-1.519 7.272-6.805 15.787-6.805 15.787s-5.157-11.025-5.05-16.688a8.487 8.487 0 0 0 1.477 0c2.568-.171 4.494-1.287 5.927-3.002 1.199-1.416 2.054-3.26 2.654-5.32ZM47.418 50.815c-1.754-9.781-1.07-20.013-1.07-20.013.77-.343 1.563-.686 2.333-1.008a155.999 155.999 0 0 1 5.649-2.295s.064 0 .086-.043c33.017-12.784 64.387-14.414 73.417-14.629 1.69-.043 2.589 0 2.589 0 7.596 7.53 12.175 22.952 12.175 22.952-17.14.45-31.84 2.273-44.337 4.783-.278.064-.535.107-.791.15a241.92 241.92 0 0 0-8.046 1.823c-19.28 4.74-32.354 10.961-40.164 15.358-.792-2.21-1.391-4.611-1.84-7.057v-.021Z"/><path fill="#28211F" d="M110.115 52.981c12.133-7.357 33.766 15.337 23.624 27.284 1.176 1.609 2.674 3.99 3.744 5.599-1.433 1.716-3.359 2.831-5.927 3.003a125.312 125.312 0 0 0-3.295-4.655c-13.717 5.749-25.828-15.68-22.469-25.976-7.874-8.065-14.465-14.028-16.37-15.722a241.662 241.662 0 0 1 8.047-1.824 371.326 371.326 0 0 1 12.646 12.291Z"/><path fill="#F8E3AF" d="M69.03 88.502c-.449.107-.92.236-1.39.365-8.217 2.166-12.005-2.231-14.83-7.572-.791-1.523-1.519-3.132-2.246-4.676-1.455-3.11-1.348-12.613-1.305-18.747 7.81-4.398 20.884-10.618 40.164-15.358 1.904 1.694 8.495 7.657 16.369 15.722-3.359 10.296 8.752 31.725 22.469 25.976a125.312 125.312 0 0 1 3.295 4.655 8.487 8.487 0 0 1-1.477 0 81.758 81.758 0 0 1-4.985-.494c-3.103-.386-5.371-.858-6.933-1.008-2.376-.236-3.124.258-2.675 2.767.685 3.797 1.134 6.65.62 10.94-1.39-1.78-2.739 1.565-2.739 1.565-1.455-1.801-3.145.558-3.145.558-.792-1.694-2.696.965-2.696.965-1.798-2.531-4.151.73-4.151.73-3.146-3.282-5.97 0-5.97 0s-2.91-3.153-4.922 0c0 0-2.375-3.733-4.28 0 0 0-1.455-3.604-3.595-1.48 0 0-2.011-2.746-3.145-.687 0 0-1.712-2.381-2.504 0-.428-3.732-.749-9.395 1.498-13.835 1.648-3.26.706-3.732-2.332-3.003-2.097.493-5.157 1.545-9.073 2.638l-.022-.021Zm33.424 3.54c1.798-.794 2.012-3.411 0-10.104-2.032-6.67-2.482-10.939-6.526-10.274-3.595.6-3.638 13.92-4.857 17.203-1.199 3.303 3.958 4.654 4.857 1.05.899-3.603 2.204-3.002 2.332-1.05.15 1.952 2.397 3.968 4.194 3.174ZM79.623 78.312c6.654-4.847 7.917-6.864 7.874-11.09-.107-8.622-9.586-13.813-19.943-6.949-6.869 4.547-9.308 11.068-5.328 16.731 3.98 5.684 10.72 6.135 17.397 1.308Z"/><path fill="#EACD7D" d="M99.694 135.841c-2.183 1.673-6.141 3.883-9.608 1.137-3.06-2.445-9.372-6.928-14.55-11.025-3.381-2.638-6.27-5.127-7.447-6.778-1.37-1.866-1.198-5.77-.642-10.618.685-5.92 1.926-13.256 1.584-20.055 3.915-1.094 6.975-2.145 9.072-2.639-4.515 10.682-4.964 26.898 2.226 29.387.898 2.402 2.717 1.458 2.717 1.458.92 1.931 2.525 1.094 2.525 1.094 1.348 1.78 3.296.343 3.296.343 1.604 2.274 4.13.236 4.13.236 1.84 2.467 4.621.343 4.621.343s2.076 2.038 4.644-.171c0 0 1.84 1.351 3.188-.408 0 0 2.354.923 3.124-1.029 0 0 1.862 1.523 2.953-1.008 0 0 2.932 1.544 3.381-1.438 4.922-2.702 5.735-16.988 3.253-27.305 1.562.15 3.83.622 6.933 1.008.706 9.137 4.814 16.409 4.985 21.471.065 1.673-.299 3.11-1.348 4.269-2.032 2.252-5.328 6.134-8.495 9.974-3.488 4.225-6.826 8.344-8.131 10.06-2.461 3.282-8.88 5.834-12.411 1.694Z"/><path fill="#0030AE" d="M118.631 2.981s6.035 4.162 9.202 9.846c-9.03.214-40.4 1.845-73.417 14.629C80.457 15.036 99.608 8.45 109.922 5.362c5.692-1.737 8.709-2.38 8.709-2.38Z"/><path fill="#28211F" d="M118.161 87.365c2.482 10.318 1.669 24.603-3.253 27.306 0 0 1.22-4.354-.406-7.615.321-.193.642-.643.856-1.609.363-1.63.599-3.067.748-4.375.514-4.29.065-7.143-.62-10.94-.449-2.51.299-3.003 2.675-2.767Z"/><path fill="#EACD7D" d="M116.085 101.072a41.817 41.817 0 0 1-.749 4.375c-.214.966-.535 1.416-.856 1.609-.471.279-.941-.043-.941-.043.042-1.995-.214-4.376-.214-4.376s1.348-3.346 2.739-1.565h.021Z"/><path fill="#E0C47E" d="M114.502 107.056c1.626 3.26.406 7.615.406 7.615-.449 2.981-3.381 1.437-3.381 1.437s1.049-3.582 0-7.679c.492.15 1.284.043 2.033-1.416 0 0 .471.322.942.043Z"/><path fill="#EACD7D" d="M113.346 102.637s.257 2.381.214 4.376c-.749 1.459-1.541 1.566-2.033 1.416-.342-.086-.535-.279-.535-.279-.043-1.973-.791-4.955-.791-4.955s1.69-2.359 3.145-.558Z"/><path fill="#E0C47E" d="M111.527 108.429c1.049 4.097 0 7.679 0 7.679-1.091 2.531-2.953 1.008-2.953 1.008s.813-4.547 0-7.379c.599.065 1.498-.171 2.418-1.587 0 0 .193.193.535.279Z"/><path fill="#EACD7D" d="M110.201 103.195s.748 2.982.791 4.955c-.92 1.416-1.819 1.652-2.418 1.587a1.647 1.647 0 0 1-.727-.236c.021-2.231-.343-5.341-.343-5.341s1.905-2.66 2.697-.965Z"/><path fill="#EACD7D" d="M108.574 109.737c.813 2.831 0 7.379 0 7.379-.77 1.952-3.124 1.029-3.124 1.029s.77-4.912 0-6.671c.749-.278 1.562-.858 2.397-1.973 0 0 .278.193.727.236Z"/><path fill="#F8E3AF" d="M107.504 104.16s.364 3.111.343 5.341c-.835 1.116-1.648 1.695-2.397 1.952-1.455.537-2.546-.15-2.546-.15.556-2.617.449-6.413.449-6.413s2.354-3.261 4.151-.73Z"/><path fill="#EACD7D" d="M105.45 111.474c.77 1.759 0 6.671 0 6.671-1.348 1.759-3.188.408-3.188.408s.406-4.934 0-6.843c.214-.128.428-.257.642-.407 0 0 1.091.686 2.546.15v.021Z"/><path fill="#0030AE" d="M109.922 5.362c-10.313 3.09-29.465 9.674-55.506 22.094-.022.021-.065.021-.086.043-1.883.729-3.766 1.48-5.65 2.295 5.693-10.146 7.726-15.273 9.737-16.988C60.45 11.09 89.187.279 89.187.279s14.059.686 20.735 5.083Z"/><path fill="#F8E3AF" d="M97.618 111.453c-.15-.086-.235-.15-.235-.15v-6.414s2.825-3.282 5.97 0c0 0 .107 3.797-.449 6.414-.214.15-.428.279-.642.407-2.012 1.051-3.98.129-4.644-.257Z"/><path fill="#28211F" d="M102.454 81.938c2.012 6.692 1.798 9.31 0 10.103-1.797.794-4.044-1.223-4.194-3.174-.128-1.953-1.433-2.553-2.332 1.05-.899 3.604-6.056 2.253-4.857-1.05 1.22-3.282 1.262-16.603 4.857-17.203 4.044-.665 4.494 3.603 6.526 10.274Z"/><path fill="#EACD7D" d="M102.262 111.711c.406 1.909 0 6.842 0 6.842-2.568 2.209-4.644.172-4.644.172v-7.272c.664.386 2.632 1.309 4.644.258ZM97.618 111.453v7.271s-2.781 2.124-4.622-.343c0 0-.428-2.917.15-6.928 2.61 1.694 4.237-.15 4.237-.15s.086.064.235.15Z"/><path fill="#F8E3AF" d="M93.146 111.453c-.128-.085-.235-.171-.364-.257-.278-1.566-.32-6.306-.32-6.306 2.01-3.153 4.921 0 4.921 0v6.413s-1.626 1.845-4.237.15Z"/><path fill="#EACD7D" d="M92.782 111.196c.129.086.236.171.364.257-.578 4.011-.15 6.928-.15 6.928s-2.524 2.038-4.13-.235c0 0-.427-3.518.578-6.714 2.097 1.115 3.338-.236 3.338-.236Z"/><path fill="#F8E3AF" d="M92.461 104.889s.043 4.741.321 6.306c0 0-1.24 1.352-3.338.236-.32-.15-.663-.386-1.027-.686-.535-2.338-.235-5.856-.235-5.856 1.904-3.732 4.28 0 4.28 0Z"/><path fill="#EACD7D" d="M89.444 111.432c-1.005 3.196-.577 6.713-.577 6.713s-1.948 1.437-3.296-.343c0 0 .043-3.775.193-6.606 1.284.407 2.653-.451 2.653-.451.364.3.706.536 1.027.687Z"/><path fill="#EACD7D" d="M88.182 104.889s-.3 3.518.235 5.856c0 0-1.37.858-2.653.45-.75-.257-1.434-.922-1.84-2.38-.321-2.81.663-5.406.663-5.406 2.14-2.123 3.595 1.48 3.595 1.48Z"/><path fill="#28211F" d="M87.497 67.224c.043 4.225-1.22 6.241-7.874 11.089-6.677 4.826-13.417 4.376-17.397-1.308-3.98-5.663-1.54-12.184 5.328-16.731 10.357-6.864 19.836-1.673 19.943 6.95Z"/><path fill="#E0C47E" d="M85.764 111.196c-.15 2.831-.193 6.606-.193 6.606s-1.605.837-2.525-1.094c0 0-1.027-3.625 0-7.486.514-.128.878-.407.878-.407.406 1.459 1.09 2.123 1.84 2.381Z"/><path fill="#EACD7D" d="M84.587 103.409s-.984 2.596-.663 5.406c0 0-.364.278-.878.407-.535.15-1.262.086-1.797-.729-.214-2.317.192-5.77.192-5.77 1.135-2.059 3.146.686 3.146.686Z"/><path fill="#E0C47E" d="M81.249 108.493c.535.815 1.262.88 1.797.729-1.027 3.861 0 7.486 0 7.486s-1.819.944-2.717-1.458c0 0-.792-3.196 0-6.457.492.387.92-.3.92-.3Z"/><path fill="#EACD7D" d="M81.441 102.723s-.406 3.454-.192 5.77c0 0-.428.687-.92.301-.364-.258-.77-1.137-1.027-3.347-.086-.665-.214-1.608-.364-2.724.791-2.381 2.503 0 2.503 0Z"/><path fill="#28211F" d="M78.103 85.863c3.039-.729 3.98-.257 2.333 3.003-2.247 4.44-1.926 10.103-1.498 13.835.15 1.137.278 2.081.364 2.746.256 2.209.663 3.089 1.027 3.346-.792 3.26 0 6.456 0 6.456-7.19-2.488-6.74-18.704-2.226-29.386Z"/><path fill="#E0C47E" d="M25.742 151.5c-8.41 3.475-18.21-6.306-11.683-17.117 6.505-10.811 16.626-9.459 23.388-5.298 14.165-10.532 30-20.527 30-20.527-.556 4.847-.728 8.751.642 10.617 1.177 1.652 4.066 4.14 7.447 6.778 0 0-14.487 10.79-26.299 20.313 1.712 2.531 5.478 20.313-10.464 19.305C22.81 164.563 25.742 151.5 25.742 151.5Z"/><path fill="#EACD7D" d="M14.273 43.286c-1.67-6.52 0-11.583 7.874-13.492C30 27.906 30.9 36.314 32.803 40.476c1.926 4.161 7.083 5.298 14.615 10.339.45 2.445 1.049 4.847 1.84 7.057-.042 6.134-.15 15.637 1.306 18.747.727 1.544 1.455 3.153 2.247 4.676-5.82-4.333-23.153-20.656-28.203-17.739-5.05 2.939-11.555 6.092-16.626 2.488-5.05-3.603-10.1-7.55-6.27-14.07 3.809-6.543 12.56-8.688 12.56-8.688Z"/><path fill="#002179" d="M149.274 61.668c1.476 1.523 2.246 3.239 2.995 5.02.706 1.78 1.22 3.624 1.627 5.469.813 3.71 1.177 7.486 1.326 11.261-.342-3.754-.877-7.507-1.84-11.132a37.776 37.776 0 0 0-1.84-5.299c-.771-1.651-1.712-3.389-2.953-4.525l.685-.816v.022ZM146.042 62.762c.985 1.866 1.541 3.69 2.055 5.577a47.477 47.477 0 0 1 1.112 5.684c.514 3.818.621 7.658.428 11.455-.171-3.797-.642-7.594-1.497-11.262a46.119 46.119 0 0 0-1.584-5.405c-.642-1.716-1.412-3.496-2.332-4.912l1.818-1.137ZM150.536 100.707c1.519 2.874 2.482 6.006 3.21 9.159a65.05 65.05 0 0 1 1.498 10.939h-.428c-1.734-3.517-3.039-6.906-4.366-10.167-.278-.622-.535-1.265-.791-1.887l.877-8.044ZM141.699 116.172c2.867 1.652 5.692 3.303 8.516 4.89.578.322 1.177.622 1.755.923l-7.126-.494c-2.225-1.544-4.386-3.153-6.548-4.783l3.381-.515.022-.021Z"/><path fill="#002179" d="M155.051 120.848c-1.391.901-3.017 1.373-4.665 1.523-1.647.107-3.316-.172-4.857-.708l.043-.107c.898-.107 1.69-.086 2.482-.129.77-.043 1.541 0 2.268-.129.749 0 1.498-.128 2.268-.214.771-.086 1.541-.215 2.418-.343l.065.086-.022.021ZM150.557 101.522c0 1.802-.085 3.625-.385 5.427-.299 1.78-.856 3.582-1.883 5.083-1.027 1.523-2.546 2.66-4.194 3.389-1.669.751-3.445 1.137-5.242 1.373v-.107c1.712-.622 3.402-1.201 4.9-2.038 1.476-.836 2.803-1.844 3.659-3.239.984-1.308 1.498-2.938 1.947-4.633.45-1.694.706-3.475 1.113-5.277h.107l-.022.022Z"/><path fill="#FCEAAD" d="M115.464 105.533c-.107.451-.235.944-.534 1.351-.279.451-.963.622-1.413.301l.171-.043c-.256.493-.577.987-1.091 1.308-.513.343-1.22.279-1.69-.128h.214c-.343.514-.771 1.051-1.37 1.372-.578.344-1.369.386-1.99 0l.214-.043c-.578.794-1.284 1.523-2.225 1.952-.92.429-2.033.429-2.953-.085h.214c-.813.622-1.84.986-2.868.943-1.027-.021-2.011-.364-2.888-.922h.278a3.27 3.27 0 0 1-2.461.879c-.899-.064-1.712-.493-2.397-1.029h.236c-.642.6-1.562.815-2.418.665-.835-.15-1.584-.601-2.204-1.137h.192c-.877.515-1.968.815-2.953.408-1.005-.429-1.497-1.459-1.754-2.403l.192.065c-.449.3-.962.514-1.519.471-.556 0-1.048-.407-1.327-.858h.193c-.171.258-.47.537-.856.451l.064-.215c.236 0 .385-.257.45-.472l.128-.343.385.343c.364.322.706.472 1.027.387.172-.022.321-.108.493-.193.15-.086.342-.236.427-.344l.621-.879.62 1.287c.386.815.92 1.373 1.349 1.437.214.043.47 0 .77-.086.278-.086.663-.3.813-.45l.642-.622 1.07.729c.535.365 1.113.536 1.476.558.193 0 .343 0 .45-.065.085 0 .32-.236.214-.15l1.305-.901 1.07.708c.535.343 1.027.515 1.348.536.171 0 .3-.021.45-.085.106-.022.363-.236.299-.172l1.263-1.072 1.262.793c.128.086.535.258.813.365.3.107.6.171.899.193.578.043 1.07-.129 1.583-.472l.557-.365 1.54.301s.278.15.428.15c.214.021.428 0 .685-.086.492-.172 1.091-.601 1.626-1.201l.792-.901 1.284.558c-.171-.065 0 .042.043.042a.576.576 0 0 0 .278 0c.278-.064.685-.364 1.027-.772l.385-.472 1.305.236s.065.108.086.129c.043.043.107.086.235.064.279-.043.642-.386.942-.772l.813-1.051.107.815s.15.129.214.15c.086 0 .235 0 .364-.128.299-.236.535-.644.749-1.094l.214.064h.042Z"/><path fill="#CBA946" d="M26.127 151.714c1.648-2.166 3.638-4.075 5.692-5.898a100.695 100.695 0 0 1 6.505-5.234 178.831 178.831 0 0 1 13.909-9.331l-.214-.364a69.209 69.209 0 0 0-7.939 3.217c-2.589 1.18-5.071 2.596-7.553 4.033-2.418 1.523-4.858 3.046-7.147 4.869-2.268 1.845-4.58 3.732-6.591 6.285l-.492.643-.171.815a13.673 13.673 0 0 0-.236 1.48l4.237-.515Z"/><path fill="#CFA20A" d="M14.294 43.65c2.696.45 5.35 1.523 7.789 2.81a35.706 35.706 0 0 1 6.869 4.826l.278-.321c-.899-1.116-1.84-2.253-2.932-3.218a39.59 39.59 0 0 0-3.423-2.788 34.606 34.606 0 0 0-3.83-2.36c-1.413-.665-2.697-1.222-4.473-1.63l-.257-.064v2.745h-.021Z"/><path fill="#002179" d="M140.757 86.014c-.043-.193-.043-.386-.086-.558l-.299-3.325c0-.514-.043-1.03-.022-1.544h-.106l-.107-1.223c-.6 2.445-1.541 4.848-3.232 6.65-1.754 1.952-4.408 2.745-6.997 2.466l.664 4.312c1.433 0 3.017-.193 4.515-.75a11.727 11.727 0 0 0 3.915-2.36c.3 1.115.728 2.188 1.263 3.131.171.365.364.687.556 1.008l1.263-4.397a12.235 12.235 0 0 1-1.306-3.41h-.021Z"/><path fill="#002179" d="M130.165 88.93c.514 1.46 1.134 2.725 1.605 4.076a89.047 89.047 0 0 1 1.476 4.011c.878 2.724 1.712 5.47 1.948 8.58l-.15.065a86.348 86.348 0 0 1-3.317-8.13 59.118 59.118 0 0 1-1.198-4.226c-.321-1.437-.578-2.895-.535-4.354h.171v-.021Z"/><path fill="#CBA946" d="M125.094 88.03c-1.049-.129-2.097-.279-3.146-.429-1.327-.193-2.653-.429-4.023-.536l.963 3.99c.771.171 1.605.364 2.44.536 1.39.279 2.846.536 4.301.73l-.514-4.27-.021-.02Z"/><path fill="#EAD57B" d="M131.791 89.124a9.624 9.624 0 0 1-1.926 0c-2.674-.193-5.349-.536-8.002-.965-1.327-.215-2.654-.472-3.981-.58-.641-.042-1.348-.085-1.861.215-.492.322-.535 1.051-.471 1.673.407 2.617.942 5.32.92 8.022 0 2.703-.428 5.384-.984 8.022l-.214-.042c.15-2.703.385-5.384.064-7.98a34.113 34.113 0 0 0-.535-3.86l-.428-1.931c-.15-.665-.321-1.244-.471-2.08a4.14 4.14 0 0 1 0-1.46c.065-.557.471-1.436 1.177-1.887 1.391-.794 2.204-.536 2.975-.558 1.519.108 2.803.322 4.129.494 2.632.364 5.222.643 7.854.75.085 0 .171 0 .256.022l1.52 2.102-.022.043Z"/><path fill="#0A0003" d="M137.654 86.013a5.642 5.642 0 0 1-.342.387c-1.391 1.608-3.445 2.51-5.542 2.724l-1.519-2.102c2.204.171 4.151-.408 5.606-1.93.214-.215.428-.451.62-.709l1.156 1.652.021-.022Z"/><path fill="#002179" d="M135.087 105.576c1.476-2.467 2.781-5.041 3.958-7.657 1.177-2.617 2.226-5.32 2.846-8.13h.107c.064 1.523-.192 2.982-.535 4.419-.342 1.437-.92 2.788-1.433 4.14-.664 1.308-1.306 2.616-2.097 3.839-.814 1.223-1.669 2.402-2.739 3.432l-.086-.064-.021.021ZM140.137 79.364c.042-.129.064-.279.107-.407 1.134-5.213 1.048-10.661.62-16.002l.428-.043c1.947 5.255 2.953 10.81 2.247 16.774-.3 2.51-1.006 5.17-2.653 7.7l-.728-8.022h-.021Z"/><path fill="#CFA20A" d="M178.846 40.99a10.417 10.417 0 0 0-3.916 1.588c-1.391.9-2.354 2.23-3.381 3.604a111.206 111.206 0 0 1-3.167 3.946c-1.091 1.287-2.289 2.553-3.702 3.475l-.257-.343c1.199-1.265 1.99-2.638 2.846-4.075.835-1.459 1.691-2.896 2.483-4.376.449-.75.749-1.373 1.39-2.295a13.561 13.561 0 0 1 2.14-2.296c1.52-1.265 3.36-2.102 5.307-2.552l.235 3.346.022-.021Z"/><path fill="#F0D697" d="M158.967 70.291c2.225-2.681 4.28-5.19 6.719-7.808.663-.643 1.369-1.287 2.397-1.866.984-.6 2.503-.986 3.83-.815.663.065 1.284.193 1.797.386.578.193.963.365 1.199.408.62.171 1.283.3 1.968.364 2.739.236 5.478-.171 7.019-1.501 1.583-1.158 2.525-3.282 2.76-6.07.813-5.62-1.69-9.76-6.826-9.782-1.22 0-2.418.344-3.573.858a7.96 7.96 0 0 0-1.605 1.051c-.45.365-1.092 1.116-1.691 1.695-1.241 1.201-2.46 2.403-3.787 3.54-1.305 1.115-2.825 2.23-4.451 2.852l-.257-.343c1.391-.944 2.504-2.145 3.595-3.453a93.973 93.973 0 0 0 3.103-3.969c.984-1.33 2.011-2.788 3.466-3.753 1.434-.987 3.082-1.63 4.794-1.824 3.423-.472 7.147.858 9.265 3.69 2.161 2.81 2.589 6.563 2.225 9.91-.342 3.367-1.733 6.95-4.729 8.923-2.953 1.973-6.676 2.166-9.993 1.458-.834-.193-1.669-.429-2.46-.75-.813-.344-1.498-.73-2.29-.858-1.583-.322-3.06.643-4.365 1.63-2.611 2.08-5.136 4.333-7.853 6.349l-.257-.343v.021Z"/><path fill="#F8E3AF" d="M178.675 40.669c-.921-2.124-1.648-4.183-2.697-5.899-.941-1.737-2.182-2.96-3.338-3.41-1.177-.408-2.567-.58-4.301-.258-1.776.236-3.616.665-4.729 1.33-1.177.622-1.519 1.051-1.904 2.295-.193.622-.278 1.416-.257 2.295 0 .944.171 1.545.128 3.54-.107 1.544-.534 3.131-1.348 4.354a11.136 11.136 0 0 1-2.76 2.96c-2.076 1.501-4.28 2.21-6.355 2.917l-.3-.3c1.712-1.48 3.574-2.553 5.029-4.162 1.476-1.544 2.503-3.56 2.396-5.662 0-1.008-.385-2.102-.492-3.218-.128-1.115-.171-2.23 0-3.367.257-2.274 1.798-4.398 3.852-5.427 2.033-1.051 4.28-1.437 6.484-1.587 2.204-.15 4.579.171 6.462 1.501 1.904 1.308 2.996 3.432 3.616 5.555.621 2.124.856 4.333.963 6.521h-.428l-.021.022Z"/><path fill="#DBB43C" d="M162.262 67.953c-.492-1.823-1.048-3.754-2.097-5.985a15.344 15.344 0 0 0-3.188-4.247c-.899-.836-1.819-1.501-2.718-2.144l-.171-1.159c-.128-.858-.299-1.737-.471-2.638-.192-.858-.385-1.759-.642-2.66l-2.225 1.802c.043.364.086.75.128 1.137.107 1.694.3 3.475.279 5.126v.15l.128.108c2.183 1.737 4.322 3.625 5.435 6.156 1.006 2.295 1.434 4.847 2.097 7.336l3.488-2.96-.043-.022Z"/><path fill="#0030AE" d="M97.083 40.519c14.979-3.025 30.257-4.505 45.514-4.87v.322c-4.001.73-8.003 1.18-11.983 1.91a311.6 311.6 0 0 0-11.897 1.822c-3.338.58-6.676 1.159-10.014 1.78l-11.62-.964Z"/><path fill="#DBB43C" d="m97.083 40.519 11.62.965a383.016 383.016 0 0 0-8.624 1.651l-2.996-2.638v.022ZM91.99 44.894c-6.697 1.502-13.309 3.304-19.921 5.213a156.947 156.947 0 0 0-11.384 3.753c-3.83 1.223-7.532 2.767-11.34 4.205l-.15-.28C61.69 50.73 75.3 45.796 89.208 42.32l2.803 2.574h-.021Z"/><path fill="#002179" d="M110.521 5.577c-2.781.836-5.542 1.759-8.281 2.68-5.435 1.846-10.806 3.862-16.155 5.9-10.7 4.118-21.249 8.687-31.648 13.577l-.193-.386c4.644-3.625 9.587-6.67 14.658-9.523a164.288 164.288 0 0 1 15.663-7.55c5.35-2.253 10.828-4.183 16.392-5.857a171.62 171.62 0 0 1 4.45-1.222l5.114 2.36v.02Z"/><path fill="#002179" d="M48.488 29.75c2.14-3.86 4.151-7.764 6.184-11.69a55.41 55.41 0 0 1 1.605-2.916c.6-.944 1.156-1.93 2.119-2.682 1.99-1.158 4.001-1.952 6.034-2.831C72.54 6.178 80.8 3.089 89.06.021h.063L89.187 0c3.595.257 7.169.73 10.7 1.48 3.509.794 7.04 1.78 10.121 3.754l-.235.364c-1.734-.579-3.446-.922-5.2-1.158-1.712-.3-3.467-.386-5.2-.536-1.733-.15-3.488-.15-5.221-.236a68.898 68.898 0 0 0-5.157 0l1.327-.215-6.035 2.682-6.098 2.51c-2.012.857-4.087 1.608-6.12 2.38-2.054.772-4.066 1.588-6.141 2.274l-3.039 1.094-1.455.557-.663.258c-.171.043-.492.214-.364.107.043-.128-.321.15-.556.408-.279.3-.578.665-.878 1.05l-1.84 2.575c-2.482 3.625-5.178 7.271-8.281 10.575l-.364-.215v.043Z"/><path fill="#DBB43C" d="M137.077 48.734c-1.648-.3-3.274-.58-4.943-.794-1.627-.279-3.274-.557-4.901-.858-3.252-.579-6.462-1.308-9.672-1.973-3.209-.751-6.398-1.416-9.586-2.21a97.085 97.085 0 0 0-4.814-1.072c-1.605-.45-3.232-.708-4.88-1.115v-.215c6.677 0 13.246 1.18 19.751 2.531 3.253.73 6.462 1.544 9.672 2.445 3.189.923 6.398 1.78 9.48 3.09l-.107.192v-.021Z"/><path fill="#002179" d="M144.181 43.843c-.022.15-.064.28-.086.43-.449 1.436-.898 2.573-1.926 3.903-.513.622-1.091 1.416-2.418 1.952-.706.215-1.476.086-1.883-.236-.449-.3-.642-.708-.813-1.115l.15-.28c.556.28 1.198.473 1.648.151.449-.3.749-.9.984-1.48.3-.772.578-1.587.813-2.402l3.531-.901v-.022Z"/><path fill="#0030AE" d="M142.726 35.821a53.639 53.639 0 0 1-1.07 6.886c-.257 1.136-.599 2.252-.963 3.346-.193.558-.385 1.094-.642 1.63-.257.515-.556 1.094-1.177 1.373-.62.279-1.284 0-1.797-.258-.493-.257-1.049-.45-1.584-.643a58.697 58.697 0 0 0-3.295-1.051 170.697 170.697 0 0 0-6.676-1.866c-4.473-1.18-8.966-2.231-13.524-3.068-4.536-.815-9.137-1.48-13.759-1.501v-.215c2.311-.429 4.686-.429 7.04-.45 2.354.086 4.686.279 7.019.536 4.664.537 9.201 1.609 13.759 2.639 2.246.643 4.472 1.33 6.697 2.059a68.55 68.55 0 0 1 3.338 1.18c.578.235 1.092.386 1.819.793.364.258.492.236.278.322-.107.171.236-.129.45-.515.235-.407.47-.9.684-1.416.428-1.03.835-2.102 1.177-3.153.792-2.145 1.306-4.397 1.948-6.65h.214l.064.022Z"/><path fill="#002179" d="M54.287 27.456C64.644 22.479 75.15 17.825 85.85 13.62a310.815 310.815 0 0 1 16.199-5.898c5.456-1.802 10.956-3.497 16.541-4.826h.064l.043.021A36.337 36.337 0 0 1 123.81 7.4c1.562 1.652 2.996 3.432 4.087 5.427l-.193.107c-1.326-1.845-2.846-3.475-4.515-4.955a40.788 40.788 0 0 0-2.589-2.102c-.877-.665-1.776-1.33-2.675-1.888l.899.172c-2.696.772-5.435 1.695-8.11 2.617l-8.11 2.767c-5.392 1.909-10.699 3.99-16.091 5.92-5.371 1.995-10.657 4.161-16.049 6.135a580.947 580.947 0 0 1-16.155 6.027l-.086-.193.064.021Z"/><path fill="#DBB43C" d="M137.419 85.97c-1.263-1.865-2.439-3.774-3.766-5.576l-.064-.086.064-.086c2.546-2.895 3.103-7.057 2.118-10.703-.941-3.69-2.995-7.036-5.542-9.846-2.568-2.81-5.628-5.19-9.137-6.67-3.445-1.48-7.618-1.845-10.891.15l-.107.064-.086-.086A380.469 380.469 0 0 0 97.404 40.82l.15-.15c2.44 1.695 4.708 3.582 7.019 5.427a286.973 286.973 0 0 1 6.633 5.877l-1.84-.236c1.819-1.266 4.108-1.866 6.27-1.845 2.182 0 4.279.494 6.227 1.266a25.061 25.061 0 0 1 5.413 2.981c1.648 1.223 3.124 2.66 4.451 4.183 2.611 3.089 4.857 6.671 5.692 10.79.385 2.059.449 4.225-.043 6.284-.471 2.08-1.519 4.011-3.017 5.448l.043-1.008a80.896 80.896 0 0 1 3.188 6.006l-.171.129Z"/><path fill="#4A4242" d="M137.44 85.95c-1.433-1.738-2.739-3.583-4.172-5.277l-.278-.343.321-.408c2.204-2.938 2.589-6.735 1.519-10.167-1.027-3.432-2.953-6.628-5.435-9.31a28.284 28.284 0 0 0-4.066-3.624c-1.434-1.094-2.996-2.038-4.622-2.746-3.252-1.459-6.954-1.716-9.95-.086l-.835.45-.556-.621a430.956 430.956 0 0 0-5.97-6.478l-5.927-6.542.107-.108a360.103 360.103 0 0 1 12.689 12.248h-.15c3.381-2.102 7.66-1.737 11.17-.257 3.573 1.48 6.697 3.882 9.265 6.757 2.547 2.874 4.622 6.263 5.542 10.017.985 3.71.385 8-2.225 10.918v-.13c1.327 1.824 2.503 3.733 3.745 5.6l-.129.085-.043.022ZM89.487 42.492a136.093 136.093 0 0 1 8.859 7.164c2.824 2.532 5.713 5.02 8.367 7.722l.535.537-.214.75c-.856 2.875-.386 6.2.556 9.267.963 3.067 2.332 6.07 4.237 8.708 1.883 2.617 4.258 4.912 7.04 6.414 2.782 1.523 6.12 1.759 9.222.708l.428-.15.214.321c1.027 1.609 2.012 3.24 2.91 4.934l-.128.085a140.762 140.762 0 0 0-3.295-4.654h.107c-3.146 1.415-6.869 1.308-9.972-.193-3.124-1.459-5.692-3.883-7.725-6.607a29.584 29.584 0 0 1-4.579-9.137c-.941-3.26-1.412-6.821-.385-10.146v.129c-5.242-5.406-10.678-10.682-16.305-15.745l.107-.128.021.021Z"/><path fill="#FFF4CA" d="M62.354 76.962c2.975 2.316 6.077 3.024 8.86 2.38 1.39-.342 2.78-.814 4.086-1.608 1.348-.73 2.547-1.609 3.959-2.724 1.39-.987 2.717-2.038 3.787-3.046 1.134-1.03 1.69-1.845 2.097-3.132.193-.686.278-1.415.364-2.252a8.84 8.84 0 0 0-.021-2.252c-.15-1.566-.75-3.132-1.712-4.719l.192-.257c2.932 2.252 4.13 6.22 3.66 9.802-.172 1.845-1.135 3.56-2.397 4.87-1.241 1.33-2.653 2.466-4.066 3.56-2.803 2.188-6.12 4.097-9.8 4.29-1.819.107-3.68-.257-5.285-1.094-1.627-.858-2.975-2.145-3.98-3.625l.256-.193Z"/><path fill="#DBB43C" d="M83.795 59.609c-2.418-1.952-5.67-2.553-8.666-2.06-3.039.473-5.863 1.888-8.324 3.712-2.46 1.78-4.665 4.118-5.713 6.992-1.091 2.874-.514 6.2 1.262 8.709l-.257.193c-1.39-.944-2.482-2.403-3.124-4.119-.62-1.737-.706-3.753-.256-5.598.385-1.888 1.326-3.54 2.396-5.04 1.113-1.46 2.418-2.66 3.83-3.754 1.391-.966 2.932-1.866 4.58-2.532 1.669-.579 3.423-1.093 5.264-1.093 3.594-.194 7.467 1.35 9.222 4.332l-.192.258h-.022ZM96.87 71.771c-.514.193-.9.386-1.156.686-.128.236-.321.601-.407.987-.235.772-.32 1.652-.449 2.531-.193 1.802-.385 3.647-.62 5.534-.3 1.866-.578 3.775-1.199 5.706-.15.493-.3.987-.535 1.48-.257.6-.492.88-.599 1.115-.3.515-.171 1.33.6 2.038l-.065.193c-.963-.279-1.733-1.244-1.648-2.295 0-.515.236-.987.343-1.437.107-.45.192-.922.278-1.394.3-1.888.492-3.818.728-5.728.278-1.909.599-3.817 1.112-5.684.257-.922.6-1.866 1.113-2.702.278-.408.599-.794 1.07-1.051.45-.215.984-.236 1.455-.236v.214l-.022.043Z"/><path fill="#FFF4CA" d="M96.87 71.77c-.493 0-.942.022-1.349.237-.385.214-.706.579-.941.965-.492.815-.792 1.716-1.027 2.638-.492 1.845-.75 3.754-1.006 5.663-.278 1.91-.513 3.818-.834 5.727-.086.472-.172.944-.3 1.416-.128.493-.342.922-.342 1.373-.086.922.577 1.78 1.455 2.08l-.064.193c-1.07.108-2.376-.879-2.526-2.338-.042-.3 0-.793.043-1.008.064-.364.043-.429.043-.686l.043-1.33c0-1.866.15-3.797.385-5.727.3-1.93.685-3.882 1.498-5.813.385-.965.92-1.93 1.69-2.788.428-.408.878-.816 1.605-1.03.6-.129 1.22.021 1.648.214v.215h-.022Z"/><path fill="#DBB43C" d="M102.412 91.998c.898-.365 1.262-1.351 1.326-2.295.064-.944-.064-1.91-.214-2.853-.342-1.887-.92-3.754-1.498-5.598-.535-1.867-.984-3.754-1.604-5.577-.321-.901-.664-1.823-1.199-2.596-.535-.793-1.39-1.308-2.332-1.33v-.214c1.006-.43 2.396.043 3.252.88.856.836 1.434 1.78 1.883 2.702.942 1.866 1.477 3.71 2.055 5.534.513 1.845 1.027 3.84 1.112 5.92.043 1.051 0 2.124-.299 3.24-.171.535-.407 1.114-.813 1.586-.407.494-1.006.773-1.541.794l-.086-.193h-.042Z"/><path fill="#FFF4CA" d="M102.433 92.063c.813-.58 1.006-1.48.942-2.36 0-.9-.214-1.823-.45-2.724-.471-1.823-.984-3.646-1.626-5.491l-1.434-5.598c-.235-.901-.513-1.802-.941-2.574-.385-.816-1.092-1.373-2.055-1.61V71.6c1.006 0 1.948.557 2.504 1.372.578.794.942 1.716 1.284 2.617.642 1.845 1.113 3.711 1.669 5.577s1.091 3.733 1.412 5.642c.15.965.278 1.93.193 2.917-.064.944-.492 2.037-1.455 2.402l-.043-.086v.022Z"/><path fill="#DBB43C" d="M96.998 87.472c0-.193.214-.514.599-.536.385-.043.728.15.963.322.45.386.685.815.834 1.244l.107.322s.043.129.086.171c.064.215.107.15.15.236.107.193.214.387.364.558.235.408.535.772.856 1.158.342.344.641.837 1.476 1.073l.064.15c-.663.3-1.455.236-2.097-.086-.642-.3-1.198-.794-1.626-1.394a3.942 3.942 0 0 1-.642-2.038 2.692 2.692 0 0 0-.278-.944c-.171-.3-.492-.364-.75-.128l-.085-.129-.021.022Z"/><path fill="#FFF4CA" d="M92.504 91.848c1.198.429 2.632-.172 3.082-1.33.235-.558.32-1.244.577-1.845.129-.321.257-.622.45-.922.192-.257.47-.665 1.005-.58.856.43.792 1.288.878 1.867.064.622.32 1.201.706 1.695.706.986 2.033 1.758 3.231 1.265l.086.193c-.471.665-1.477.901-2.333.75a4.355 4.355 0 0 1-2.31-1.179c-.343-.3-.621-.665-.857-1.072-.107-.236-.214-.386-.32-.687l-.13-.429-.063-.257-.043-.129c-.043-.279-.021-.107-.021-.193v-.129s-.065-.15-.086-.193c0-.021-.043-.021 0 .065.043.064.193.343.749.514.257.065.578.043.749-.021.15 0 .578-.322.364-.193.128-.107.106-.107.085-.107-.064.064-.171.257-.278.45-.3.43-.342.858-.92 1.823-.514.837-1.434 1.48-2.375 1.61-.92.106-1.82-.172-2.311-.773l.064-.215.021.022Z"/><path fill="#DBB43C" d="M94.366 69.368c-.236-1.33.834-2.209 1.99-2.209 1.177.043 2.14.922 1.969 2.21l-.107.128c-1.07-.922-2.718-.987-3.745 0l-.107-.107v-.022Z"/><path fill="#002179" d="M150.793 59.266c-.364-1.18-.835-1.888-1.327-2.681-.449-.687-.941-1.824-1.22-2.682-.706-1.801-1.091-3.496-1.497-4.676-.172-.6-.364-1.008-.428-1.308-.086-.279-.086-.515-.428-.922-.685-.773-2.568-1.352-4.794-2.167l-.128-.407c1.798-.665 3.766-1.202 5.778-.73 1.005.215 1.925.794 2.61 1.545.685.772 1.134 1.694 1.455 2.638.599 1.909.728 3.861.835 5.77.064 1.866.449 3.925-.45 5.77l-.406-.172v.022ZM141.014 62.74c.299.065.599.086.92.086 1.07-.064 2.225-.3 3.317-.471 1.112-.194 2.204-.451 3.231-.88 1.027-.429 1.926-1.158 2.396-2.166l.193.085c-.107 1.245-1.07 2.403-2.14 3.11-1.091.709-2.247 1.159-3.381 1.502-.556.193-1.112.343-1.69.472-.556.129-1.049.3-1.905.365a4.357 4.357 0 0 1-.749 0l-.214-2.102h.022Z"/><path fill="#DBB43C" d="M141.228 64.843c-1.37-.107-2.825-.794-3.723-1.802-2.055-2.445-2.29-5.105-2.269-7.529.086-2.423.664-4.804 1.798-6.907l.214.043c-.364 2.231-.514 4.505-.321 6.736.214 2.209.663 4.547 2.14 6.199.513.579 1.198.986 1.947 1.158l.214 2.102Z"/><path fill="#002179" d="M137.184 48.648c0 2.295 0 4.526.321 6.714.321 2.123.791 4.375 2.097 5.727.599.686 1.369 1.05 2.311 1.05.898-.02 2.182-.3 3.231-.364 1.112-.128 2.182-.3 3.209-.622a4.572 4.572 0 0 0 2.59-1.802l.107.043c-.471 1.051-1.413 1.845-2.461 2.274-1.049.45-2.161.708-3.274.922-1.113.193-2.204.43-3.36.537a3.95 3.95 0 0 1-3.102-1.287c-1.541-1.78-1.948-4.162-2.162-6.393-.171-2.273 0-4.547.407-6.778h.107l-.021-.021Z"/><path fill="#002179" d="M136.756 53.367c1.818 2.017 3.851 3.904 6.291 5.04a10.4 10.4 0 0 0 3.851 1.052c1.348.107 2.697 0 4.045-.215v.215c-1.199.944-2.59 1.501-4.152 1.673-1.562.193-3.209-.15-4.643-.794-1.412-.708-2.632-1.673-3.573-2.831-.942-1.137-1.648-2.467-1.991-3.99l.15-.15h.022Z"/><path fill="#002179" d="M136.713 53.389c1.198.772 2.247 1.608 3.338 2.36 1.091.75 2.14 1.48 3.317 1.951 1.112.6 2.311.922 3.573 1.137 1.263.236 2.611.279 4.023.429v.107c-1.327.215-2.696.365-4.066.279a11.236 11.236 0 0 1-3.98-1.008c-2.482-1.201-4.493-3.175-6.291-5.212l.086-.065v.022ZM154.965 120.827a66.356 66.356 0 0 0-1.626-10.854c-.856-3.539-2.033-7.078-3.958-10.189-1.99-3.067-4.58-5.705-6.719-8.687-1.07-1.501-1.884-3.196-2.226-5.019-.364-1.802-.406-3.668-.342-5.491h.107c.171 3.69.877 7.314 3.145 10.038 2.204 2.81 4.793 5.427 6.955 8.58 1.947 3.304 3.124 6.907 3.851 10.554.343 1.823.599 3.668.792 5.512.128 1.845.171 3.69.128 5.534h-.107v.022Z"/><path fill="#002179" d="M151.585 56.992c2.204 1.716 4.472 3.647 5.692 6.306 1.176 2.639 1.626 5.449 2.418 8.151.727 2.724 1.69 5.363 2.524 8.065.814 2.682 1.67 5.535 1.263 8.473-.428 2.874-1.391 5.534-2.183 8.237a218.267 218.267 0 0 0-2.268 8.129 310.591 310.591 0 0 0-3.787 16.474l-.428-.086c-.385-5.834.085-11.562.963-17.224.363-2.832 1.048-5.684 1.669-8.451.663-2.725 1.583-5.556 1.797-7.637.15-1.03.15-1.909-.043-3.046-.171-1.136-.535-2.402-.856-3.71l-1.027-4.054a41.912 41.912 0 0 1-.92-4.312c-.556-2.874-.663-5.791-1.22-8.086-.47-2.317-2.182-4.548-3.894-6.929l.257-.343.043.043Z"/><path fill="#CBA946" d="M53.431 81.745c-.749-1.351-1.412-2.745-2.075-4.14-.835-1.48-1.156-3.024-1.37-4.697-.214-1.652-.32-3.303-.385-4.976-.15-3.347-.129-6.671-.129-10.017h-.427c-.835 3.346-1.327 6.692-1.712 10.102a52.587 52.587 0 0 0-.214 5.256c0 .922.085 1.823.278 2.852.043.258.107.515.171.794l5.842 4.826h.021ZM69.073 92.492c.728-.215 1.413-.43 2.183-.644 1.626-.515 3.252-1.008 4.814-1.544l.578-.193 1.776-4.612c-1.198.236-2.354.622-3.51.944-1.946.536-3.894 1.18-5.84 1.694v4.376-.021Z"/><path fill="#FFF4CA" d="M80.457 109.115c-.513-.214-.642-.708-.813-1.072-.15-.408-.235-.815-.321-1.244-.15-.837-.235-1.673-.364-2.488-.235-1.652-.428-3.325-.492-5.02-.128-3.346.128-6.8 1.498-9.931.364-.772.749-1.501.941-2.274.107-.386.107-.772-.064-.965-.192-.193-.578-.236-.984-.214-1.584.15-3.21.708-4.793 1.158-3.21.922-6.334 2.08-9.715 2.638-1.69.215-3.445.129-5.093-.407-1.648-.537-3.102-1.545-4.28-2.767-2.375-2.489-3.765-5.62-5.178-8.645-.813-1.48-1.198-3.217-1.37-4.869a56.517 56.517 0 0 1-.342-5.019c-.107-3.346-.064-6.692-.042-10.038h.32c.6 3.346.835 6.692 1.391 9.974.236 1.63.45 3.26.814 4.826.17.772.342 1.523.577 2.188l.172.45.192.386.578 1.03c1.626 2.896 3.081 5.791 5.05 7.615 1.904 1.866 4.065 2.51 6.804 2.102 1.135-.086 2.91-.6 4.451-1.008l4.793-1.33 2.525-.622c.9-.194 1.755-.408 3.017-.45.343 0 .707 0 1.22.106a3.597 3.597 0 0 1 1.926 1.073c.663.772.813 1.63.813 2.188 0 .279-.021.493-.064.729l-.128.558a8.429 8.429 0 0 1-.664 1.587l-.599 1.073c-1.327 2.466-1.926 5.62-2.118 8.815-.15 1.609-.171 3.261-.15 4.934 0 .858 0 1.694.043 2.488.043.772.021 1.737.513 2.145l-.107.3h.043Z"/><path fill="#EAD57B" d="M136.499 84.362c1.177-1.523 1.904-3.582 2.568-5.663.706-2.445 1.091-5.062 1.326-7.7.343-2.639.407-5.32.578-8.044h.214c.471 5.341.621 10.79-.471 16.109-.556 2.467-1.412 4.955-3.038 6.95l-1.156-1.652h-.021Z"/><path fill="#DBB43C" d="M116.021 101.2c-.214-.257-.45-.45-.749-.472-.278 0-.556.15-.792.365-.449.45-.77 1.051-1.027 1.63l-.086.193-.128-.172c-.364-.472-.963-.772-1.541-.557-.556.193-1.027.643-1.39 1.115l-.15.193-.107-.214c-.107-.236-.3-.451-.514-.472-.235-.022-.492.086-.727.257-.45.322-.856.751-1.199 1.223l-.128.193-.128-.193c-.45-.687-1.242-1.094-2.012-.772-.749.278-1.369.879-1.862 1.523l-.128.171-.15-.15c-.77-.794-1.754-1.394-2.846-1.373-1.07 0-2.097.622-2.824 1.394l-.15.172-.171-.172c-.642-.643-1.498-1.222-2.397-1.329-.92-.129-1.733.493-2.225 1.287l-.15.235-.171-.235c-.492-.708-1.198-1.459-2.033-1.566-.856-.086-1.52.75-1.926 1.544l-.15.3-.15-.321c-.299-.708-.748-1.416-1.369-1.824-.3-.193-.685-.3-1.027-.193-.342.086-.663.322-.942.579l-.106.108-.108-.129c-.385-.515-.855-.987-1.433-1.266-.278-.128-.6-.193-.856-.085-.278.107-.47.364-.642.622l-.086.171-.107-.15c-.342-.429-.749-.879-1.262-1.008-.535-.129-.877.45-1.027.965l-.214-.064c.043-.3.107-.601.3-.901.17-.3.62-.601 1.048-.515.813.15 1.284.579 1.776 1.073l-1.113.064c.171-.365.407-.836.985-1.115.577-.279 1.22-.193 1.647-.022.45.172.813.386 1.134.644.321.257.578.493.878.836l-1.712-.128c.342-.387.791-.794 1.498-1.03.706-.257 1.604-.064 2.16.279.579.322.985.729 1.306 1.137.343.429.578.772.856 1.308l-2.803-.129c.235-.536.514-1.094 1.048-1.651.493-.536 1.52-1.094 2.547-1.008 1.027.085 1.712.536 2.247.943.556.451.92.837 1.348 1.438h-3.103a5.114 5.114 0 0 1 1.562-1.652c.728-.472 1.733-.729 2.59-.644.855.086 1.561.387 2.16.708.6.365 1.049.687 1.605 1.244l-2.867.043c.663-.686 1.198-1.072 1.947-1.458a5.574 5.574 0 0 1 2.482-.601c.899 0 1.798.257 2.504.644.727.407 1.284.922 1.755 1.437l-2.718.193c.407-.515.749-.815 1.198-1.201.45-.344.963-.687 1.669-.901.664-.236 1.648-.258 2.418.15.771.364 1.22.922 1.541 1.416h-2.418c.514-.601.942-1.03 1.691-1.523.385-.215.855-.515 1.733-.408.428.064.856.3 1.091.579.257.258.364.515.471.751l-2.054-.193a5.5 5.5 0 0 1 .92-.837c.342-.236.727-.472 1.219-.579.471-.107 1.092-.086 1.562.172.471.236.771.6.985.922l-1.241.193c.385-.665.791-1.222 1.412-1.737.3-.236.749-.472 1.22-.365.449.107.727.472.877.751l-.171.15Z"/><path fill="#FFF4CA" d="M116.021 101.2c-.257-.236-.535-.343-.749-.3-.214.043-.364.214-.535.45-.321.451-.556 1.073-.685 1.609l-.257.987-1.005-.794c-.428-.343-.599-.257-.792-.107-.107.085-.278.193-.428.364-.15.15-.321.386-.385.537l-.663 1.437-1.391-1.609c-.107-.107-.043.129.299.214.278.022.193.022.086.129-.214.193-.578.644-.792.987l-.941 1.609-1.477-1.631c-.171-.193-.342-.278-.364-.236 0 .022.043.043-.085.086-.107.065-.321.193-.514.386a3.753 3.753 0 0 0-.556.644l-1.049 1.694-1.669-1.501c-.642-.579-1.241-.837-1.669-.815-.235 0-.492.086-.791.236-.257.128-.642.45-.75.6l-1.305 1.588-1.562-1.545c-.15-.15-.47-.429-.706-.557-.257-.151-.47-.236-.6-.258-.128 0-.128 0-.213.022-.107.064-.278.214-.45.471l-1.797 2.446-1.284-2.446a3.61 3.61 0 0 0-.513-.686c-.193-.193-.343-.236-.257-.236.085 0 .171-.129 0 0-.129.086-.385.343-.578.644l-1.99 3.11-.813-3.239c-.043-.215-.193-.558-.321-.794-.128-.257-.3-.45-.385-.557-.107-.086-.064-.108-.129-.151-.064-.021-.278.065-.513.236l-1.134.901-.6-1.029c-.235-.429-.684-.88-.962-1.137-.15-.129-.214-.172-.278-.193-.065-.022-.257.064-.407.257l-.706.88-.407-.794c-.214-.408-.578-.879-.898-1.03-.15-.064-.279-.107-.493.043-.192.129-.363.365-.492.622l-.214-.064c.086-.279.214-.558.407-.815.192-.257.556-.408.877-.322.62.172 1.049.622 1.412 1.073h-.214c.172-.279.407-.601.75-.73.363-.15.748-.064 1.07.086.641.322 1.112.815 1.54 1.352h-.214c.3-.301.642-.58 1.07-.687.428-.129.899 0 1.262.215.728.472 1.156 1.201 1.498 1.952h-.3c.215-.451.471-.858.835-1.202.343-.343.877-.6 1.391-.557 1.07.15 1.776.943 2.332 1.716h-.32c.492-.858 1.476-1.631 2.589-1.48 1.07.128 1.947.729 2.653 1.437h-.32c.812-.858 1.925-1.48 3.145-1.502 1.219 0 2.332.687 3.102 1.523h-.278c.557-.665 1.198-1.287 2.054-1.609.428-.15.942-.171 1.37.043.428.193.749.537 1.006.88h-.257c.364-.472.77-.923 1.284-1.287.256-.172.556-.322.92-.279.385.043.62.365.749.643h-.236c.407-.536.899-1.008 1.541-1.222.663-.258 1.434.129 1.819.643h-.214c.278-.579.599-1.179 1.091-1.673.236-.236.578-.45.963-.429.385.022.685.301.877.558l-.171.15.086.043Z"/><path fill="#CBA946" d="M72.369 128.334a89.961 89.961 0 0 1-3.253-2.595 42.599 42.599 0 0 1-1.776-1.673c-.62-.622-1.113-1.116-1.883-2.059l-.428-.558a9.646 9.646 0 0 1-.578-.965 9.383 9.383 0 0 1-.663-1.802 12.168 12.168 0 0 1-.385-3.003c.021-1.459.128-2.81.278-4.118l4.108-3.003c-.256 2.316-.47 4.611-.363 6.885.107 1.459.32 2.917 1.305 3.968.92 1.094 2.054 2.102 3.188 3.068a120.571 120.571 0 0 0 4.044 3.367l-3.594 2.488Z"/><path fill="#F8E3AF" d="M69.18 88.545c1.348 6.006 1.199 12.291.792 18.232-.107 2.96-.45 5.985-.171 8.537.064.622.15 1.223.278 1.652.064.214.128.386.193.493.021.065.064.065.064.108l.3.364c.663.751 1.818 1.802 2.888 2.703 2.14 1.93 4.472 3.754 6.783 5.62 2.29 1.909 4.644 3.732 6.912 5.727 1.134.986 2.31 1.952 3.424 3.024.599.579 1.027.987 1.39 1.244.45.301.942.494 1.498.601 1.113.257 2.483.043 3.81-.451a20.383 20.383 0 0 0 3.872-2.059l.236.215c-2.119 2.102-4.815 4.011-7.96 3.989-1.563 0-3.039-.858-4.152-1.823l-3.595-2.703c-4.814-3.56-9.714-7.056-14.315-10.939-1.134-1.008-2.247-2.016-3.252-3.196-1.07-1.201-1.327-2.896-1.391-4.376-.107-3.046.32-6.049.684-9.03.77-5.942 1.648-11.905 1.391-17.91h.321v-.022Z"/><path fill="#CBA946" d="M133.46 112.568a8.747 8.747 0 0 1-.535 1.824 8.818 8.818 0 0 1-.877 1.587l-.535.686-.342.386-1.306 1.566-2.632 3.196-3.723 4.247-3.573-2.123c1.348-1.63 2.696-3.282 4.044-4.912l2.739-3.175c.856-1.094 2.033-2.016 2.546-3.153.428-1.008.557-2.081.492-3.175l3.724 3.025-.022.021Z"/><path fill="#F0DC94" d="M125.222 88.416c.407 5.598 2.311 10.875 4.002 16.216.406 1.33.77 2.703.962 4.097.193 1.394.193 2.874-.406 4.204-.278.665-.77 1.244-1.241 1.759l-1.37 1.566-2.717 3.196a616.816 616.816 0 0 0-10.678 12.891c-.899 1.051-1.626 2.274-2.718 3.218a10.946 10.946 0 0 1-3.659 2.102c-1.326.45-2.781.643-4.172.407-1.391-.236-2.696-1.008-3.616-2.102l.17-.128a6.16 6.16 0 0 0 3.574 1.544c1.284.086 2.547-.236 3.681-.772a10.659 10.659 0 0 0 3.102-2.081c.45-.45.749-.858 1.134-1.437l1.199-1.737c3.274-4.569 6.847-8.859 10.335-13.235l2.803-3.153 1.434-1.566.364-.386.235-.257a3.85 3.85 0 0 0 .364-.58c.856-1.651.171-4.418-.364-7.014-.62-2.659-1.412-5.384-1.969-8.172-.449-2.81-.834-5.663-.642-8.473h.214l-.021-.107Z"/><path fill="#F7DB92" d="M80.286 115.314c-.492-.45-.749-.986-.963-1.523-.214-.557-.235-1.115-.3-1.694.065-.579.086-1.158.3-1.695.193-.557.47-1.094.963-1.523h.107a13.738 13.738 0 0 0-.3 3.239c0 1.073.086 2.145.3 3.218h-.107v-.022Z"/><path fill="#CBA946" d="M78.21 85.907c-1.99 4.89-3.038 10.167-3.188 15.443-.086 2.639.086 5.299.77 7.83.664 2.488 2.055 5.062 4.558 5.984l-.064.193c-1.412-.064-2.825-.879-3.83-1.952-1.028-1.094-1.776-2.402-2.269-3.753-1.048-2.725-1.305-5.577-1.283-8.344.106-2.789.535-5.535 1.39-8.151.835-2.617 2.012-5.148 3.745-7.315l.193.086-.022-.021Z"/><path fill="#F7DB92" d="M114.865 114.714c-.214-.708-.278-1.352-.342-1.995-.064-.622-.043-1.244-.128-1.845.064-.6 0-1.18 0-1.802 0-.622 0-1.222.064-1.973l.085-.043c1.199 2.381 1.049 5.17.407 7.658h-.107.021Z"/><path fill="#F8E3AF" d="M118.268 87.408c1.284 2.145 2.075 4.547 2.546 6.95.492 2.424.663 4.89.578 7.379-.15 2.488-.514 4.976-1.434 7.378a13.964 13.964 0 0 1-1.84 3.432c-.813 1.03-1.883 2.017-3.167 2.274l-.107-.193c2.033-1.244 2.867-3.711 3.488-5.942.578-2.295.834-4.676.92-7.057.235-4.74-.15-9.545-1.198-14.2l.214-.042v.021Z"/><path fill="#CBA946" d="M168.382 148.497a12.17 12.17 0 0 1-4.215-1.029c-1.07-.494-2.055-1.266-2.718-1.845-.749-.622-1.519-1.244-2.225-1.909-1.455-1.33-2.868-2.703-4.109-4.269l.3-.321c1.433 1.222 3.038 2.316 4.622 3.367 1.626.987 3.188 2.209 4.921 2.853a9.621 9.621 0 0 0 3.809.493l-.364 2.682-.021-.022Z"/><path fill="#F8E3AF" d="M130.251 109.716c5.948 4.826 12.09 9.481 18.509 13.642 3.21 2.038 6.548 4.14 10.335 4.311 3.809.322 7.404-.879 11.042-2.273 2.247-.429 4.108.986 5.414 2.381 1.348 1.48 2.311 3.217 2.952 5.083.642 1.845.942 3.883.557 5.856-.45 2.016-1.712 3.689-3.231 4.933-3.06 2.446-7.34 3.518-11.106 2.188-.941-.321-1.776-.858-2.589-1.373l-2.418-1.565c-1.584-1.094-3.167-2.167-4.644-3.454l.3-.322c1.669.944 3.445 1.738 5.157 2.553 1.712.708 3.595 1.845 4.943 2.038 2.953.622 6.184-.687 8.217-2.66.984-.944 1.605-2.295 1.669-2.96.171-1.201-.128-2.531-.663-3.883-.557-1.329-1.306-2.659-2.226-3.582-.449-.472-.899-.793-1.241-.965-.278-.15-.513-.043-.107-.107.428-.15-.471.15-.15.043l-.727.279-1.498.536a26.319 26.319 0 0 1-3.146.858c-2.161.472-4.493.708-6.847.45a20.636 20.636 0 0 1-3.552-.75c-.3-.086-.471-.172-.728-.258l-.342-.129c-.321-.107-.342-.128-.535-.214-.599-.257-1.091-.515-1.583-.772-1.926-1.03-3.531-2.188-5.136-3.389-6.291-4.784-11.94-10.103-16.947-16.152l.278-.322.043-.021Z"/><path fill="#CBA946" d="M152.333 137.365c-.748.214-1.219.064-1.604-.193-.364-.301-.642-.708-.642-1.48.749-.236 1.219-.065 1.605.193.363.3.641.708.641 1.48Z"/><path fill="#F0D697" d="M168.832 146.138c-.086 3.003-.878 6.027-2.654 8.515-1.754 2.51-4.665 4.076-7.66 4.483-1.498.215-3.146.086-4.515-.751-1.37-.815-2.29-2.145-2.996-3.474-1.412-2.682-2.204-5.577-3.788-8.001-1.647-2.338-3.873-4.397-6.013-6.392a172.75 172.75 0 0 0-6.719-5.813c-4.6-3.69-9.244-7.443-14.336-10.382l.192-.386c3.039.729 5.778 2.124 8.495 3.475 2.675 1.437 5.286 2.96 7.768 4.676 2.546 1.63 4.9 3.518 7.297 5.427 1.198.965 2.311 2.037 3.445 3.131 1.155 1.159 2.204 2.167 3.445 3.904 1.968 3.239 2.739 6.307 3.787 8.451.471 1.094.963 1.802 1.37 2.145.385.322 1.048.601 2.14.623 2.289-.086 4.493-.708 6.269-2.467 1.862-1.695 3.167-4.333 4.045-7.186h.428v.022Z"/><path fill="#CFA20A" d="M161.321 56.542c-.15.579-.471.9-.835 1.137-.385.214-.792.364-1.391.235.15-.579.471-.9.835-1.136.385-.215.813-.365 1.391-.236Z"/><path fill="#F8E3AF" d="M47.311 51.05c-2.29-.557-4.386-1.243-6.547-1.865-2.119-.708-4.259-1.309-6.548-2.596-1.156-.622-2.376-1.48-3.381-2.745a11.467 11.467 0 0 1-1.327-2.038c-.107-.193-.3-.6-.428-.901l-.385-.858c-.877-2.166-1.52-4.097-2.354-5.277-.364-.622-.706-.986-.984-1.18-.278-.193-.6-.278-1.177-.364-.3-.021-.62-.043-1.006 0h-.257l-.406.086-.663.128c-.856.194-1.712.408-2.461.708-1.477.622-2.675 1.437-3.51 3.046-.877 1.587-1.176 3.775-1.39 6.092l-.407.107c-.556-2.145-.877-4.461-.385-6.714.47-2.252 1.99-4.247 3.959-5.405 1.968-1.158 4.13-1.909 6.44-2.08 1.156-.043 2.376.192 3.403.793 1.027.6 1.84 1.502 2.46 2.467 2.504 3.84 2.226 9.009 6.249 11.347 1.776 1.265 3.766 2.273 5.692 3.367 1.925 1.094 3.851 2.231 5.691 3.497l-.235.364-.043.022Z"/><path fill="#CFA20A" d="M26.063 66.73s.043-.021.15-.021c-.022 0-.064.021-.086.021h-.064ZM26.192 66.73l.043-.021s-.043.022-.065.043l.021-.021Z"/><path fill="#F0D697" d="M28.973 51.287c-1.198-.773-2.46-1.395-3.68-2.06a31.129 31.129 0 0 0-3.767-1.694c-1.283-.472-2.567-.88-3.851-1.158-1.241-.3-2.654-.6-3.68-.622l.855-.043c-2.803 1.18-5.799 2.852-7.831 4.955-1.006 1.05-1.905 2.145-2.44 3.324-.599 1.202-.706 2.167-.513 2.875.17.708.642 1.608 1.626 2.574.941.965 2.204 1.93 3.573 2.895l.963.665c.514.322.428.258.685.408.428.236.877.364 1.39.45 1.028.172 2.312.065 3.681-.322 1.37-.364 2.804-.965 4.301-1.63a53.247 53.247 0 0 0 2.226-1.094l.278-.15.321-.171.15-.065c.192-.085.62-.257.898-.322.236-.064.493-.128.707-.15.92-.128 1.69-.064 2.375.043 2.632.515 4.3 1.566 5.97 2.596 1.626 1.05 3.103 2.166 4.536 3.324 5.65 4.676 10.378 10.039 15.172 15.316l-.257.343c-5.607-4.355-10.87-9.116-16.69-13.149-1.456-1.008-2.932-1.973-4.451-2.831-1.52-.837-3.146-1.63-4.794-1.888a3.88 3.88 0 0 0-1.22 0c-.385.064-.684.215-1.09.472-.771.45-1.541.88-2.333 1.287-1.584.815-3.231 1.566-4.964 2.06-1.734.492-3.574.793-5.414.535-1.84-.193-3.574-1.18-4.943-2.273-1.434-1.051-2.846-2.167-4.109-3.475-1.24-1.309-2.31-2.939-2.589-4.805-.3-1.887.278-3.754 1.177-5.32.899-1.587 2.097-2.981 3.467-4.16 2.76-2.339 6.034-3.926 9.5-4.891h.086c2.846.493 5.5 1.608 8.003 2.938 2.503 1.352 4.814 3.046 6.912 4.955l-.279.322.043-.064Z"/><path fill="#F8E3AF" d="M67.511 108.708c-5.841 5.426-12.154 10.038-18.53 14.521-3.232 2.188-6.442 4.419-9.78 6.478l-4.985 3.11c-1.734.944-3.381 2.017-5.157 2.939l-.129-.172c12.176-9.91 25.207-18.682 38.474-27.069l.107.171v.022Z"/><path fill="#F0D697" d="M75.685 126.189a1157.994 1157.994 0 0 0-15.192 11.798c-5.115 3.861-10.186 7.765-15.193 11.797l-.278-.322c1.519-3.217 3.53-5.855 5.734-8.279 1.049-1.266 2.269-2.317 3.424-3.475 1.198-1.094 2.46-2.081 3.68-3.132 1.306-.944 2.611-1.887 3.938-2.788 1.39-.815 2.718-1.738 4.194-2.446 2.889-1.522 5.927-2.831 9.394-3.517l.257.343.042.021Z"/><path fill="#F8E3AF" d="M37.34 129.321c-4.622-1.073-8.945-1.223-12.326.064-1.647.708-3.145 1.523-4.386 2.831-1.284 1.18-2.44 2.725-3.36 4.355-.984 1.523-1.519 3.11-1.69 4.676-.257 1.566.064 3.132.706 4.676 1.37 2.981 4.622 5.727 9.372 5.448l.172.408a9.548 9.548 0 0 1-6.848.236 10.79 10.79 0 0 1-5.478-4.205c-1.327-1.951-1.99-4.332-1.926-6.692.065-2.359.835-4.676 2.012-6.692 2.332-3.968 6.077-7.443 10.72-8.344 4.622-.944 9.373.472 13.246 2.874l-.214.365Z"/><path fill="#F0D697" d="M52.254 131.251c-2.075 1.952-4.15 3.883-6.27 5.728l-6.205 5.555c-2.075 1.802-4.044 3.711-5.97 5.556a47.434 47.434 0 0 0-5.093 5.727l.664-1.438s-.064.601-.086.944c0 .365 0 .751.021 1.137.065.751.193 1.459.428 2.102.471 1.266 1.07 2.317 2.14 3.153 1.027.858 2.482 1.437 4.109 1.888 1.562.45 3.595.729 5.114.708 3.295.043 5.692-1.137 7.104-4.419a17.358 17.358 0 0 0 1.198-5.448c.086-.987.107-1.974.043-2.982-.064-.986-.085-2.059-.406-2.981l.363-.236c1.049 1.909 1.37 3.99 1.627 6.049.192 2.08.128 4.204-.407 6.263-.514 2.038-1.626 4.011-3.317 5.32-1.69 1.351-3.83 1.952-5.927 2.123-2.118.15-4.194-.021-6.248-.45-2.054-.429-4.087-1.202-5.8-2.489-1.711-1.287-3.038-3.131-3.637-5.19a13.29 13.29 0 0 1-.32-6.35v-.085l.063-.065c1.755-2.252 3.81-4.182 5.928-6.027 2.118-1.845 4.344-3.561 6.612-5.212 4.536-3.304 9.222-6.349 14.037-9.202l.214.364.021-.043Z"/><path fill="#CBA946" d="M58.096 127.219c.193-.858.642-1.309 1.156-1.652.534-.3 1.134-.493 1.99-.279-.193.858-.642 1.309-1.156 1.652-.535.3-1.134.493-1.99.279Z"/><path fill="#D3B45F" d="M115.015 114.756c.022.365 0 .815-.15 1.223-.149.429-.535.815-.984 1.008-.449.214-.942.257-1.391.236a4.43 4.43 0 0 1-1.348-.257l1.241-.451c-.192.686-.556 1.566-1.605 2.081-.513.236-1.112.3-1.626.193-.535-.107-.899-.236-1.412-.579l2.118-.558c-.171.45-.385.922-.813 1.33-.407.407-.92.686-1.434.815-.492.15-.984.172-1.412.15a4.31 4.31 0 0 1-1.327-.236l1.926-.536c-.278.365-.599.751-1.07 1.051a3.226 3.226 0 0 1-1.583.579c-.557.064-1.091 0-1.562-.107a4.79 4.79 0 0 1-1.37-.622l2.269-.086c-.814.729-1.991 1.416-3.403 1.501a5.267 5.267 0 0 1-2.011-.278c-.664-.258-1.134-.472-1.776-1.073l2.503.15c-.62.429-1.048.644-1.647.858-.578.193-1.22.343-1.948.322-.706 0-1.476-.214-2.14-.579-.663-.365-1.133-.88-1.497-1.394l2.567.321c-.556.386-.941.58-1.497.794a5.043 5.043 0 0 1-1.776.322c-.642 0-1.391-.193-1.948-.558-.577-.365-.984-.858-1.284-1.33l2.14.343c-.492.301-.813.408-1.284.537-.428.107-.92.171-1.433.107a3.129 3.129 0 0 1-1.434-.515c-.428-.279-.728-.643-.963-.987l1.455.322a3.019 3.019 0 0 1-1.24.236c-.407 0-.857-.107-1.2-.343-.727-.451-1.09-1.116-1.283-1.695l1.027.344c-.45.171-.792.171-1.22.128a2.167 2.167 0 0 1-1.07-.45c-.599-.494-.791-1.18-.877-1.759l.193-.086c.192.536.513 1.051.984 1.351.47.279 1.091.279 1.584.043l.106-.064.065.107c.214.451.535.858.963 1.051.427.215.962.172 1.39-.021l.107-.043.065.086c.363.45.877.793 1.455.815.578.021 1.155-.193 1.626-.515l.128-.086.086.129c.428.622 1.091 1.03 1.84 1.008.728 0 1.455-.365 2.033-.794l.15-.107.107.15c.492.665 1.24 1.116 2.054 1.094.813 0 1.626-.343 2.29-.815l.15-.107.128.107c.578.515 1.39.837 2.182.794.792-.043 1.562-.429 2.183-.965l.107-.086.128.086c.45.3 1.028.514 1.584.45.556-.043 1.027-.386 1.391-.837l.085-.107.129.043c.535.193 1.155.279 1.712.172a1.754 1.754 0 0 0 1.219-1.073l.064-.193.172.129c.449.343 1.07.558 1.605.343.534-.214.877-.751 1.134-1.287l.064-.129.128.065c.642.3 1.391.515 2.076.3.706-.193 1.048-.922 1.134-1.652l.214.043-.043.043Z"/><path fill="#F2D58B" d="M115.015 114.756c-.085.73-.471 1.609-1.284 1.845-.77.236-1.562 0-2.268-.3l.171-.065c-.257.58-.62 1.18-1.262 1.438-.664.257-1.37.021-1.905-.365l.236-.064c-.214.6-.771 1.136-1.413 1.265s-1.284.043-1.904-.15l.193-.064c-.386.493-.942.922-1.627.986-.663.065-1.284-.15-1.84-.515h.235c-.663.558-1.497 1.009-2.396 1.073a3.478 3.478 0 0 1-2.504-.901h.278c-.749.536-1.604.901-2.546.901-.942 0-1.819-.536-2.354-1.266h.257c-.663.515-1.434.858-2.268.88-.856.043-1.648-.493-2.097-1.158l.235.042c-.535.365-1.177.601-1.84.558-.663 0-1.284-.429-1.67-.944l.172.043c-.514.236-1.113.258-1.626 0-.514-.257-.856-.708-1.091-1.201l.17.064c-.577.279-1.262.279-1.818-.064-.535-.343-.856-.901-1.07-1.458l.192-.086c.3.515.77.901 1.156 1.051.214.064.406.064.6.021.17-.043.427-.15.513-.236l.428-.472.577.815c.257.344.557.537.77.558.108 0 .193 0 .3-.021.086 0 .278-.108.257-.129l1.455.322c.3.257.492.3.706.236a1.31 1.31 0 0 0 .386-.15c.128-.065.342-.215.363-.279l.471-1.137 1.669 1.48c.364.343.492.279.706.257.129-.021.3-.086.514-.171.17-.086.47-.279.535-.365l1.027-1.137 1.54 1.459c.364.343.493.407.77.407.15 0 .365-.043.6-.15.214-.086.535-.279.642-.343l1.733-1.437.77 1.587s.279.193.407.236c.171.064.342.107.492.107.321 0 .728-.171 1.199-.536l.534-.429 1.734.343s.171.129.235.15a.7.7 0 0 0 .214.065c.064.021.128.043.342-.172l1.113-1.029.813.493s.3.129.45.172c.171.042.299.064.406.064.171 0 .193.064.385-.193l2.376-3.132-.257 2.574s.192.193.257.236a.943.943 0 0 0 .214.107c.128.043.492-.214.791-.665l.642-.943.599.514c.193.151.514.344.771.451.278.107.556.171.813.15.513 0 1.006-.515 1.262-1.244l.214.043.15-.022Z"/><path fill="#DBB43C" d="M97.362 111.346c-.043-2.145-.043-4.29 0-6.413h.064c.192.536.342 1.072.428 1.608.085.537.085 1.073.128 1.609-.043.536-.043 1.073-.128 1.609a6.42 6.42 0 0 1-.428 1.609h-.064v-.022Z"/><path fill="#CBA946" d="M97.576 118.789a11.274 11.274 0 0 1-.428-1.823c-.086-.601-.086-1.223-.129-1.823.043-.601.043-1.223.129-1.824.064-.6.214-1.222.428-1.823h.064c.043 2.424.043 4.869 0 7.293h-.064Z"/><path fill="#F7DB92" d="M97.576 118.789a138.103 138.103 0 0 1 0-7.293h.107c.385.601.556 1.223.706 1.823.15.601.128 1.223.214 1.824-.064.6-.064 1.222-.214 1.823-.15.6-.321 1.222-.706 1.823h-.107Z"/><path fill="#DBB43C" d="m92.504 104.933.129 3.153c.043 1.051.064 2.102.214 3.153h-.064a5.077 5.077 0 0 1-.578-1.523c-.129-.536-.15-1.051-.214-1.587 0-.537 0-1.051.064-1.588a6.877 6.877 0 0 1 .385-1.587h.064v-.021Z"/><path fill="#FFF4CA" d="M92.504 104.933c.385.514.578 1.029.728 1.565.15.515.171 1.051.257 1.566-.065.515 0 1.051-.129 1.566-.107.536-.235 1.051-.535 1.609h-.107c-.342-2.081-.342-4.183-.342-6.285h.107l.021-.021Z"/><path fill="#DBB43C" d="M88.225 104.933c-.086 1.952-.129 3.925.235 5.834h-.064a4.341 4.341 0 0 1-.642-1.394c-.129-.494-.15-.987-.214-1.502.021-.493.021-1.008.128-1.501.086-.494.257-.987.492-1.459h.065v.022Z"/><path fill="#FFF4CA" d="M88.246 104.933c.342.514.492 1.008.62 1.48.129.472.129.965.215 1.415-.065.472-.022.944-.129 1.416-.107.472-.214.965-.47 1.501h-.108c-.449-1.909-.406-3.903-.235-5.834h.107v.022Z"/><path fill="#DBB43C" d="M84.63 103.474c-.557 1.737-.813 3.582-.664 5.383h-.064a4.013 4.013 0 0 1-.47-1.372c-.086-.472-.043-.966 0-1.437.106-.472.192-.944.385-1.373.17-.451.449-.858.791-1.223h.064l-.042.022Z"/><path fill="#F7DB92" d="M84.651 103.495c.214.558.257 1.008.3 1.48.043.451-.043.88-.022 1.309-.128.407-.15.836-.3 1.265-.17.429-.299.858-.641 1.351h-.107c-.236-1.823.021-3.689.684-5.426l.108.043-.022-.022Z"/><path fill="#DBB43C" d="M81.484 102.766c-.15 1.909-.3 3.84-.192 5.77h-.065a4.364 4.364 0 0 1-.47-1.437c-.086-.493-.065-.987-.086-1.48.064-.493.086-.965.214-1.459.107-.472.3-.943.556-1.415h.065l-.022.021Z"/><path fill="#F7DB92" d="M81.506 102.766c.32.515.449 1.008.556 1.502.107.493.064.965.128 1.437-.085.472-.085.922-.235 1.394-.15.472-.3.922-.642 1.437h-.107c-.193-1.93-.043-3.861.193-5.77h.107Z"/><path fill="#DBB43C" d="M103.396 104.933c.214.536.364 1.072.428 1.608.085.537.043 1.094.064 1.631-.086.536-.107 1.093-.257 1.63a5.41 5.41 0 0 1-.663 1.544h-.064c.385-2.123.449-4.29.449-6.435h.064l-.021.022Z"/><path fill="#FFF4CA" d="M103.417 104.933c.086 2.145.022 4.311-.449 6.435h-.107c-.257-.622-.364-1.159-.449-1.695-.086-.536-.043-1.051-.086-1.566.107-.515.107-1.051.278-1.566.15-.536.343-1.051.706-1.587h.107v-.021Z"/><path fill="#DBB43C" d="M107.547 104.203c.257.429.428.858.557 1.287.128.451.149.901.235 1.33 0 .45 0 .901-.043 1.351a4.456 4.456 0 0 1-.406 1.352h-.065c-.021-1.781-.171-3.561-.342-5.341h.064v.021Z"/><path fill="#FFF4CA" d="M107.569 104.203c.256 1.78.406 3.561.342 5.363h-.107c-.364-.451-.556-.88-.728-1.309-.171-.429-.171-.858-.278-1.308.043-.451 0-.88.107-1.33.107-.451.236-.901.557-1.394h.107v-.022Z"/><path fill="#DBB43C" d="M110.243 103.238c.3.364.535.751.685 1.137.171.386.257.815.364 1.222.021.429.107.858.064 1.287-.021.429-.128.88-.321 1.309h-.064c-.086-1.673-.428-3.304-.792-4.955h.064Z"/><path fill="#F7DB92" d="M110.265 103.238c.449 1.609.791 3.282.791 4.976h-.107c-.385-.407-.599-.793-.791-1.158-.193-.386-.236-.772-.385-1.158 0-.408-.086-.816-.022-1.245.064-.429.15-.879.407-1.372h.107v-.043Z"/><path fill="#DBB43C" d="M113.389 102.68c.235.343.406.708.513 1.073.107.364.129.729.193 1.094-.021.364 0 .75-.086 1.115a3.911 3.911 0 0 1-.406 1.115h-.064c-.022-1.458-.129-2.917-.236-4.375h.064l.022-.022Z"/><path fill="#F7DB92" d="M113.41 102.68c.193 1.459.3 2.917.236 4.397h-.107a3.28 3.28 0 0 1-.706-1.072c-.172-.365-.172-.708-.257-1.073.043-.364 0-.729.128-1.094.129-.364.257-.75.599-1.158h.107Z"/><path fill="#CBA946" d="M92.954 118.446a6.433 6.433 0 0 1-.557-1.716c-.107-.579-.107-1.18-.128-1.78.064-.601.085-1.18.235-1.759a7 7 0 0 1 .62-1.695h.065c-.278 2.317-.385 4.633-.171 6.95h-.064Z"/><path fill="#F7DB92" d="M92.932 118.446c-.32-2.317-.214-4.676.171-6.971h.107c.3.643.386 1.222.493 1.801.085.58.064 1.137.106 1.695-.085.558-.085 1.115-.213 1.694-.129.58-.257 1.137-.578 1.759h-.107l.021.022Z"/><path fill="#CBA946" d="M102.219 118.617a9.842 9.842 0 0 1-.3-1.737c-.064-.579-.021-1.137-.064-1.716.064-.558.043-1.137.129-1.695.042-.557.171-1.115.235-1.716h.064c.236 1.116.214 2.274.214 3.411a60.48 60.48 0 0 1-.214 3.432h-.064v.021Z"/><path fill="#F7DB92" d="M102.198 118.617c.064-1.136.107-2.295.128-3.432.021-1.136.064-2.295-.128-3.41h.107c.492.472.706 1.094.877 1.673.171.579.15 1.18.214 1.759-.086.579-.107 1.158-.278 1.737-.171.579-.385 1.137-.813 1.673h-.107Z"/><path fill="#CBA946" d="M88.845 118.188a5.96 5.96 0 0 1-.513-1.694c-.086-.579-.065-1.158-.065-1.738.086-.579.15-1.158.343-1.716.17-.557.45-1.093.813-1.565h.064c-.62 2.187-.749 4.461-.578 6.692h-.064v.021Z"/><path fill="#F7DB92" d="M88.824 118.188c-.257-2.252-.129-4.568.599-6.713l.107.043c.192.643.235 1.201.278 1.758.064.558-.021 1.073 0 1.609-.107.536-.128 1.073-.257 1.609-.15.536-.3 1.094-.62 1.694h-.107Z"/><path fill="#CBA946" d="M85.55 117.867a7.888 7.888 0 0 1-.385-1.673c-.086-.558-.065-1.116-.086-1.652.064-.558.064-1.094.171-1.652a6.496 6.496 0 0 1 .492-1.63h.065l-.193 6.607h-.064Z"/><path fill="#F7DB92" d="M85.528 117.867c-.02-2.21.022-4.419.193-6.607h.107c.342.579.492 1.137.62 1.673.129.558.108 1.094.15 1.652-.085.536-.085 1.094-.256 1.652-.15.536-.343 1.094-.728 1.63h-.107.021Z"/><path fill="#CBA946" d="M83.025 116.751a5.757 5.757 0 0 1-.75-1.802c-.17-.622-.192-1.287-.235-1.93.043-.644.065-1.309.236-1.931.15-.643.428-1.244.77-1.801h.064c-.599 2.445-.556 5.04 0 7.464h-.085Z"/><path fill="#F7DB92" d="M83.004 116.773c-.664-2.446-.685-5.063 0-7.508h.106c.215.729.257 1.351.343 1.952.064.601.021 1.201.107 1.78-.064.601-.022 1.18-.107 1.802-.064.622-.15 1.244-.364 1.931h-.107l.022.043Z"/><path fill="#CBA946" d="M105.429 118.188a9.55 9.55 0 0 1-.214-1.715c-.043-.558 0-1.116 0-1.652l.128-1.63c.043-.537.129-1.073.107-1.652h.064c.407 1.051.364 2.209.364 3.303a35.412 35.412 0 0 1-.342 3.346h-.107Z"/><path fill="#F7DB92" d="M105.407 118.188c.15-1.115.236-2.23.257-3.346.043-1.094.107-2.252-.257-3.303l.107-.043c.578.408.835 1.051 1.006 1.609.193.6.171 1.18.214 1.759-.086.579-.128 1.158-.321 1.716-.193.557-.449 1.094-.899 1.608h-.107Z"/><path fill="#CBA946" d="M108.553 117.18c-.086-.643-.171-1.265-.171-1.887-.022-.622 0-1.223 0-1.823.064-.601.042-1.202.085-1.802.022-.601.086-1.201.107-1.866h.064c.642 2.402.386 4.955 0 7.378h-.085Z"/><path fill="#F7DB92" d="M108.531 117.18a26.68 26.68 0 0 0 .3-3.689c.043-1.223 0-2.467-.3-3.668h.107c.535.472.814 1.115 1.006 1.759.214.643.193 1.287.257 1.952-.086.643-.128 1.287-.321 1.909-.214.622-.471 1.222-.942 1.78h-.107v-.043Z"/><path fill="#CBA946" d="M111.506 116.151c-.022-.665-.064-1.309-.064-1.952 0-.644.021-1.266 0-1.888.042-.622 0-1.244 0-1.887 0-.644 0-1.266.064-1.952h.064a15.072 15.072 0 0 1 0 7.679h-.064Z"/><path fill="#F7DB92" d="M111.484 116.151c.3-1.244.428-2.553.407-3.818a16.594 16.594 0 0 0-.407-3.84h.107c.514.515.835 1.137 1.049 1.802.235.665.257 1.351.342 2.038-.064.686-.107 1.372-.321 2.016-.214.643-.513 1.287-1.048 1.823h-.107l-.022-.021Z"/><path fill="#002179" d="M130.422 13.02c-7.19.043-14.401.644-21.548 1.502-7.147.88-14.251 2.059-21.291 3.56C73.48 21 59.637 25.204 46.413 30.995l-.129-.3c6.184-3.883 12.775-7.1 19.622-9.652 6.826-2.617 13.888-4.548 21.013-6.114 3.574-.708 7.169-1.351 10.785-1.866 3.616-.429 7.233-.9 10.892-1.072 7.275-.472 14.593-.344 21.847.686v.322l-.021.021Z"/><path fill="#002179" d="M49.066 57.979c-1.54-4.333-2.29-8.88-2.718-13.428a97.686 97.686 0 0 1-.278-13.706v-.172l.171-.086c13.203-5.877 27.07-10.21 41.192-13.213a239.62 239.62 0 0 1 21.377-3.432c7.168-.815 14.379-1.351 21.612-1.351h.128l.086.086c3.124 3.153 5.371 6.992 7.339 10.896a85.815 85.815 0 0 1 4.858 12.205l-.407.129c-.877-1.995-1.947-3.926-2.889-5.877a76.355 76.355 0 0 0-3.188-5.642c-1.113-1.823-2.375-3.539-3.616-5.212-1.263-1.652-2.632-3.196-4.109-4.44l1.776.75c-6.975.43-14.122 1.352-21.12 2.339-7.018 1.115-14.037 2.209-20.948 3.775-6.955 1.394-13.824 3.196-20.65 5.105-6.804 1.973-13.566 4.14-20.22 6.65l1.583-2.274c-.279 2.123-.45 4.397-.578 6.628-.086 2.23-.214 4.482-.214 6.713 0 2.253.064 4.505.278 6.736.235 2.23.47 4.483.963 6.713l-.407.15-.021-.042Z"/><path fill="#0A0003" d="M89.188 42.32c1.776-.45 3.552-.858 5.328-1.265.856-.193 1.712-.365 2.567-.536l2.996 2.638c-1.626.343-3.252.686-4.879 1.05-1.07.215-2.14.451-3.21.709l-2.802-2.574v-.022Z"/><path fill="#002179" d="M142.619 35.864c-16.134.45-32.247 2.145-47.996 5.598-15.728 3.454-31.22 8.602-45.322 16.495l-.043-.086a130.942 130.942 0 0 1 10.635-5.834c3.66-1.737 7.404-3.303 11.192-4.762 7.596-2.874 15.428-5.04 23.324-6.842 7.938-1.652 15.941-2.96 24.008-3.711 4.023-.365 8.068-.644 12.112-.837 4.044-.128 8.088-.15 12.111-.128v.107h-.021Z"/><path fill="#DBB43C" d="M115.443 105.512c-.043.472-.086.986-.364 1.48-.149.236-.385.493-.727.579a1.437 1.437 0 0 1-1.027-.107l.684-.172c-.235.536-.492 1.137-1.134 1.609-.299.236-.749.386-1.198.386-.471-.043-.813-.15-1.241-.472l1.241-.172c-.342.622-.792 1.266-1.562 1.759a2.862 2.862 0 0 1-1.37.429c-.535 0-.962-.043-1.562-.386l1.52-.236c-.578.901-1.348 1.845-2.547 2.381a4.535 4.535 0 0 1-1.947.429c-.706-.021-1.284-.107-2.076-.536l1.498-.064c-.963.772-2.289 1.265-3.573 1.244a6.044 6.044 0 0 1-1.862-.301c-.62-.193-1.091-.429-1.712-.836l1.883-.215c-.577.579-1.027.794-1.626 1.051-.578.215-1.22.279-1.819.236-1.22-.107-2.204-.686-2.995-1.287l1.733-.15c-.578.558-1.049.729-1.648.923-.578.15-1.198.15-1.755.042-1.134-.214-1.947-.858-2.632-1.48l1.284.086a5.03 5.03 0 0 1-1.776.558c-.62.086-1.326 0-1.947-.279a3.105 3.105 0 0 1-1.39-1.33c-.3-.536-.429-1.094-.514-1.609l.941.322c-.3.172-.578.279-.877.343-.3.065-.62.108-.942.043-.663-.086-1.177-.579-1.39-1.094h.363c-.235.258-.578.494-.941.365l.042-.15c.236.064.493-.15.642-.386l.065-.108.064.108c.278.407.684.729 1.177.75.47.022.963-.171 1.37-.45l.106-.086.043.129c.257.922.749 1.866 1.626 2.231.878.364 1.905.085 2.718-.386l.085-.043.065.064c.599.493 1.305.922 2.075 1.051.75.15 1.584-.086 2.119-.601l.085-.085.086.064c.663.493 1.412.879 2.225.944a2.773 2.773 0 0 0 2.161-.815l.086-.086.107.064a5.43 5.43 0 0 0 2.675.88c.941.043 1.883-.279 2.653-.858l.064-.065.086.043c.792.451 1.819.472 2.653.086.856-.386 1.562-1.072 2.119-1.823l.064-.086.107.064c.492.322 1.177.301 1.69 0 .535-.3.942-.793 1.284-1.308l.064-.107.086.085c.385.344.984.408 1.412.108.45-.258.771-.73 1.027-1.201l.043-.086.086.064a.827.827 0 0 0 1.134-.236c.278-.364.406-.815.513-1.287l.15.043.15-.064Z"/><path fill="#4A4242" d="M136.349 72.565c-11.576-4.848-23.773-5.877-30.171-6.05l-.792-6.477h.792c5.97.129 16.583.965 27.56 4.633l2.632 7.872-.021.022ZM135.258 76.726c-9.694-3.904-19.879-5.17-27.155-5.513l-.855-2.23c7.425.257 18.231 1.458 28.673 5.662l-.663 2.06v.02Z"/><path fill="#CBA946" d="M122.975 89.489c.664 3.325 1.049 6.65 1.241 10.017.172 3.346.129 6.714-.385 10.017.236-3.325 0-6.65-.428-9.931a70.104 70.104 0 0 0-2.011-9.696l1.562-.386.021-.021ZM73.631 89.338c-.941 3.26-1.562 6.714-1.862 10.167-.3 3.454-.256 6.95.343 10.404-.877-3.389-1.177-6.929-1.134-10.447.043-3.517.385-7.035 1.112-10.531l1.541.407Z"/><path fill="#fff" d="M53.495 64.843c.642 2.36 1.113 4.697 1.755 6.971.62 2.274 1.156 4.547 2.225 6.628 1.049 2.038 2.59 3.882 4.687 4.89 2.054 1.073 4.515 1.266 6.89.966v.15c-2.311.493-4.879.558-7.211-.386-2.354-.944-4.194-2.853-5.478-4.998-1.306-2.145-2.226-4.483-2.675-6.907-.428-2.424-.578-4.869-.342-7.314h.15ZM87.561 130.265c1.391 1.523 2.953 2.938 4.665 3.861.877.45 1.776.622 2.59.75.834.151 1.69 0 2.76-.343l.107.129c-.471 1.029-1.648 1.802-2.91 1.845-1.284.064-2.354-.623-3.21-1.266-1.776-1.33-3.082-3.046-4.109-4.869l.129-.086-.022-.021ZM62.29 115.357c-1.027 1.094-2.161 2.059-3.231 3.11l-3.402 2.875c-2.29 1.887-4.687 3.56-7.04 5.362-2.483 1.609-4.858 3.325-7.404 4.848l-3.83 2.231c-1.327.665-2.611 1.415-4.002 1.994l-.086-.128 14.401-10.275 14.487-10.145.086.128h.021ZM23.902 129.75c-3.06 2.059-5.842 4.74-7.447 8.108-.813 1.651-1.198 3.518-1.005 5.362.192 1.845.984 3.582 2.054 5.105l-.129.086c-1.519-1.201-2.76-2.96-3.167-5.041-.47-2.08-.064-4.311.813-6.199a13.975 13.975 0 0 1 3.724-4.719 14.374 14.374 0 0 1 5.093-2.831l.085.129h-.021ZM32.74 149.634c-1.007 1.115-1.863 2.402-2.226 3.861-.385 1.437-.107 3.024.749 4.225.813 1.244 2.054 2.145 3.38 2.853 1.327.708 2.761 1.18 4.216 1.566l-.043.15c-1.605.15-3.23 0-4.772-.601-1.54-.557-3.06-1.523-4.13-3.088-.492-.794-.877-1.716-1.005-2.682-.086-.965 0-1.93.364-2.767.642-1.694 1.925-2.895 3.338-3.646l.128.107v.022ZM82.511 99.506c-1.027-2.21-1.005-4.526-.556-6.736.257-1.093.642-2.187 1.241-3.195.556-1.009 1.39-1.931 2.418-2.553l.128.086c-1.134 1.823-1.776 3.925-2.225 6.006-.47 2.102-.77 4.247-.834 6.392h-.172ZM87.412 100.021c-1.263-1.245-1.498-2.789-1.413-4.226.171-1.437.728-2.896 2.161-3.882l.15.043a19.528 19.528 0 0 0-.727 3.99c-.15 1.33-.193 2.702-.022 4.032h-.15v.043ZM91.905 99.613c-1.198-.708-1.52-1.673-1.562-2.596.021-.922.342-1.952 1.584-2.638h.15c-.13.88-.172 1.759-.13 2.617 0 .858.022 1.737.13 2.595h-.15l-.022.022ZM10.4 48.691c-1.498 1.073-2.846 2.36-3.874 3.904-1.005 1.502-1.647 3.39-1.22 5.148.386 1.78 1.777 3.175 3.317 4.14 1.563.965 3.317 1.609 5.072 2.123l-.043.15c-1.926 0-3.873-.3-5.692-1.2-1.797-.859-3.638-2.467-4.215-4.848-.514-2.403.428-4.676 1.733-6.22 1.284-1.61 2.996-2.682 4.815-3.325l.085.128h.021ZM15.492 37.795c.043-1.523 1.113-2.767 2.29-3.604a8.272 8.272 0 0 1 4.066-1.523c1.455-.107 3.017.28 4.108 1.287 1.134.987 1.712 2.424 1.99 3.84h-.15c-.813-1.266-1.712-2.295-2.653-2.875-.963-.557-2.012-.75-3.167-.643-1.156.064-2.332.429-3.467.965-1.09.58-2.225 1.201-2.846 2.574h-.15l-.02-.021ZM29.144 60.66c3.253.386 6.12 1.802 8.73 3.582 2.526 1.845 4.922 4.226 5.992 7.358l-.128.107c-1.905-2.403-4.28-4.376-6.783-6.135a56.327 56.327 0 0 0-7.853-4.762l.064-.15h-.022ZM161.235 41.827c-.535-2.188-.984-4.376-.599-6.821.15-1.223.92-2.703 2.14-3.518 1.198-.793 2.332-1.094 3.424-1.415 1.005-.258 2.289-.601 3.552-.558 1.262.021 2.589.322 3.702 1.008 2.289 1.351 3.295 3.775 3.616 5.963l-.15.064c-.792-1.994-2.054-3.946-4.001-4.912-1.969-.986-4.237-.686-6.291-.043-1.049.3-2.097.58-2.996 1.137-.92.558-1.477 1.523-1.733 2.574-.514 2.102-.471 4.333-.471 6.5h-.171l-.022.021ZM172.512 47.962c.257-1.888 1.626-3.625 3.295-4.676a8.947 8.947 0 0 1 5.928-1.33 7.511 7.511 0 0 1 3.017 1.201c.877.644 1.626 1.48 2.097 2.402.984 1.845 1.048 3.883.684 5.706h-.171c-.171-1.759-.599-3.518-1.562-4.998a6.183 6.183 0 0 0-4.279-2.724c-1.734-.279-3.531.086-5.115.858-1.562.794-2.974 1.995-3.723 3.625l-.15-.064h-.021Z"/><path fill="#002179" d="M47.183 43.328c4.536-2.252 9.18-4.182 13.887-6.006a224.831 224.831 0 0 1 14.294-4.933c9.63-2.96 19.451-5.255 29.401-6.778-9.907 1.694-19.686 4.161-29.23 7.271a218.4 218.4 0 0 0-14.144 5.17c-4.643 1.887-9.265 3.925-13.694 6.22l-.493-.944h-.021ZM47.74 51.2c3.573-1.715 7.146-3.195 10.784-4.632a247.69 247.69 0 0 1 10.956-4.011 313.961 313.961 0 0 1 22.318-6.736c-7.404 2.338-14.722 4.89-21.933 7.744a257.913 257.913 0 0 0-10.72 4.504c-3.531 1.587-7.04 3.239-10.4 5.04l-.984-1.908h-.022ZM137.226 25.869c-7.04.321-14.165.986-21.141 2.424 6.805-2.124 13.845-3.518 20.949-4.548l.171 2.145.021-.021ZM52.875 22.008c5.285-2.832 10.656-5.384 16.134-7.744 5.457-2.36 11.02-4.504 16.67-6.349-5.522 2.167-10.914 4.655-16.22 7.314-5.286 2.682-10.486 5.535-15.493 8.623l-1.091-1.844Z"/><path fill="#DBB43C" d="M97.383 99.591c-.385-.88-.47-1.737-.492-2.595 0-.858.107-1.716.492-2.596.45.858.556 1.738.578 2.596-.022.88-.129 1.759-.578 2.595ZM103.139 99.591c-.171-.965-.171-1.802-.171-2.638 0-.837 0-1.609-.043-2.574.813.6 1.091 1.651 1.113 2.574 0 .944-.257 1.888-.899 2.638ZM107.847 99.506c-.043-1.394-.043-2.681-.15-3.968a59.858 59.858 0 0 0-.171-1.93l-.278-1.996c.962 1.051 1.412 2.467 1.519 3.861.064 1.395-.15 2.832-.92 4.033ZM112.79 98.862c-.257-1.78-.407-3.453-.706-5.126-.279-1.673-.685-3.26-1.498-4.848.749.515 1.305 1.287 1.712 2.08.428.816.663 1.695.834 2.575.15.9.214 1.78.15 2.681-.064.9-.193 1.78-.492 2.638Z"/></g><path fill="#fff" d="M90.231 30.013c-.015.273.08.54.263.744.184.204.442.327.717.343h.057a1.046 1.046 0 0 0 .954-.622 1.021 1.021 0 0 0-.2-1.115 1.042 1.042 0 0 0-1.112-.26 1.04 1.04 0 0 0-.478.353 1.023 1.023 0 0 0-.203.556l.002.001ZM86.355 29.75a.338.338 0 0 0-.322.188.33.33 0 0 0 .052.366.336.336 0 0 0 .568-.331.332.332 0 0 0-.299-.223ZM90.165 24.037a.335.335 0 0 0 .184-.322.331.331 0 0 0-.23-.29.339.339 0 0 0-.36.098.332.332 0 0 0 .15.533.34.34 0 0 0 .256-.019ZM91.22 25.86a.517.517 0 0 0 .284-.498.512.512 0 0 0-.355-.45.525.525 0 0 0-.556.153.512.512 0 0 0 .432.848.522.522 0 0 0 .195-.053ZM87.67 27.112a.43.43 0 0 0 .632-.195.42.42 0 0 0-.097-.46.43.43 0 0 0-.719.387.42.42 0 0 0 .184.268ZM88.302 29.565a.524.524 0 0 0-.496.29.51.51 0 0 0 .08.566.52.52 0 0 0 .906-.313.512.512 0 0 0-.131-.372.522.522 0 0 0-.359-.171ZM87.727 33.023a.426.426 0 0 0-.234.41.421.421 0 0 0 .293.37.433.433 0 0 0 .458-.126.422.422 0 0 0-.356-.699.431.431 0 0 0-.16.045ZM89.746 28.502a.615.615 0 0 0 .901-.28.6.6 0 0 0-.138-.658.613.613 0 0 0-1.027.555.603.603 0 0 0 .264.383ZM96.15 25.819a.524.524 0 0 0 .766-.24.51.51 0 0 0-.119-.56.522.522 0 0 0-.874.274.508.508 0 0 0 .226.526ZM97.215 24.002a.337.337 0 0 0 .495-.154.33.33 0 0 0-.076-.362.337.337 0 0 0-.565.176.328.328 0 0 0 .146.34ZM96.231 29.033a1.05 1.05 0 0 0-.751.26 1.031 1.031 0 0 0-.347.71 1.018 1.018 0 0 0 .262.744 1.037 1.037 0 0 0 .717.343h.06c.27-.003.527-.11.719-.296a1.026 1.026 0 0 0-.662-1.763l.002.002ZM91.562 28.43a1.03 1.03 0 0 0 .93.568 1.047 1.047 0 0 0 .884-.49 1.024 1.024 0 0 0-.34-1.418 1.042 1.042 0 0 0-1.53.557c-.087.258-.067.54.056.784ZM99.714 27.111a.427.427 0 0 0 .234-.41.421.421 0 0 0-.293-.37.431.431 0 0 0-.458.125.422.422 0 0 0 .356.7.432.432 0 0 0 .161-.045ZM97.078 27.439a.608.608 0 0 0-.334.585.603.603 0 0 0 .418.53.617.617 0 0 0 .654-.18.603.603 0 0 0-.508-.998.614.614 0 0 0-.23.063ZM93.682 23.847a.432.432 0 0 0 .41-.24.42.42 0 0 0-.28-.594.432.432 0 0 0-.448.156.421.421 0 0 0 .318.678ZM93.677 26.514a.616.616 0 0 0 .585-.342.6.6 0 0 0-.095-.666.612.612 0 0 0-1.066.369.598.598 0 0 0 .345.58.616.616 0 0 0 .23.059ZM90.365 32.695a.61.61 0 0 0 .335-.586.602.602 0 0 0-.419-.53.616.616 0 0 0-.654.18.603.603 0 0 0 .271.97.616.616 0 0 0 .467-.034ZM94.072 27.397a1.022 1.022 0 0 0 .104 1.26 1.042 1.042 0 0 0 1.26.21c.203-.11.364-.282.457-.492a1.02 1.02 0 0 0-.312-1.226 1.046 1.046 0 0 0-1.509.248ZM95.88 31.703a1.048 1.048 0 0 0-1.57-.349 1.03 1.03 0 0 0-.362 1.088 1.045 1.045 0 0 0 1.47.645 1.035 1.035 0 0 0 .522-.597 1.019 1.019 0 0 0-.06-.787ZM97.696 31.632a.616.616 0 0 0-.901.28.6.6 0 0 0 .138.658.613.613 0 0 0 1.027-.556.606.606 0 0 0-.264-.382ZM99.687 30.084a.51.51 0 0 0-.293-.492.524.524 0 0 0-.571.08.513.513 0 0 0 .316.897.523.523 0 0 0 .375-.13.514.514 0 0 0 .173-.355ZM101.126 29.718a.338.338 0 0 0-.323.188.331.331 0 0 0 .219.467.34.34 0 0 0 .353-.122.333.333 0 0 0-.249-.533ZM99.771 33.02a.43.43 0 0 0-.63.197.42.42 0 0 0 .096.46.429.429 0 0 0 .719-.388.424.424 0 0 0-.185-.268ZM90.227 36.132a.338.338 0 0 0-.496.153.33.33 0 0 0 .076.362.337.337 0 0 0 .564-.305.333.333 0 0 0-.144-.21ZM97.276 36.097a.334.334 0 0 0-.18.322.33.33 0 0 0 .23.29.34.34 0 0 0 .358-.1.331.331 0 0 0-.28-.548.337.337 0 0 0-.128.036ZM93.37 32.737a1.022 1.022 0 0 0-.105-1.26 1.041 1.041 0 0 0-1.258-.21 1.02 1.02 0 0 0-.145 1.717 1.045 1.045 0 0 0 1.508-.247ZM91.293 34.315a.524.524 0 0 0-.768.237.51.51 0 0 0 .118.56.521.521 0 0 0 .873-.471.515.515 0 0 0-.223-.326ZM93.716 36.286a.431.431 0 0 0-.41.239.42.42 0 0 0 .276.595.431.431 0 0 0 .45-.153.422.422 0 0 0-.316-.68ZM93.72 33.62a.616.616 0 0 0-.586.34.6.6 0 0 0 .396.85.618.618 0 0 0 .642-.22.603.603 0 0 0-.451-.97ZM96.22 34.274a.517.517 0 0 0-.283.498.513.513 0 0 0 .355.45.524.524 0 0 0 .557-.152.512.512 0 0 0-.231-.825.523.523 0 0 0-.397.03Z"/></svg>