<svg xmlns="http://www.w3.org/2000/svg" width="233" height="27" fill="none"><path fill="#fff" d="M18.386 8.578c-.403-.998-1.021-1.716-1.852-2.156-.832-.44-1.972-.659-3.421-.659-1.64 0-2.88.178-3.724.534-.843.357-1.265.88-1.265 1.568 0 .642.226 1.117.677 1.426.452.308 1.33.57 2.637.784l5.487.89c3.302.523 5.684 1.408 7.145 2.655 1.46 1.247 2.191 2.987 2.191 5.22 0 2.684-1.08 4.715-3.242 6.093C20.857 26.311 17.662 27 13.434 27c-4.229 0-7.454-.748-9.675-2.245C1.54 23.26.285 21.002 0 17.985h7.483c.237 1.212.831 2.102 1.781 2.672.95.57 2.34.856 4.17.856 1.71 0 3.028-.214 3.955-.642.926-.427 1.39-1.033 1.39-1.817 0-.594-.256-1.057-.767-1.39-.51-.332-1.395-.594-2.654-.784l-4.526-.677c-3.492-.522-6.045-1.437-7.66-2.743C1.555 12.153.747 10.36.747 8.08c0-2.448 1.117-4.36 3.35-5.738C6.33.964 9.418.276 13.362.276c3.658 0 6.491.63 8.499 1.888 2.007 1.26 3.236 3.16 3.688 5.701l-7.163.713Z"/><path fill="#fff" d="M40.443 26.359v-2.317c-.998.998-2.084 1.723-3.26 2.174-1.176.451-2.536.677-4.08.677-2.518 0-4.454-.493-5.808-1.479-1.355-.986-2.032-2.405-2.032-4.258 0-2.019.873-3.54 2.62-4.56 1.745-1.022 4.471-1.58 8.177-1.675l4.133-.107v-.82c0-.76-.296-1.348-.89-1.764-.594-.415-1.437-.623-2.53-.623-1.093 0-1.99.154-2.69.463-.701.309-1.135.736-1.301 1.283l-6.307-.463c.451-1.972 1.538-3.433 3.26-4.383 1.723-.95 4.116-1.426 7.18-1.426 6.533 0 9.8 2.53 9.8 7.59V26.36h-6.272Zm-.25-7.947-3.705.107c-1.663.048-2.85.232-3.563.553-.713.32-1.07.849-1.07 1.585 0 1.14 1.093 1.71 3.279 1.71.807 0 1.55-.094 2.227-.284.677-.19 1.23-.463 1.657-.82.784-.665 1.175-1.425 1.175-2.28v-.57ZM62.57 26.359V15.562c0-1.093-.255-1.889-.765-2.387-.511-.5-1.313-.749-2.405-.749-.594 0-1.176.113-1.746.339-.57.226-1.07.54-1.497.944-.808.736-1.212 1.592-1.212 2.566v10.084H47.89V7.652h6.913v2.6c1.972-2.114 4.418-3.17 7.34-3.17 2.352 0 4.187.623 5.505 1.87 1.319 1.247 1.978 3 1.978 5.256v12.15h-7.055ZM91.754 19.125c-.357 2.518-1.461 4.448-3.314 5.79-1.853 1.343-4.347 2.014-7.483 2.014-2.256 0-4.21-.38-5.861-1.14-1.651-.76-2.928-1.883-3.83-3.368-.904-1.485-1.355-3.248-1.355-5.291 0-3.112.992-5.565 2.975-7.358 1.984-1.794 4.698-2.69 8.142-2.69 1.925 0 3.611.267 5.06.801 1.45.535 2.631 1.336 3.546 2.405.914 1.07 1.514 2.352 1.8 3.849l-6.878.641c-.404-1.663-1.556-2.494-3.456-2.494-1.283 0-2.28.415-2.993 1.247-.713.831-1.07 1.995-1.07 3.492 0 1.52.357 2.684 1.07 3.492.712.808 1.722 1.211 3.028 1.211 2.162 0 3.385-.867 3.67-2.6h6.949ZM106.541 26.359V15.562c0-1.093-.255-1.889-.766-2.387-.51-.5-1.312-.749-2.405-.749-.594 0-1.176.113-1.746.339-.57.226-1.069.54-1.496.944-.808.736-1.212 1.592-1.212 2.566v10.084h-7.055V.917h7.055v9.193c1.948-2.019 4.347-3.029 7.198-3.029 2.352 0 4.187.624 5.505 1.871 1.318 1.247 1.978 3 1.978 5.256v12.15h-7.056ZM137.043 16.952c0 3.088-1.045 5.523-3.136 7.304-2.09 1.782-4.953 2.673-8.587 2.673-3.635 0-6.45-.861-8.445-2.584-1.996-1.722-2.993-4.139-2.993-7.25 0-3.113 1.045-5.56 3.135-7.341 2.091-1.782 4.953-2.673 8.588-2.673 3.634 0 6.449.862 8.445 2.584 1.995 1.722 2.993 4.15 2.993 7.287Zm-7.127.035c0-1.52-.38-2.684-1.14-3.492-.76-.807-1.865-1.211-3.314-1.211-1.425 0-2.524.404-3.296 1.211-.772.808-1.158 1.984-1.158 3.528 0 1.52.38 2.684 1.14 3.492.761.808 1.865 1.211 3.314 1.211 1.426 0 2.524-.403 3.296-1.211.772-.808 1.158-1.984 1.158-3.528ZM187.677 26.359l-12.899-15.465V26.36h-7.127V.917h6.628l12.899 15.464V.917h7.126v25.442h-6.627ZM201.894 18.662c.119 1.164.576 2.049 1.372 2.655.796.605 1.894.908 3.296.908 2.257 0 3.634-.63 4.133-1.888h6.521c-.974 4.394-4.585 6.592-10.832 6.592-3.54 0-6.283-.843-8.231-2.53-1.948-1.687-2.922-4.074-2.922-7.162 0-1.972.451-3.724 1.354-5.256s2.209-2.732 3.919-3.599c1.711-.867 3.73-1.3 6.058-1.3 3.444 0 6.117.849 8.017 2.547 1.901 1.699 2.851 4.104 2.851 7.216v1.817h-15.536Zm8.979-3.741c-.118-2.138-1.591-3.207-4.418-3.207-1.164 0-2.156.297-2.975.89-.82.594-1.301 1.366-1.443 2.317h8.836Z"/><path fill="#fff" d="M232.823 25.824c-1.805.594-3.741.891-5.808.891-2.661 0-4.591-.558-5.79-1.675-1.2-1.116-1.8-2.933-1.8-5.451v-6.806h-3.563V7.652h3.563V2.734h7.056v4.918h5.558v5.13h-5.558v6.308c0 .831.207 1.443.623 1.835.416.392 1.087.588 2.013.588.784 0 1.734-.167 2.851-.5l.855 4.811ZM141.74 5.157c1.323 0 3.475 1.174 4.776 2.583.492-.66 1.171-1.215 1.984-1.657 1.06-.577 2.318-.926 3.187-.926h2.035V6.94h-2.035c-.557 0-1.526.269-2.336.71-.51.277-.933.602-1.251.967h2.068c1.512 0 3.167.809 5 2.375l-1.088 1.274c.388.108.791.268 1.16.47a4.37 4.37 0 0 1 1.122.853c.886-.84 2.146-1.482 2.987-1.482h1.56v1.781h-1.56c-.143 0-.565.164-.996.42h.226c1.014 0 2.111.523 3.33 1.522l-1.129 1.378c-.735-.602-1.355-.95-1.841-1.071.092.08.18.16.263.236.757.695 1.119 1.779 1.147 3.21l-1.781.034c-.02-.99-.23-1.62-.571-1.932a15.663 15.663 0 0 0-.848-.717c.071 2.877-.298 5.406-1.114 7.584l2.454-.012.009 1.782-14.749.072-.009-1.782 3.943-.019c-1.595-3.714-2.271-8.138-2.036-13.266a29.514 29.514 0 0 0-2.11 1.716c-.661.6-1.038 1.72-1.07 3.399l-1.782-.035c.042-2.124.572-3.7 1.653-4.682.443-.404.973-.845 1.59-1.327h-.978c-.976 0-2.269.634-3.837 1.953l-1.147-1.364c1.859-1.563 3.506-2.37 4.984-2.37h1.941a7.534 7.534 0 0 0-.996-.76c-.854-.55-1.771-.917-2.155-.917h-2.478V5.157h2.478Zm5.693 6.103c-.258 5.269.479 9.707 2.201 13.322l4.476-.021c.897-2.055 1.32-4.532 1.26-7.436-.372.364-.636.683-.791.953-.309.538-.461 1.047-.468 1.534l-1.782-.026c.012-.805.251-1.606.706-2.396.199-.346.481-.71.85-1.096-.549.049-1.268.407-2.132 1.113l-.636-.777-.455.007c-.013-.852-.283-1.733-.823-2.649-.407-.689-1.21-1.538-2.406-2.528Zm5.628 2.627h-1.177c.127.298.233.595.317.893l.07-.034c.604-.29 1.183-.44 1.741-.44h.395c-.441-.257-.946-.419-1.346-.419Zm-1.688-1.005c.147.25.279.5.396.75v-1.526h1.292c.233 0 .501.034.783.099-1.467-1.22-2.703-1.808-3.676-1.808h-1.002c1.029.91 1.764 1.735 2.207 2.485Zm12.87-9.497.26 1.763c-1.31.192-2.108.81-2.514 1.92-.269.734-1.287.79-1.634.089-.582-1.17-1.363-1.817-2.387-2.016l.339-1.749a4.75 4.75 0 0 1 2.747 1.604l.047.055.002-.003c.72-.884 1.75-1.44 3.051-1.65l.089-.013ZM157.295 0l.259 1.763c-1.31.192-2.107.81-2.513 1.919-.27.735-1.287.79-1.635.09-.581-1.171-1.362-1.817-2.387-2.016l.34-1.75a4.75 4.75 0 0 1 2.747 1.605l.047.054.001-.002c.721-.884 1.75-1.44 3.052-1.65l.089-.013Z"/><path fill="#05839A" d="M147.866 13.541c.758 0 1.373-.613 1.373-1.369s-.615-1.369-1.373-1.369c-.759 0-1.374.613-1.374 1.37 0 .755.615 1.368 1.374 1.368Z"/><path fill="#fff" d="M147.866 9.913a2.262 2.262 0 0 1 2.264 2.26 2.262 2.262 0 0 1-2.264 2.26 2.263 2.263 0 0 1-2.265-2.26 2.263 2.263 0 0 1 2.265-2.26Zm0 1.781a.48.48 0 0 0-.483.478.48.48 0 0 0 .483.479.48.48 0 0 0 .483-.479.48.48 0 0 0-.483-.478Z"/><path fill="#05839A" d="M145.119 13.83c.758 0 1.373-.613 1.373-1.37 0-.755-.615-1.368-1.373-1.368-.759 0-1.374.613-1.374 1.369s.615 1.369 1.374 1.369Z"/><path fill="#fff" d="M145.119 10.2a2.262 2.262 0 0 1 2.264 2.26 2.262 2.262 0 0 1-2.264 2.26 2.263 2.263 0 0 1-2.265-2.26 2.262 2.262 0 0 1 2.265-2.26Zm0 1.783a.48.48 0 0 0-.483.478.48.48 0 0 0 .483.478.48.48 0 0 0 .482-.478.48.48 0 0 0-.482-.479Z"/></svg>