<svg xmlns="http://www.w3.org/2000/svg" width="165" height="25" fill="none" viewbox="0 0 165 25"><g clip-path="url(#a)"><path fill="#fff" d="M37.57 22.87c-1.705 0-3.164-.256-4.376-.768-1.213-.511-2.132-1.183-2.757-2.017-.625-.833-.957-1.742-.995-2.727 0-.152.057-.289.17-.412a.556.556 0 0 1 .427-.185h2.586a.86.86 0 0 1 .512.142c.133.095.256.228.37.398.189.644.62 1.184 1.292 1.62.673.435 1.596.653 2.771.653 1.326 0 2.326-.223 2.998-.668.673-.445 1.01-1.056 1.01-1.832 0-.512-.171-.938-.512-1.279-.341-.34-.858-.639-1.55-.894-.69-.256-1.718-.564-3.083-.924-2.235-.53-3.874-1.23-4.916-2.102-1.042-.871-1.563-2.121-1.563-3.75 0-1.098.303-2.079.91-2.94.606-.862 1.472-1.54 2.6-2.032 1.127-.492 2.439-.738 3.936-.738 1.572 0 2.931.274 4.078.824 1.146.549 2.017 1.235 2.614 2.06.597.823.915 1.642.952 2.457a.593.593 0 0 1-.17.412.556.556 0 0 1-.427.184h-2.7c-.416 0-.7-.17-.852-.511-.095-.606-.464-1.113-1.108-1.52-.644-.407-1.44-.61-2.387-.61-1.042 0-1.862.198-2.459.596-.596.398-.895.975-.895 1.733 0 .511.152.937.455 1.278.303.341.777.64 1.42.895.645.256 1.583.545 2.814.867 1.687.378 3.027.804 4.022 1.278.994.473 1.728 1.07 2.202 1.79s.71 1.638.71 2.755c0 1.232-.336 2.297-1.008 3.196-.673.9-1.62 1.587-2.842 2.06-1.222.474-2.638.71-4.249.71ZM51.012 22.87c-.966 0-1.852-.195-2.657-.583-.805-.388-1.44-.914-1.904-1.577a3.731 3.731 0 0 1-.696-2.187c0-1.288.52-2.33 1.563-3.125 1.042-.796 2.472-1.335 4.291-1.62l3.894-.568v-.596c0-.815-.209-1.43-.626-1.847-.416-.417-1.08-.625-1.989-.625-.625 0-1.127.114-1.506.341-.38.227-.687.46-.924.696l-.469.469c-.075.227-.218.34-.426.34h-2.217a.628.628 0 0 1-.44-.17.59.59 0 0 1-.185-.454c.02-.474.251-1.009.696-1.605.446-.597 1.132-1.118 2.06-1.563.93-.445 2.075-.668 3.44-.668 2.235 0 3.864.502 4.887 1.506 1.024 1.004 1.535 2.32 1.535 3.949v8.92c0 .19-.061.35-.185.483a.646.646 0 0 1-.497.2h-2.359a.658.658 0 0 1-.483-.2.657.657 0 0 1-.199-.483v-1.107c-.417.605-1.004 1.103-1.762 1.49-.758.39-1.705.583-2.842.583Zm.967-2.728c1.042 0 1.894-.34 2.557-1.023.663-.681.995-1.666.995-2.954v-.568l-2.842.454c-2.179.341-3.268 1.07-3.268 2.188 0 .606.251 1.074.753 1.406.502.331 1.104.497 1.805.497ZM61.812 22.585a.658.658 0 0 1-.483-.199.658.658 0 0 1-.2-.483V8.494c0-.208.067-.374.2-.497a.684.684 0 0 1 .483-.184h2.359c.208 0 .374.061.497.184a.672.672 0 0 1 .185.497V9.66c1.156-1.42 2.737-2.13 4.746-2.13 1.743 0 3.126.568 4.149 1.704 1.023 1.136 1.534 2.699 1.534 4.688v7.982c0 .19-.061.35-.184.483a.646.646 0 0 1-.498.2h-2.557a.658.658 0 0 1-.483-.2.658.658 0 0 1-.2-.483v-7.812c0-1.099-.27-1.956-.81-2.571-.54-.616-1.311-.923-2.315-.923-.967 0-1.743.312-2.33.937-.588.625-.882 1.477-.882 2.557v7.812c0 .19-.061.35-.184.483a.646.646 0 0 1-.498.2h-2.53ZM83.438 22.87c-2.084 0-3.746-.578-4.987-1.734-1.241-1.155-1.9-2.755-1.975-4.8l-.029-1.137.029-1.136c.076-2.046.734-3.646 1.975-4.802 1.24-1.155 2.903-1.733 4.987-1.733 1.497 0 2.762.266 3.794.796 1.033.53 1.8 1.179 2.302 1.946.502.767.772 1.5.81 2.202a.554.554 0 0 1-.185.482.706.706 0 0 1-.497.2h-2.53c-.208 0-.36-.043-.454-.128-.095-.086-.19-.242-.284-.47-.284-.719-.659-1.24-1.123-1.562-.464-.322-1.056-.483-1.776-.483-.966 0-1.72.303-2.26.91-.54.606-.828 1.534-.866 2.784l-.028 1.05.028.938c.114 2.462 1.156 3.693 3.126 3.693.739 0 1.336-.156 1.79-.468.455-.313.825-.838 1.109-1.577.076-.208.166-.36.27-.455.104-.094.26-.142.469-.142h2.529c.19 0 .355.067.497.2a.554.554 0 0 1 .185.482c-.038.663-.303 1.378-.796 2.145-.492.767-1.25 1.425-2.273 1.974-1.023.55-2.302.824-3.837.824ZM92.162 22.585a.658.658 0 0 1-.483-.199.658.658 0 0 1-.198-.483V3.097c0-.209.066-.374.198-.498a.684.684 0 0 1 .483-.184h2.587c.208 0 .374.061.497.184a.672.672 0 0 1 .185.498v6.477c1.136-1.364 2.662-2.046 4.575-2.046 1.743 0 3.136.573 4.178 1.72 1.042 1.145 1.563 2.703 1.563 4.672v7.983c0 .19-.062.35-.185.483a.646.646 0 0 1-.497.2h-2.586a.694.694 0 0 1-.512-.2.656.656 0 0 1-.199-.483v-7.812c0-1.099-.27-1.956-.81-2.571-.54-.616-1.312-.923-2.316-.923-.966 0-1.743.312-2.33.937-.588.625-.881 1.477-.881 2.557v7.812c0 .19-.062.35-.185.483a.646.646 0 0 1-.497.2h-2.587ZM114.074 22.87c-2.236 0-3.96-.569-5.173-1.705-1.212-1.137-1.866-2.709-1.96-4.716l-.029-1.25.029-1.25c.094-1.989.757-3.556 1.989-4.702 1.231-1.146 2.946-1.719 5.144-1.719 2.178 0 3.884.573 5.115 1.72 1.232 1.145 1.895 2.712 1.989 4.7.019.228.029.645.029 1.25a17.8 17.8 0 0 1-.029 1.25c-.094 2.008-.748 3.58-1.961 4.717-1.212 1.136-2.927 1.704-5.143 1.704Zm0-2.87c1.004 0 1.776-.313 2.316-.938.54-.625.829-1.543.867-2.755.019-.19.028-.559.028-1.108 0-.55-.009-.919-.028-1.108-.038-1.212-.332-2.135-.881-2.77-.55-.634-1.317-.952-2.302-.952-1.004 0-1.781.318-2.331.952-.549.635-.843 1.558-.881 2.77l-.028 1.108.028 1.108c.038 1.212.332 2.13.881 2.756.55.625 1.327.937 2.331.937ZM123.538 22.585a.66.66 0 0 1-.484-.199.66.66 0 0 1-.199-.483V3.41c0-.208.062-.379.185-.511a.646.646 0 0 1 .498-.2h2.216c.36 0 .635.162.824.484l8.128 12.613V3.41c0-.208.062-.379.185-.511a.646.646 0 0 1 .497-.2h2.444c.209 0 .379.067.512.2a.695.695 0 0 1 .199.511v18.466a.695.695 0 0 1-.199.511.66.66 0 0 1-.483.2h-2.245c-.379 0-.664-.162-.853-.484l-8.099-12.33v12.131c0 .19-.062.35-.185.483a.646.646 0 0 1-.497.2h-2.444ZM147.153 22.87c-2.122 0-3.803-.607-5.044-1.819-1.241-1.212-1.899-2.935-1.975-5.17l-.029-.71c0-2.368.621-4.233 1.862-5.597 1.241-1.364 2.96-2.046 5.158-2.046 2.254 0 3.993.682 5.215 2.046 1.222 1.364 1.833 3.182 1.833 5.454v.597c0 .19-.066.35-.199.483a.694.694 0 0 1-.512.199h-9.435v.227c.038 1.06.327 1.937.867 2.628.54.691 1.284 1.037 2.231 1.037 1.08 0 1.961-.436 2.643-1.307.17-.208.303-.336.398-.383.094-.048.256-.072.483-.072h2.501c.17 0 .317.048.44.142a.474.474 0 0 1 .185.398c0 .455-.27.99-.81 1.605-.54.616-1.312 1.151-2.316 1.605-1.004.455-2.169.682-3.496.682Zm3.098-8.978v-.057c0-1.117-.279-2.012-.838-2.684-.559-.673-1.322-1.009-2.288-1.009-.966 0-1.724.336-2.274 1.009-.549.672-.824 1.567-.824 2.684v.057h6.224ZM161.988 22.585c-1.724 0-3.022-.45-3.893-1.35-.872-.899-1.307-2.22-1.307-3.962v-6.42h-2.246a.659.659 0 0 1-.483-.2.66.66 0 0 1-.199-.483V8.494c0-.19.067-.35.199-.483a.659.659 0 0 1 .483-.199h2.246V3.097c0-.209.066-.374.198-.498a.686.686 0 0 1 .484-.184h2.358c.209 0 .374.061.498.184.123.124.184.29.184.498v4.715h3.553c.189 0 .35.067.483.2a.66.66 0 0 1 .199.482v1.676a.66.66 0 0 1-.199.483.659.659 0 0 1-.483.2h-3.553v6.107c0 .815.142 1.43.427 1.847.284.417.748.625 1.392.625h1.99c.208 0 .374.061.497.184a.672.672 0 0 1 .185.498v1.79c0 .189-.062.35-.185.482a.646.646 0 0 1-.497.2h-2.331ZM12.318 0c2.174 0 4.71.252 7.613.755a5.399 5.399 0 0 1 4.389 4.342c.459 2.496.689 4.79.689 6.881 0 2.216-.259 4.854-.774 7.916l-.002.008-.01.06a5.399 5.399 0 0 1-4.292 4.337l-.067.012c-2.56.46-4.971.689-7.234.689-2.299 0-4.794-.237-7.486-.711l-.068-.013a5.399 5.399 0 0 1-4.318-4.39C.253 16.95 0 14.444 0 12.366c0-2.054.247-4.476.74-7.269A5.399 5.399 0 0 1 5.108.72C7.73.252 10.083.012 12.166 0h.152Zm0 1.42c-2.031 0-4.352.233-6.96.698A3.978 3.978 0 0 0 2.15 5.286l-.01.057c-.48 2.717-.72 5.059-.72 7.021 0 1.99.246 4.418.739 7.282A3.978 3.978 0 0 0 5.39 22.89c2.614.46 5.028.69 7.24.69 2.176 0 4.503-.222 6.983-.667a3.978 3.978 0 0 0 3.22-3.255l.002-.008.029-.17c.473-2.854.714-5.313.723-7.374v-.128c0-2-.22-4.21-.665-6.624a3.978 3.978 0 0 0-3.233-3.2l-.18-.03c-2.753-.47-5.15-.704-7.19-.704Z"/><path fill="#fff" d="m4.832 6.522 6.433 15.074-1.306.558L3.525 7.08l1.307-.558Z"/><path fill="#fff" d="M3.95 7.449a.968.968 0 0 0 .964-.972.968.968 0 0 0-.965-.97.968.968 0 0 0-.965.97c0 .537.432.971.965.971Z"/><path fill="#fff" d="M10.224 3.75c1.09-.716 1.95-1.038 2.797-.866.84.17 1.628.695 2.373 1.55l.029.033.05-.019c.963-.356 1.757-.542 2.395-.553h.058c.588 0 1.02.046 1.34.167.601.227.894.805.582 1.408-.024.046-.06.154-.093.294a3.76 3.76 0 0 0-.085.608 4.04 4.04 0 0 0 .215 1.605c.123.34.431.855.884 1.484.132.182.275.373.428.572l.018.025.041.052c.416.532 1.427 1.758 1.49 1.869.295.513.072 1.105-.527 1.246-.183.043-.289.045-.806.042l-.201-.001h-.058c-.788 0-2.017.215-2.813.51a15.451 15.451 0 0 0-.6.237c-.05.021-.774.328-.958.401-.397.158-.634.231-.87.231a.831.831 0 0 1-.702-.381 1.091 1.091 0 0 1-.162-.445c-.028-.172-.03-.305-.029-.657l.001-.123V12.892a2.19 2.19 0 0 0-.035-.408c-.02-.094-.06-.138-.148-.163-.22-.062-.62.009-1.187.286-.214.105-.441.222-.686.352-.214.114-.44.237-.693.378-.077.042-.38.214-.701.393l-.088.05c-.292.164-.582.326-.71.396-.545.299-.93.49-1.244.607-.361.135-.66.207-.923.207-.443 0-.83-.215-.97-.659a.71.71 0 0 1-.033-.23c.047-1.888-.117-3.263-.468-4.103-.337-.806-1.055-1.58-2.175-2.315a.71.71 0 0 1 .196-1.277c1.463-.414 2.583-.896 3.356-1.437.12-.084.249-.176.412-.295.073-.053.363-.266.436-.318.352-.258.607-.437.864-.606Zm2.513.526c-.369-.075-.935.137-1.733.66-.234.154-.472.321-.807.566l-.436.319c-.17.124-.305.221-.435.312-.643.45-1.454.85-2.432 1.206l-.026.009.066.06c.679.612 1.175 1.268 1.483 1.973l.029.068c.387.927.577 2.228.585 3.92v.082l.028-.01c.222-.086.535-.241.973-.48l.058-.031c.115-.063.366-.204.632-.353l.09-.05c.341-.192.683-.385.769-.432.261-.146.494-.273.717-.391.258-.137.499-.261.728-.373 1.703-.834 3.065-.45 3.348.85a3.438 3.438 0 0 1 .068.78v.058l.015-.007.252-.105.075-.032.412-.174a19.004 19.004 0 0 1 .652-.258c.833-.308 1.999-.533 2.916-.586l.068-.003-.09-.11-.088-.11-.089-.11-.058-.073a23.993 23.993 0 0 1-.89-1.16c-.526-.73-.89-1.336-1.069-1.835-.376-1.047-.383-2.274-.157-3.117l.002-.009-.021-.001a6.218 6.218 0 0 0-.396-.014h-.05c-.542 0-1.371.217-2.461.66a.71.71 0 0 1-.834-.228c-.662-.873-1.3-1.35-1.894-1.471Z"/><path fill="#fff" fill-rule="evenodd" d="M5.35 7.07c1.54-.43 2.735-.94 3.584-1.53 1.275-.882 2.79-2.2 3.976-1.96.791.159 1.567.735 2.328 1.729 1.172-.473 2.085-.71 2.74-.71.981 0 1.502.144 1.296.537-.205.393-.48 1.908 0 3.236-1.912 0-1.762 1.205-3.336.913-.887-.164-1.727-1.783-2.551-1.318-2.166 1.22-5.053 2.977-5.235 2.546C7.744 9.085 6.81 7.938 5.35 7.07Z" clip-rule="evenodd"/><path fill="#000" d="M8.848 8.158a.224.224 0 0 0 .138-.285.224.224 0 0 0-.285-.14.224.224 0 0 0-.138.285c.04.117.168.18.285.14ZM8.92 7.605a.224.224 0 0 0 .138-.286.224.224 0 0 0-.284-.14.224.224 0 0 0-.138.286c.04.117.168.18.284.14ZM9.029 7.004a.142.142 0 1 0-.093-.268.142.142 0 0 0 .093.268ZM8.85 6.484a.142.142 0 1 0-.092-.268.142.142 0 0 0 .092.268ZM8.084 6.854a.142.142 0 1 0-.092-.269.142.142 0 0 0 .092.269ZM7.788 8.435a.142.142 0 1 0-.092-.268.142.142 0 0 0 .092.268ZM10.84 7.385a.142.142 0 1 0-.092-.269.142.142 0 0 0 .092.269ZM8.979 9.452a.142.142 0 1 0-.093-.268.142.142 0 0 0 .093.268ZM9.633 6.32a.142.142 0 1 0-.092-.268.142.142 0 0 0 .092.268ZM10.529 8.919a.142.142 0 1 0-.093-.269.142.142 0 0 0 .093.269ZM9.81 9.272a.142.142 0 1 0-.093-.269.142.142 0 0 0 .093.269ZM8.377 7.704a.142.142 0 1 0-.092-.268.142.142 0 0 0 .092.268ZM8.211 8.29a.142.142 0 1 0-.092-.269.142.142 0 0 0 .092.269ZM10.417 7.53a.142.142 0 1 0-.092-.269.142.142 0 0 0 .092.27ZM10.3 6.805a.142.142 0 1 0-.093-.269.142.142 0 0 0 .092.269ZM10.754 8.128a.142.142 0 1 0-.092-.269.142.142 0 0 0 .092.269ZM7.858 7.645a.142.142 0 1 0-.093-.269.142.142 0 0 0 .093.269ZM8.313 8.968a.142.142 0 1 0-.093-.269.142.142 0 0 0 .093.269ZM8.686 8.602a.142.142 0 1 0-.093-.269.142.142 0 0 0 .093.269ZM9.926 7.17a.142.142 0 1 0-.092-.268.142.142 0 0 0 .092.269ZM10.236 8.068a.142.142 0 1 0-.093-.268.142.142 0 0 0 .093.268ZM9.63 8.752a.142.142 0 1 0-.092-.268.142.142 0 0 0 .092.268ZM9.1 9.04a.142.142 0 1 0-.092-.268.142.142 0 0 0 .092.269ZM8.433 7.104a.142.142 0 1 0-.092-.269.142.142 0 0 0 .092.269ZM10.18 8.669a.142.142 0 1 0-.092-.269.142.142 0 0 0 .092.269ZM9.512 6.732a.142.142 0 1 0-.092-.269.142.142 0 0 0 .092.269ZM9.23 8.502a.224.224 0 0 0 .138-.285.224.224 0 0 0-.285-.14.224.224 0 0 0-.138.285c.04.118.168.18.285.14ZM9.437 7.427a.224.224 0 0 0 .138-.285.224.224 0 0 0-.285-.14.224.224 0 0 0-.138.285c.04.117.168.18.285.14ZM9.745 8.325a.224.224 0 0 0 .138-.286.224.224 0 0 0-.284-.14.224.224 0 0 0-.138.286c.04.117.168.18.284.14ZM9.834 7.819a.224.224 0 0 0 .138-.286.224.224 0 0 0-.284-.14.224.224 0 0 0-.138.286c.04.117.168.18.284.14Z"/></g><defs><clipPath id="a"><path fill="#fff" d="M0 0h165v25H0z"/></clipPath></defs></svg>