<svg xmlns="http://www.w3.org/2000/svg" width="222" height="119" fill="none"><g><path fill="#171515" d="M126.975 70.21c-.269-.826-.041-1.033.786-1.054 1.324 3.388 1.737 8.242.186 9.399 0 0 .207-1.529-.496-2.562.083-.082.186-.247.207-.599.186-2.437-.145-3.553-.683-5.184ZM115.002 71.428c-.559 1.612-.187 3.532.144 4.772.104.372.186.681.248.909.187.743.373 1.012.497 1.095-.104 1.136.31 2.168.31 2.168-2.564-.495-3.185-6.01-2.151-9.853 1.014-.392 1.344-.289.952.91Z"/><path fill="#FAD833" d="M18.054 54.759c15.716-11.092 30.151-15.575 28.972-22.35-1.178-6.796-9.864-14.314-12.077-21.71a248.556 248.556 0 0 0 2.068-7.56c-.186 3.512 3.826 10.39 10.01 18.116a115.445 115.445 0 0 0 3.06 3.697c12.553 14.625-13.05 22.97-28.208 33.938-5.273 3.8-9.72 7.787-13.173 11.588 3.392-4.792 6.514-10.163 9.348-15.72ZM2.875 88.924c8.478 8.138 24.133-7.58 31.02-23.775 7.32-17.227 47.543-38.627 87.269-41.746 18.116-1.425 39.148 3.966 57.263 9.006 21.632 5.97 39.106 11.402 42.518 4.028-.537 1.9-1.716 4.69-3.308 7.953-12.574 3.883-32.075-4.69-46.179-7.953-14.124-3.243-39.209-8.469-65.618-4.028-26.408 4.42-47.254 15.513-58.814 26.688-11.56 11.154-17.433 36.582-36.624 36.148-2.73-2.107-5.273-4.235-7.527-6.32Z"/><path fill="#0030AE" d="M171.458 36.437c14.104 3.264 33.605 11.836 46.179 7.953-5.398 10.989-15.738 27.534-23.596 35.383-10.175 10.163-10.713 11.217-53.293 23.466-42.58 12.269-74.985 13.839-85.429 14.355-8.83.434-29.82-10.679-44.917-22.35 19.191.434 25.064-24.993 36.624-36.147 11.56-11.175 32.406-22.267 58.814-26.688 26.409-4.44 51.494.785 65.618 4.028Z"/><path fill="#061846" d="M47.026 32.41c1.18 6.774-13.256 11.257-28.972 22.349 8.168-16.07 13.917-33.773 16.895-44.06 2.213 7.396 10.899 14.914 12.077 21.71ZM43.821 1.467C56.063 5.557 70.478 7.91 71.16 8.035c-8.872 3.553-16.999 8.16-24.134 13.22C40.843 13.53 36.831 6.651 37.017 3.14c.207-.806.31-1.24.31-1.24.704-1.384 2.772-1.673 6.494-.433ZM220.945 36.437c-3.412 7.374-20.886 1.942-42.518-4.028-9.161-8.696-18.343-15.327-27.463-20.201 24.03 4.172 76.268 10.679 69.981 24.229Z"/><path fill="#0030AE" d="M178.427 32.41c-18.115-5.04-39.147-10.432-57.263-9.007-39.726 3.12-79.949 24.519-87.27 41.746-6.886 16.194-22.54 31.913-31.02 23.775l-.04-.041a11.119 11.119 0 0 1-1.49-1.818c-2.047-3.057.869-9.46 7.342-16.566 3.453-3.8 7.9-7.787 13.173-11.588 15.158-10.968 40.76-19.314 28.207-33.938a115.692 115.692 0 0 1-3.06-3.697c7.134-5.061 15.262-9.667 24.133-13.22h.021c22.975-9.213 50.956-11.258 79.783 4.172 9.12 4.875 18.302 11.506 27.464 20.202l.02-.02Z"/><path fill="#061846" d="M46.778 20.863c9.74-7.106 20.618-12.786 32.199-16.401C90.537.826 102.8-.723 114.919.31c12.118 1.095 23.927 4.75 34.66 10.328 5.376 2.789 10.526 6.031 15.385 9.605 4.84 3.615 9.41 7.58 13.753 11.774l-.579.599c-10.692-6.155-20.949-11.877-31.558-16.153-5.335-2.004-10.609-3.987-16.048-5.205-5.397-1.364-10.836-2.396-16.337-2.727-5.48-.599-11.022-.558-16.565-.124-5.583.248-11.105 1.301-16.71 2.355C69.755 13.137 58.71 17 47.255 21.544l-.476-.681Z"/><path fill="#FCE884" d="M34.598 10.906c.889-3.036 1.737-6.073 2.523-9.13l.393.104c-.063 3.738-.435 7.436-1.034 11.092l-1.903-2.045.02-.02Z"/><path fill="#002179" d="M17.909 54.325c2.792-5.577 5.253-11.34 7.548-17.123a294.534 294.534 0 0 0 9.14-26.275l1.903 2.045a108.01 108.01 0 0 1-1.55 7.705c-.663 3.098-1.614 6.093-2.482 9.13-.972 2.995-2.048 5.97-3.164 8.923-1.241 2.913-2.461 5.825-3.868 8.676a726.27 726.27 0 0 1-2.109 4.048l-2.647 2.087-2.771.805v-.02Z"/><path fill="#FCE884" d="M23.327 51.434c-.786 1.446-1.592 2.891-2.482 4.275-3.308 5.412-7.175 10.576-11.973 14.852l-.331-.248c3.536-5.081 6.617-10.452 9.389-15.988l2.77-.805 2.648-2.086h-.02Z"/><path fill="#FAED33" d="M9.037 94.873a122.568 122.568 0 0 1-6.555-5.66l.703-.764a236.727 236.727 0 0 0 11.622 6.816l-5.77-.372v-.02Z"/><path fill="#002179" d="M218.608 43.687c-1.22 2.582-2.543 5.06-3.887 7.58a199.46 199.46 0 0 1-8.314 13.861c-5.956 8.985-12.697 17.62-21.859 23.878-4.715 2.871-9.864 4.669-14.972 6.424-5.108 1.715-10.257 3.285-15.406 4.834-10.299 3.057-20.618 6.155-31.103 8.634-20.97 4.916-42.374 8.159-63.901 9.295l-4.054.186c-1.447.041-2.833-.186-4.198-.475-2.709-.578-5.273-1.487-7.796-2.499-5.025-2.045-9.844-4.524-14.518-7.209-6.803-4.008-13.4-8.387-19.563-13.344l5.77.372a205.064 205.064 0 0 0 16.585 8.118c4.777 2.127 9.616 4.089 14.373 5.494 2.378.661 4.715 1.301 6.762 1.549.993.124 1.944.145 2.379.042l3.825-.455c20.908-2.458 41.546-6.341 61.958-11.133 5.108-1.178 10.195-2.48 15.261-3.842 5.108-1.322 10.32-2.81 15.469-4.111 5.17-1.322 10.319-2.665 15.283-4.11 2.481-.724 4.901-1.508 7.238-2.273 2.316-.764 4.467-1.57 6.328-2.52 1.861-.93 3.536-2.086 5.439-3.676a455.53 455.53 0 0 0 5.707-4.937c3.599-3.326 7.031-7.312 10.361-11.361 3.433-4.007 6.618-8.242 9.823-12.497a150.788 150.788 0 0 0 3.019-4.152l3.991-1.694v.021Z"/><path fill="#FAED33" d="M214.617 45.38c.559-.784 1.096-1.569 1.634-2.354 1.53-2.19 2.999-4.42 4.219-6.775l.992.269c-.765 2.478-1.757 4.854-2.854 7.167l-3.991 1.694Z"/><path fill="#FFFBE9" d="M10.423 94.666c1.282 0 2.502.703 3.619.475 1.158-.248 1.944-1.301 3.246-1.797 1.241-.433 2.627-.268 3.454-.867.91-.62 1.261-1.9 2.44-2.83 1.158-.826 2.461-1.074 2.999-1.86.62-.743.703-2.147 1.737-3.345 1.075-1.095 2.254-1.529 2.626-2.355.435-.723.373-2.252 1.365-3.574 1.096-1.28 2.151-1.694 2.44-2.54.331-.661.249-2.314 1.262-3.656 1.158-1.364 2.13-1.715 2.399-2.582.29-.579.248-2.376 1.385-3.677 1.283-1.343 2.213-1.611 2.503-2.458.124-.269.31-.93.537-1.57.124-.33.27-.703.517-1.095l.187-.29.165-.226.083-.083c.124-.124.165-.186.393-.372.765-.64 1.323-.867 1.84-1.177.248-.145.455-.269.58-.393l.103-.082h.02l.083-.083c.083-.103.248-.248.269-.33.517-.661 1.075-2.045 2.295-3.181.559-.517 1.386-.95 1.965-1.198.62-.269 1.158-.496 1.572-.744.723-.33 1.282-1.198 2.171-2.293.414-.516 1.075-1.157 1.8-1.549.206-.145.826-.413 1.116-.496l.972-.33c.6-.186 1.096-.351 1.489-.537.062-.042.248-.124.207-.124l.372-.269.475-.454c.393-.393.828-.888 1.386-1.384.538-.496 1.386-1.012 2.089-1.24.868-.31 1.468-.392 2.047-.537a6.06 6.06 0 0 0 1.303-.413c.848-.433 1.489-1.301 2.874-2.251.145-.124.373-.207.538-.31.145-.062.103-.062.372-.186l.228-.083c.207-.103.827-.268 1.158-.33.744-.145 1.365-.207 1.882-.31.269-.041.496-.103.703-.165.062 0 .269-.103.186-.062l.414-.207a14.46 14.46 0 0 0 1.24-.888c.497-.392 1.117-.847 1.924-1.198l.29-.124.33-.103c.166-.041.269-.083.517-.145.496-.103.848-.144 1.2-.186.682-.062 1.282-.082 1.757-.165.249-.02.435-.082.62-.145a3.98 3.98 0 0 1 .332-.144c.165-.062.165-.103.268-.145.786-.392 1.82-1.446 3.681-1.941 1.696-.393 3.02-.124 3.868-.29.351-.04.806-.247 1.178-.433.455-.248.993-.579 1.675-.93.331-.165.704-.351 1.117-.475l.31-.103.27-.062h.123c.166-.041.27-.083.497-.103 1.034-.104 1.592 0 2.233 0 .6.04 1.117.04 1.448-.021-.042.02.62-.145.62-.186l.641-.29c.517-.247 1.138-.578 1.882-.825a5.59 5.59 0 0 1 1.324-.33l.475-.042h.703c1.593.082 2.689.372 3.35.227.786-.103 1.882-.764 3.495-1.157.89-.186 1.634-.144 2.503-.041.723.103 1.344.268 1.861.351.269.041.496.083.682.083h.228l.455-.062c.269-.062.889-.228 1.468-.434.6-.186 1.344-.434 2.233-.475.724-.041.642 0 1.2.041.496.062.848.145 1.179.227.661.166 1.24.352 1.716.434.248.062.434.062.621.083h.351c.186 0 .207-.062.31-.062.89-.103 2.151-.723 4.074-.64 1.613.144 2.916.826 3.764.97.765.186 1.675-.062 3.102-.31a6.711 6.711 0 0 1 1.158-.103h.641l.559.104c.868.165 1.551.454 2.13.681.579.248 1.075.413 1.468.496h.145l.041.041h-.041.124c.144 0 .331.042.434.02.165 0 .372 0 .662-.061.558-.062 1.179-.186 1.923-.227.724-.083 1.716.041 2.378.268.869.269 1.406.558 1.965.785.496.227 1.096.434 1.282.496.331.041.641.082.786.062.186 0 .496 0 .786-.041.579-.042 1.24-.124 2.026-.104 1.799.042 3.082.91 4.095 1.384 1.013.537 1.634.558 2.916.496.62-.02 1.303-.083 2.109.02.228.042.352.042.662.124l.455.145c.351.124.806.31 1.075.455 1.241.64 2.192 1.3 2.833 1.239.414 0 1.076-.145 1.903-.145.848-.041 1.861.413 2.42.868.558.413.992.785 1.282.888.31.124.661.124 1.303.083.599-.042 1.468-.124 2.357.248.807.35 1.365.888 1.779 1.198.475.35.641.454 1.137.495.393.042 1.055-.082 1.82-.062.372 0 .848.062 1.261.248.248.083.807.434 1.014.6.558.412.992.805 1.344.97l.124.062h.041-.02.124c.165.062.289.083.351.083h.786c.6-.02 1.365-.145 2.233.165 1.531.661 2.131 1.735 3.061 1.652.434.021 1.075-.103 1.758-.144.372 0 .744 0 1.158.124.248.062.744.289.972.454.579.351 1.055.723 1.51.91.103.02.248.082.31.082.145 0 .331.041.413.02.207 0 .517-.041.807-.103.6-.103 1.241-.31 2.047-.165.269.041.683.186.972.33.31.145.579.29.848.434.269.145.517.248.786.33l.351.063h.435c.496-.062 1.096-.31 1.716-.496 1.386-.537 2.647.351 3.764.475 1.199.124 2.068-1.012 3.309-1.405l.062.207c-1.117.351-2.006 1.611-3.392 1.528-1.261-.123-2.44-.909-3.619-.371-.579.185-1.137.475-1.799.578-.62.145-1.323-.103-1.861-.372-.579-.268-1.096-.578-1.696-.681-.579-.083-1.199.103-1.799.227-.62.124-1.261.248-1.903 0-.62-.227-1.116-.62-1.654-.91-1.075-.763-2.295-.268-3.578-.226-1.385.041-2.233-1.24-3.35-1.611-1.116-.393-2.44.31-3.701-.207-1.179-.537-1.944-1.715-3.227-1.653-.599 0-1.22.104-1.861.083-.641 0-1.282-.31-1.778-.702-.517-.372-.972-.785-1.51-1.012-.538-.228-1.158-.186-1.778-.124-.6.062-1.283.124-1.903-.124-.62-.248-1.096-.682-1.592-1.033-.497-.372-1.034-.62-1.634-.6-.6 0-1.199.145-1.861.166-1.365.041-2.42-.826-3.516-1.322-2.151-1.363-4.922.29-7.279-1.115-1.117-.537-2.213-1.198-3.433-1.178-1.2 0-2.482.31-3.743.124-1.303-.227-2.358-.95-3.516-1.301-1.179-.413-2.399-.124-3.639.041-2.668.62-4.798-1.797-7.259-1.136-1.2.186-2.461.6-3.764.31-1.261-.248-2.378-.847-3.598-.93-1.2-.082-2.358.434-3.619.64-1.282.29-2.565-.185-3.743-.474-1.179-.351-2.399-.227-3.557.206-1.158.413-2.482.785-3.743.496-1.262-.206-2.441-.578-3.619-.31-1.179.269-2.254.95-3.537 1.178-1.302.248-2.564-.145-3.763-.166-1.241-.103-2.296.475-3.433 1.033-.559.269-1.179.517-1.82.64-.641.124-1.282.083-1.903.042-1.24-.103-2.46-.124-3.536.475-1.075.537-2.15 1.343-3.454 1.529-1.282.165-2.543-.063-3.701.247-1.158.29-2.11 1.136-3.226 1.756-1.117.682-2.482.661-3.702.764-1.22.042-2.337.579-3.288 1.364-.951.764-2.11 1.528-3.392 1.652-1.24.207-2.502.248-3.515.93-1.014.64-1.82 1.673-2.958 2.272-1.178.599-2.481.64-3.598 1.033-1.179.35-1.985 1.322-2.874 2.21-1.737 2.107-4.922 1.487-6.37 3.635-.786.91-1.51 2.045-2.688 2.624-1.117.62-2.358.888-3.288 1.673-7.776 6.238-11.974 15.203-17.268 23.217-.807.93-.765 2.272-1.386 3.429-.661 1.157-2.006 1.57-2.833 2.437-.848.868-.972 2.21-1.8 3.243-.868 1.033-2.253 1.198-3.225 1.9-.972.703-1.427 2.004-2.503 2.748-1.158.723-2.502.454-3.64.847-1.137.372-2.005 1.466-3.308 1.694-1.344.186-2.46-.579-3.702-.579v-.206l.104.082ZM17.764 54.263c1.158-.806 2.668-.764 3.723-1.57 1.054-.785 1.613-2.19 2.936-2.83 1.282-.599 2.75-.516 3.764-1.425.972-.826 1.696-2.21 3.102-2.623 1.323-.434 2.771-.413 3.68-1.446.477-.455.89-1.012 1.386-1.487.497-.517 1.159-.827 1.841-1.033.662-.207 1.344-.31 1.944-.558.6-.227 1.096-.682 1.51-1.198.413-.516.765-1.095 1.24-1.632.497-.537 1.117-.867 1.717-1.198.6-.33 1.22-.62 1.633-1.074.414-.496.538-1.115.517-1.776-.02-.661-.206-1.281-.31-2.004-.082-.723.207-1.425.207-2.045.041-.661-.476-1.074-1.013-1.487-.559-.393-1.096-1.012-1.096-1.777-.083-.681-.02-1.384-.455-1.859-.414-.454-1.096-.681-1.655-1.136-.6-.516-.62-1.322-.723-1.962a2.814 2.814 0 0 0-.31-.888c-.228-.29-.456-.413-.766-.6-.558-.31-1.323-.64-1.55-1.363-.249-.702-.166-1.404-.435-1.983-.269-.599-.93-.826-1.489-1.26-.641-.35-.89-1.198-.848-1.859 0-.681 0-1.363-.496-1.838-.434-.496-1.076-.867-1.324-1.57l.207-.062c.31.558.93.826 1.489 1.322.166.145.29.31.393.434.124.186.207.413.269.599.103.413.124.764.186 1.095.103.723.186.888.682 1.156.248.145.559.269.91.476.145.082.414.268.6.454l.186.186c.166.186.166.248.269.392.269.476.33.93.393 1.26.062.31.165.723.186.703.145.268.083.165.29.31l.806.392c.186.103.33.145.62.372.125.082.29.227.352.289l.186.186c.538.723.58 1.115.703 1.55.083.392.145.701.207.887 0 0-.041-.062.083.145-.042-.062 0-.041.041 0 .062.062.352.186.641.33.166.083.331.166.559.31.144.062.64.496.723.6l.083.082.041.041h.021l.124.186c.083.186.166.351.248.496.104.289.187.599.228.826.083.496.103.847.124 1.074 0 .165.041.124 0 .083l.083.206v.062c.103.145-.062-.165-.042-.144 0 0 .145.144.414.35.269.249.517.331 1.096 1.013.351.372.703 1.343.641 1.88 0 .578-.083 1.032-.124 1.322 0 .124-.041.33-.041.31v.247h.02c-.041-.31 0-.082 0-.144v.186l.083.227.103.516c.083.372.145.785.187 1.24.02.475 0 1.012-.125 1.57a3.967 3.967 0 0 1-.33.888l-.145.248c-.166.248-.207.31-.331.475-.869.97-1.634 1.24-2.192 1.59-.29.166-.538.29-.745.413-.103.062-.124.083-.29.207l-.165.145c-.29.268-.661.867-1.2 1.507-.164.166-.247.29-.454.517-.186.165-.455.434-.558.495l-.207.145-.207.145-.186.103a3.514 3.514 0 0 1-.703.33c-.91.331-1.593.414-2.11.558-.29.103-.268.041-.661.248-.104.041-.248.145-.435.31-.372.33-.806.888-1.427 1.466a12.71 12.71 0 0 1-.6.496l-.537.351a5.29 5.29 0 0 1-1.323.496l-1.882.33c-.538.145-.745.248-1.22.682-.456.413-.87.93-1.655 1.529-.207.165-.31.206-.455.31-.29.186-.434.227-.662.33a7.506 7.506 0 0 1-1.158.31c-.703.124-1.344.227-1.757.372-.993.248-1.717 1.528-3.02 2.396-1.447.888-2.833.578-4.032 1.198l-.104-.186-.124.062Z"/><path fill="#002179" d="M152.557 12.104c9.74 1.632 19.542 3.099 29.262 4.937 9.699 1.88 19.46 3.863 28.766 7.395 2.316.93 4.591 1.942 6.7 3.326a14.858 14.858 0 0 1 2.916 2.437c.848.95 1.551 2.169 1.675 3.512.145 1.322-.331 2.726-1.055 3.759-.786 1.136-1.985 1.818-3.205 2.251-2.482.806-5.046.723-7.528.537-4.984-.454-9.823-1.61-14.62-2.809-4.798-1.218-9.555-2.561-14.332-3.862-9.533-2.644-19.067-5.226-28.745-7.147-9.657-1.88-19.522-3.181-29.345-2.665-9.823.64-19.563 2.417-29.076 4.999-9.492 2.602-18.777 6.052-27.608 10.39-8.81 4.337-17.371 9.46-24.485 16.194-3.557 3.388-6.556 7.23-8.313 11.877-2.13 4.503-4.757 8.779-7.88 12.662-3.122 3.863-6.7 7.498-11.146 9.936-2.213 1.177-4.777 2.045-7.424 1.694-2.668-.352-4.901-2.149-6.266-4.359-.724-1.177-.745-2.685-.517-3.925.227-1.28.682-2.478 1.22-3.614 1.096-2.273 2.523-4.359 4.053-6.321 3.102-3.925 6.68-7.395 10.485-10.576 7.548-6.548 16.544-10.968 24.857-16.215 2.068-1.322 4.116-2.706 5.998-4.276 1.86-1.549 3.64-3.284 4.839-5.37 1.22-2.045 1.613-4.544.889-6.817-.682-2.313-2.233-4.193-3.867-6.072-3.164-3.801-6.204-7.746-8.769-12.002-1.261-2.148-2.46-4.337-3.143-6.795-.269-1.198-.558-2.644.331-3.884C38.237.124 39.788.227 41.009.371c1.261.166 2.481.58 3.64.972l3.535 1.094c2.358.703 4.757 1.343 7.156 1.921a231.13 231.13 0 0 0 14.476 3.078l-.104.6a224.53 224.53 0 0 1-14.724-2.294 128.29 128.29 0 0 1-7.3-1.652l-3.64-.971c-1.22-.351-2.274-.64-3.329-.744-1.034-.144-1.923.186-1.779.29-.062 0-.124.97.228 1.92.62 1.963 1.84 4.05 3.123 6.012 2.626 3.945 5.749 7.684 8.995 11.257l1.262 1.384c.455.537.91 1.074 1.323 1.694a15.273 15.273 0 0 1 2.11 4.09c.517 1.528.724 3.284.517 4.978-.207 1.714-.786 3.284-1.53 4.647-1.53 2.748-3.537 4.751-5.563 6.528-2.048 1.776-4.157 3.284-6.267 4.71-4.239 2.85-8.52 5.37-12.594 7.993-2.026 1.301-4.012 2.644-5.873 4.028a87.742 87.742 0 0 0-5.48 4.482c-3.515 3.12-6.804 6.486-9.492 10.101-1.324 1.797-2.544 3.635-3.33 5.391-.392.868-.661 1.694-.744 2.272-.041.29-.041.496-.02.517 0 .02.02 0-.021-.103a1.49 1.49 0 0 0-.187-.414s.125.228.187.33c-.062-.102.227.393-.145-.226l.041.062.083.103s.103.165.165.227c.104.145.228.269.331.393.228.227.435.413.641.557.414.269.745.372 1.18.434.847.103 2.398-.269 4.011-1.177 3.288-1.839 6.514-5.102 9.244-8.614 2.73-3.553 5.15-7.477 7.031-11.547l.683-1.549c.227-.537.62-1.404.95-2.045a30.212 30.212 0 0 1 2.358-3.8c1.696-2.355 3.557-4.4 5.501-6.3 7.859-7.478 16.772-12.828 25.954-17.413 9.244-4.483 18.88-7.994 28.745-10.638 9.906-2.624 19.936-4.462 30.358-4.999 10.588-.392 20.804 1.115 30.71 3.181a261.41 261.41 0 0 1 14.662 3.573 722.559 722.559 0 0 1 14.311 4.235c4.735 1.446 9.43 2.892 14.124 4.214 4.674 1.301 9.389 2.52 13.877 3.057 2.192.248 4.466.29 5.914-.145.703-.186 1.199-.578 1.303-.681-.042.144.207-.29.331-.517l-.062.124v-.041l.062-.103a.72.72 0 0 0 .082-.186c.104-.248.104-.393.125-.579.124-.62-1.076-2.21-2.834-3.387-1.737-1.219-3.846-2.231-5.997-3.181-8.727-3.76-18.384-6.176-27.939-8.428l-28.972-6.341.103-.6.042-.04Z"/><path fill="#fff" d="M152.515 12.352c9.761 1.57 19.543 2.975 29.283 4.751 9.72 1.839 19.46 3.739 28.807 7.23 2.316.909 4.612 1.942 6.721 3.326 1.055.702 2.068 1.487 2.937 2.458.848.97 1.572 2.19 1.696 3.573.144 1.343-.331 2.81-1.076 3.821-.806 1.178-2.026 1.86-3.267 2.293-2.502.826-5.087.744-7.569.558-5.005-.455-9.844-1.611-14.642-2.789-4.797-1.218-9.574-2.54-14.331-3.862-9.533-2.624-19.067-5.206-28.745-7.106-9.658-1.88-19.501-3.16-29.283-2.644-19.605 1.384-38.899 6.858-56.56 15.43-8.789 4.317-17.33 9.42-24.423 16.112-3.557 3.387-6.493 7.147-8.251 11.794a64.055 64.055 0 0 1-7.92 12.704c-3.144 3.862-6.722 7.518-11.23 9.997-2.233 1.178-4.839 2.066-7.569 1.715-2.75-.372-5.004-2.19-6.41-4.462-.766-1.24-.766-2.789-.538-4.049.248-1.3.703-2.52 1.24-3.676 1.117-2.293 2.544-4.38 4.095-6.342 3.123-3.924 6.721-7.395 10.526-10.596 7.57-6.548 16.586-10.969 24.878-16.215 2.068-1.322 4.095-2.706 5.977-4.255 1.861-1.55 3.619-3.264 4.818-5.33 1.22-2.024 1.593-4.482.869-6.733-.662-2.293-2.213-4.152-3.826-6.032-3.143-3.821-6.163-7.787-8.706-12.063-1.241-2.148-2.44-4.358-3.081-6.816-.27-1.199-.538-2.644.351-3.822C38.28.186 39.81.27 41.008.434c1.262.186 2.461.578 3.62.97l3.536 1.116c2.357.703 4.736 1.363 7.134 1.963a217.779 217.779 0 0 0 14.476 3.16v.103c-4.88-.867-9.72-1.88-14.538-3.057-2.399-.599-4.797-1.219-7.155-1.92l-3.536-1.096c-1.179-.392-2.358-.785-3.578-.95-1.179-.165-2.585-.165-3.391.785-.745.992-.538 2.355-.249 3.512.642 2.375 1.84 4.565 3.102 6.692 2.565 4.214 5.584 8.139 8.748 11.94 1.613 1.858 3.247 3.82 3.97 6.217.787 2.375.373 5.06-.91 7.188-1.24 2.169-3.04 3.925-4.942 5.494-1.902 1.591-3.95 2.975-6.038 4.318-8.334 5.288-17.289 9.708-24.775 16.215-3.784 3.18-7.341 6.63-10.402 10.513-1.51 1.942-2.916 3.987-3.991 6.218-.517 1.115-.952 2.272-1.18 3.47-.206 1.198-.206 2.5.456 3.532 1.282 2.066 3.37 3.739 5.832 4.049 2.44.33 4.9-.496 7.051-1.632 4.343-2.375 7.859-5.99 10.94-9.812a63.914 63.914 0 0 0 7.776-12.558c1.737-4.648 4.86-8.676 8.437-12.084 7.197-6.837 15.78-11.98 24.63-16.36 8.893-4.337 18.22-7.787 27.753-10.39 9.554-2.582 19.336-4.358 29.221-4.978 9.905-.495 19.791.826 29.489 2.727 9.699 1.942 19.254 4.544 28.787 7.188 4.756 1.322 9.513 2.665 14.311 3.883 4.797 1.198 9.616 2.355 14.538 2.81 2.44.186 4.984.268 7.32-.496 1.158-.393 2.255-1.054 2.958-2.045.703-.992 1.096-2.23.992-3.45-.269-2.499-2.378-4.275-4.363-5.618-2.068-1.343-4.322-2.375-6.618-3.284-9.244-3.532-18.984-5.515-28.662-7.416-9.72-1.859-19.481-3.346-29.242-4.978v-.103.082Z"/></g><path fill="#fff" d="M105.548 65.628a2.866 2.866 0 0 0 .735 2.077 2.919 2.919 0 0 0 2 .958h.159a2.92 2.92 0 0 0 1.594-.474 2.878 2.878 0 0 0 1.069-1.265 2.85 2.85 0 0 0-.557-3.111 2.909 2.909 0 0 0-1.442-.824 2.933 2.933 0 0 0-1.663.098 2.9 2.9 0 0 0-1.334.986c-.338.45-.536.99-.569 1.55l.008.005ZM94.723 64.894a.945.945 0 0 0-.897.524.92.92 0 0 0 .146 1.021.939.939 0 0 0 1.008.259.936.936 0 0 0 .627-.823.922.922 0 0 0-.53-.89.946.946 0 0 0-.354-.091ZM105.364 48.94a.931.931 0 0 0 .512-.898.925.925 0 0 0-.641-.813.947.947 0 0 0-1.004.276.918.918 0 0 0-.128 1.023.946.946 0 0 0 1.261.412ZM108.31 54.03c.256-.129.468-.329.609-.576a1.428 1.428 0 0 0-.808-2.07 1.462 1.462 0 0 0-1.552.425 1.43 1.43 0 0 0-.197 1.584 1.446 1.446 0 0 0 1.403.786c.19-.014.375-.065.545-.15ZM98.397 57.526a1.203 1.203 0 0 0 1.764-.544 1.178 1.178 0 0 0-.27-1.288 1.199 1.199 0 0 0-2.011.622 1.171 1.171 0 0 0 .517 1.21ZM100.163 64.375a1.461 1.461 0 0 0-.818.197 1.442 1.442 0 0 0-.57.613 1.423 1.423 0 0 0 .224 1.58 1.452 1.452 0 0 0 1.559.4 1.444 1.444 0 0 0 .971-1.274c.021-.38-.11-.753-.367-1.038a1.455 1.455 0 0 0-.999-.478ZM98.556 74.03a1.174 1.174 0 0 0-.402 1.785 1.194 1.194 0 0 0 1.26.411c.228-.062.432-.19.586-.368a1.172 1.172 0 0 0 .161-1.304 1.176 1.176 0 0 0-.693-.591 1.206 1.206 0 0 0-.912.068ZM104.192 61.407a1.718 1.718 0 0 0 1.896-.016 1.691 1.691 0 0 0 .711-1.742 1.686 1.686 0 0 0-.475-.861 1.713 1.713 0 0 0-1.863-.35 1.702 1.702 0 0 0-1.011 1.24 1.666 1.666 0 0 0 .266 1.267c.127.184.288.34.476.462ZM122.073 53.914a1.463 1.463 0 0 0 1.613-.017 1.425 1.425 0 0 0 .196-2.214 1.454 1.454 0 0 0-1.585-.294 1.45 1.45 0 0 0-.857 1.056 1.431 1.431 0 0 0 .633 1.47ZM125.049 48.842a.944.944 0 0 0 1.382-.43.922.922 0 0 0-.213-1.01.94.94 0 0 0-1.023-.192.934.934 0 0 0-.554.682.923.923 0 0 0 .408.95ZM122.302 62.89a2.935 2.935 0 0 0-2.099.725 2.877 2.877 0 0 0-.967 1.982 2.874 2.874 0 0 0 1.636 2.755c.343.164.716.26 1.096.281h.169a2.915 2.915 0 0 0 2.005-.825 2.86 2.86 0 0 0 .11-3.99 2.914 2.914 0 0 0-1.957-.932l.007.005ZM109.264 61.208c.24.477.611.878 1.069 1.158a2.93 2.93 0 0 0 2.941.06 2.863 2.863 0 0 0 .107-4.961 2.912 2.912 0 0 0-2.831-.111 2.892 2.892 0 0 0-1.445 1.664 2.854 2.854 0 0 0 .159 2.19ZM132.027 57.523a1.18 1.18 0 0 0 .653-1.145 1.193 1.193 0 0 0-.818-1.035 1.204 1.204 0 0 0-1.279.352 1.18 1.18 0 0 0-.161 1.305 1.188 1.188 0 0 0 .693.591 1.208 1.208 0 0 0 .912-.068ZM124.665 58.44a1.679 1.679 0 0 0-.576 2.55 1.71 1.71 0 0 0 1.801.588c.325-.09.616-.272.837-.525a1.683 1.683 0 0 0-.758-2.71 1.724 1.724 0 0 0-1.304.097ZM115.184 48.409a1.202 1.202 0 0 0 1.142-.669 1.17 1.17 0 0 0-.186-1.301 1.206 1.206 0 0 0-1.845.077 1.182 1.182 0 0 0-.173 1.103 1.178 1.178 0 0 0 .61.675c.141.068.295.107.452.115ZM115.169 55.855c.337.018.672-.062.963-.232a1.68 1.68 0 0 0 .406-2.582 1.722 1.722 0 0 0-2.636.108 1.68 1.68 0 0 0 .089 2.144 1.715 1.715 0 0 0 1.178.562ZM105.921 73.115c.302-.15.551-.386.718-.677a1.68 1.68 0 0 0-.14-1.874 1.72 1.72 0 0 0-2.638-.064 1.677 1.677 0 0 0 .178 2.384 1.719 1.719 0 0 0 1.882.23ZM116.273 58.321a2.854 2.854 0 0 0 .291 3.519 2.925 2.925 0 0 0 3.515.585 2.879 2.879 0 0 0 1.277-1.372c.26-.585.316-1.24.158-1.86a2.873 2.873 0 0 0-1.029-1.563 2.918 2.918 0 0 0-4.212.691ZM121.321 70.346a2.886 2.886 0 0 0-1.163-1.21 2.929 2.929 0 0 0-3.219.236c-.453.35-.791.826-.971 1.366a2.865 2.865 0 0 0 .863 3.08 2.931 2.931 0 0 0 4.099-.3 2.83 2.83 0 0 0 .391-3.173ZM126.393 70.147a1.721 1.721 0 0 0-1.897.017 1.678 1.678 0 0 0-.234 2.604 1.713 1.713 0 0 0 1.864.348 1.682 1.682 0 0 0 .267-2.97ZM131.951 65.826a1.43 1.43 0 0 0-.818-1.375 1.46 1.46 0 0 0-1.595.222 1.434 1.434 0 0 0-.404 1.545c.095.268.267.502.496.673a1.46 1.46 0 0 0 1.838-.076c.287-.253.461-.61.483-.99ZM135.968 64.802a.945.945 0 0 0-.9.524.918.918 0 0 0 .145 1.024.949.949 0 0 0 1.45-.059.919.919 0 0 0-.049-1.178.942.942 0 0 0-.646-.31ZM132.186 74.026a1.203 1.203 0 0 0-1.327.012 1.184 1.184 0 0 0-.497 1.219 1.182 1.182 0 0 0 .946.921 1.195 1.195 0 0 0 1.397-.941 1.177 1.177 0 0 0-.519-1.211ZM105.536 82.71a.945.945 0 0 0-1.383.43.929.929 0 0 0 .693 1.26.945.945 0 0 0 .959-.402.918.918 0 0 0 .134-.699.93.93 0 0 0-.403-.588ZM125.219 82.614a.931.931 0 0 0-.505.899.928.928 0 0 0 .643.808.944.944 0 0 0 1.001-.275.925.925 0 0 0-.418-1.49.943.943 0 0 0-.721.058ZM114.311 73.233a2.855 2.855 0 0 0-.29-3.519 2.924 2.924 0 0 0-3.515-.585 2.886 2.886 0 0 0-1.278 1.372 2.847 2.847 0 0 0-.157 1.86c.157.62.519 1.17 1.028 1.563.51.394 1.136.607 1.782.608.482.002.957-.117 1.382-.344a2.88 2.88 0 0 0 1.048-.955ZM108.512 77.64a1.463 1.463 0 0 0-1.614.012c-.237.16-.421.386-.529.65a1.426 1.426 0 0 0 .328 1.564 1.457 1.457 0 0 0 1.585.298 1.43 1.43 0 0 0 .23-2.525ZM115.279 83.144a1.192 1.192 0 0 0-1.145.666 1.178 1.178 0 0 0 .772 1.662 1.207 1.207 0 0 0 1.255-.428 1.182 1.182 0 0 0 .18-1.103 1.187 1.187 0 0 0-.609-.68 1.208 1.208 0 0 0-.453-.117ZM115.292 75.699a1.718 1.718 0 0 0-.965.228 1.69 1.69 0 0 0-.83 1.69c.046.332.191.643.415.893a1.713 1.713 0 0 0 1.837.473 1.71 1.71 0 0 0 .802-.579 1.683 1.683 0 0 0-.087-2.141 1.712 1.712 0 0 0-1.172-.564ZM122.273 77.525a1.432 1.432 0 0 0 .199 2.65 1.466 1.466 0 0 0 1.554-.428 1.427 1.427 0 0 0-.152-2.028 1.45 1.45 0 0 0-1.055-.345c-.19.014-.376.065-.546.15Z"/></svg>