<svg width="321" height="175" viewBox="0 0 321 175" fill="none" xmlns="http://www.w3.org/2000/svg">
<path d="M318.5 1C316.5 8.66667 313 22.7 313 33.5C313 47 311.5 70 293 70C274.5 70 261.5 51 256 39.5C250.5 28 231.5 21.5 223 27.5C214.5 33.5 219.5 44 220 47C220.5 50 223 67.5 207.5 62.5C192 57.5 185.5 47.5 174.5 57C163.5 66.5 175 103.5 170 119C165 134.5 168.5 155.5 142 168.5C115.5 181.5 95 162.5 89.5 153.5C84 144.5 74 113 52 112.5C30 112 5.5 140.5 2 158.5" stroke="white" stroke-width="4" stroke-linejoin="round" stroke-dasharray="1 10"/>
</svg>
