<svg xmlns="http://www.w3.org/2000/svg" width="40" height="43" fill="none"><path fill="#fff" d="M20.057 1.574C14.162 1.574 9.3 7.706 9.3 15.348c0 .244.005.476.015.695a.787.787 0 0 1-.672.814h.003l-.156.028c-1.436.25-2.693.249-3.773-.012l-.124-.03c-.436-.116-.815-.285-1.347-.572-.666-.36-.833-.445-.983-.48l-.031-.008a1.263 1.263 0 0 0-.05-.008c-.113-.017-.164.009-.32.256-.45.711-.385 1.623.279 2.818l3.45 5.968.1-.038c5.947-2.241 10.66-3.388 14.17-3.43l.14-.001c3.519.013 8.279 1.16 14.307 3.431l.1.038 3.443-5.956c.653-1.176.733-2.072.32-2.775l-.034-.055c-.23-.362-.286-.358-1.147.11l-.108.06c-.637.347-1.003.516-1.477.641-1.148.302-2.502.302-4.063.013l.121.021-.023-.003-.096-.018c-.633-.117-.77-.744-.545-1.167l.01-.018.002-.137.001-.185c0-7.642-4.86-13.774-10.756-13.774Z"/><path fill="#000" d="M20.057 0c6.855 0 12.33 6.906 12.33 15.348v.076l.141.017c.91.098 1.701.065 2.373-.095l.105-.026c.313-.083.594-.212 1.123-.501l.108-.06c.7-.38 1.042-.526 1.505-.558.699-.048 1.286.294 1.726.988.796 1.257.687 2.767-.246 4.448l-3.785 6.548a.787.787 0 0 1-.965.341c-6.211-2.394-11.046-3.592-14.47-3.604-3.428.012-8.262 1.21-14.474 3.604a.787.787 0 0 1-.964-.34l-3.792-6.56c-.926-1.67-1.035-3.18-.239-4.437.477-.754 1.128-1.086 1.888-.97.274.042.541.136.85.284.112.054.226.113.37.19l.353.192c.43.233.714.36 1 .435.735.193 1.619.23 2.663.098l.07-.01v-.06C7.726 6.99 13.092.137 19.851.002L20.057 0Zm0 1.574C14.162 1.574 9.3 7.706 9.3 15.348c0 .244.005.476.015.695a.787.787 0 0 1-.672.814h.003l-.156.028c-1.436.25-2.693.25-3.773-.012l-.124-.03c-.436-.116-.815-.285-1.347-.572-.666-.36-.833-.445-.982-.48l-.032-.008a1.263 1.263 0 0 0-.05-.008c-.113-.017-.164.009-.32.256-.45.711-.385 1.623.279 2.818l3.45 5.968.1-.038c5.947-2.241 10.66-3.388 14.17-3.43l.14-.001c3.519.013 8.279 1.16 14.307 3.431l.1.038 3.443-5.956c.653-1.176.733-2.072.32-2.775l-.034-.055c-.23-.362-.286-.358-1.147.11l-.108.06c-.637.347-1.003.516-1.477.641-1.148.302-2.502.302-4.063.013l.121.021-.023-.003-.096-.018c-.633-.117-.77-.744-.545-1.167l.01-.018.002-.137.001-.185c0-7.642-4.86-13.774-10.756-13.774Z"/><path fill="#000" d="m22.867 10.038 1.056 1.168-.583.528-5.51 4.984-.583.528-1.056-1.167.583-.528 5.51-4.985.583-.528Z"/><path fill="#000" d="m17.247 10.038-1.056 1.168.583.528 5.51 4.984.583.528 1.056-1.167-.583-.528-5.51-4.985-.583-.528ZM27.017 22.703l1.184 1.036c-4.956 5.665-13.106 8.773-24.406 9.364l-.082-1.572c10.912-.57 18.666-3.527 23.304-8.828Z"/><path fill="#fff" d="M13.892 28.334h-1.05a3.017 3.017 0 0 0 0 6.034h1.05a3.017 3.017 0 0 0 0-6.034Z"/><path fill="#000" d="M13.892 27.547a3.804 3.804 0 0 1 0 7.608h-1.05a3.804 3.804 0 0 1 0-7.608h1.05Zm0 1.574h-1.05a2.23 2.23 0 1 0 0 4.46h1.05a2.23 2.23 0 1 0 0-4.46ZM28.977 33.843a2.099 2.099 0 1 0 0-4.197 2.099 2.099 0 0 0 0 4.197ZM24.559 39.897l.986 1.227c-1.471 1.183-2.973 1.79-4.492 1.79-1.52 0-3.021-.607-4.493-1.79l.987-1.227c1.208.972 2.373 1.443 3.506 1.443 1.132 0 2.297-.47 3.506-1.443Z"/></svg>